G04*
G04 #@! TF.GenerationSoftware,Altium Limited,CircuitMaker,2.3.0 (2.3.0.3)*
G04*
G04 Layer_Color=8150272*
%FSLAX25Y25*%
%MOIN*%
G70*
G04*
G04 #@! TF.SameCoordinates,2CE33893-7A16-41D8-AC82-33CA6B9F0197*
G04*
G04*
G04 #@! TF.FilePolarity,Negative*
G04*
G01*
G75*
%ADD78C,0.06800*%
%ADD79R,0.06800X0.06800*%
%ADD80C,0.12611*%
%ADD81C,0.09461*%
G04:AMPARAMS|DCode=82|XSize=68mil|YSize=68mil|CornerRadius=11.5mil|HoleSize=0mil|Usage=FLASHONLY|Rotation=0.000|XOffset=0mil|YOffset=0mil|HoleType=Round|Shape=RoundedRectangle|*
%AMROUNDEDRECTD82*
21,1,0.06800,0.04500,0,0,0.0*
21,1,0.04500,0.06800,0,0,0.0*
1,1,0.02300,0.02250,-0.02250*
1,1,0.02300,-0.02250,-0.02250*
1,1,0.02300,-0.02250,0.02250*
1,1,0.02300,0.02250,0.02250*
%
%ADD82ROUNDEDRECTD82*%
%ADD83C,0.08674*%
%ADD84C,0.03162*%
%ADD85C,0.03600*%
D78*
X372500Y-114500D02*
D03*
X362500D02*
D03*
X242500Y-27000D02*
D03*
X232500D02*
D03*
X222500D02*
D03*
X343500Y-80000D02*
D03*
Y-70000D02*
D03*
X353500Y-80000D02*
D03*
Y-70000D02*
D03*
X363500Y-80000D02*
D03*
Y-70000D02*
D03*
X373500Y-80000D02*
D03*
Y-70000D02*
D03*
X383500Y-80000D02*
D03*
Y-70000D02*
D03*
X132000Y-249000D02*
D03*
Y-239000D02*
D03*
D79*
X382500Y-114500D02*
D03*
X212500Y-27000D02*
D03*
D80*
X7874Y-7874D02*
D03*
X518126Y-6874D02*
D03*
X517126Y-320126D02*
D03*
X7874Y-319126D02*
D03*
X276500Y-290500D02*
D03*
D81*
X56343Y-274158D02*
D03*
X36658D02*
D03*
Y-293843D02*
D03*
X56343D02*
D03*
X470685Y-283500D02*
D03*
X451000D02*
D03*
Y-263815D02*
D03*
X470685D02*
D03*
X470843Y-191842D02*
D03*
X451158D02*
D03*
Y-172158D02*
D03*
X470843D02*
D03*
X410843Y-283343D02*
D03*
X391158D02*
D03*
Y-263657D02*
D03*
X410843D02*
D03*
X334315Y-261815D02*
D03*
X354000D02*
D03*
Y-281500D02*
D03*
X334315D02*
D03*
X392000Y-169815D02*
D03*
X411685D02*
D03*
Y-189500D02*
D03*
X392000D02*
D03*
X350342Y-191342D02*
D03*
X330658D02*
D03*
Y-171658D02*
D03*
X350342D02*
D03*
D82*
X185287Y-322500D02*
D03*
X149713D02*
D03*
X185295Y-308039D02*
D03*
X149705D02*
D03*
D83*
X105000Y-274158D02*
D03*
Y-293843D02*
D03*
X56500Y-221209D02*
D03*
Y-242862D02*
D03*
D84*
X146000Y-301000D02*
D03*
X167500Y-300500D02*
D03*
X232500Y-122500D02*
D03*
Y-111000D02*
D03*
Y-98000D02*
D03*
X243000Y-87500D02*
D03*
X209000Y-77000D02*
D03*
X146500Y-100500D02*
D03*
X163500Y-103000D02*
D03*
Y-111500D02*
D03*
X203500Y-144000D02*
D03*
X224000Y-141000D02*
D03*
X255500Y-142500D02*
D03*
X264500Y-123500D02*
D03*
X263500Y-120500D02*
D03*
X264500Y-87000D02*
D03*
X252000Y-77500D02*
D03*
X234500Y-78000D02*
D03*
X164500Y-78500D02*
D03*
X199500Y-45500D02*
D03*
X199000Y-103000D02*
D03*
X199500Y-106500D02*
D03*
D85*
X161500Y-295500D02*
D03*
X173438Y-295563D02*
D03*
X198000Y-139500D02*
D03*
X199500Y-131000D02*
D03*
X337500Y-63500D02*
D03*
X290500Y-52500D02*
D03*
X451000Y-107000D02*
D03*
X486500Y-221500D02*
D03*
X334000Y-220500D02*
D03*
X307000Y-201500D02*
D03*
X281000Y-90000D02*
D03*
X309500Y-68500D02*
D03*
X363500Y-89000D02*
D03*
X221000Y-77000D02*
D03*
X330000Y-101000D02*
D03*
X214500Y-77000D02*
D03*
X201000Y-122500D02*
D03*
X158500Y-149500D02*
D03*
X179000Y-151000D02*
D03*
X70500Y-117500D02*
D03*
X79000Y-131000D02*
D03*
X109500Y-189000D02*
D03*
X67000Y-149000D02*
D03*
X120500Y-141500D02*
D03*
X218000Y-44000D02*
D03*
X98500Y-200000D02*
D03*
X239000Y-34000D02*
D03*
X178000Y-123500D02*
D03*
X213500Y-49000D02*
D03*
X73744Y-221351D02*
D03*
X74000Y-242500D02*
D03*
X296500Y-92500D02*
D03*
X210114Y-58114D02*
D03*
X495000Y-214000D02*
D03*
X296500Y-182000D02*
D03*
X322000Y-224500D02*
D03*
X304000D02*
D03*
X286500D02*
D03*
X377000Y-240500D02*
D03*
X289000Y-201500D02*
D03*
X435000Y-220000D02*
D03*
X379000Y-209500D02*
D03*
X326500Y-210000D02*
D03*
X221000Y-275000D02*
D03*
X173500Y-278500D02*
D03*
X140000Y-281000D02*
D03*
M02*
