G04*
G04 #@! TF.GenerationSoftware,Altium Limited,CircuitMaker,2.3.0 (2.3.0.3)*
G04*
G04 Layer_Color=15314666*
%FSLAX25Y25*%
%MOIN*%
G70*
G04*
G04 #@! TF.SameCoordinates,2CE33893-7A16-41D8-AC82-33CA6B9F0197*
G04*
G04*
G04 #@! TF.FilePolarity,Positive*
G04*
G01*
G75*
%ADD12C,0.01000*%
%ADD14C,0.00197*%
%ADD95C,0.00394*%
%ADD96C,0.00200*%
D12*
X297500Y-111500D02*
Y-106500D01*
X295000Y-109000D02*
X300000D01*
D14*
X142043Y-314693D02*
Y-301307D01*
X134957Y-314693D02*
Y-301307D01*
X142043D01*
X134957Y-314693D02*
X142043D01*
X183165Y-157335D02*
X278835D01*
X183165Y-61665D02*
X278835D01*
Y-157335D02*
Y-61665D01*
X183165Y-157335D02*
Y-61665D01*
X92240Y-133480D02*
Y-118520D01*
X84760Y-133480D02*
Y-118520D01*
X92240D01*
X84760Y-133480D02*
X92240D01*
X270284Y-173047D02*
X280716D01*
X270284Y-178953D02*
Y-173047D01*
X275500Y-177870D02*
Y-174130D01*
X273630Y-176000D02*
X277370D01*
X270284Y-178953D02*
X280716D01*
Y-173047D01*
X264201Y-169937D02*
X276799D01*
X264201D02*
Y-162063D01*
X276799D01*
Y-169937D02*
Y-162063D01*
X270500Y-166787D02*
Y-165213D01*
X269713Y-166000D02*
X271287D01*
X161531Y-164461D02*
X165469D01*
X161531Y-171547D02*
X165469D01*
Y-164461D01*
X161531Y-171547D02*
Y-164461D01*
X285850Y-86815D02*
X292150D01*
X285850Y-76185D02*
X292150D01*
X285850Y-86815D02*
Y-76185D01*
X292150Y-86815D02*
Y-76185D01*
X285063Y-137299D02*
Y-124701D01*
X292937D01*
Y-137299D02*
Y-124701D01*
X285063Y-137299D02*
X292937D01*
X288213Y-131000D02*
X289787D01*
X289000Y-131787D02*
Y-130213D01*
X240701Y-48563D02*
X253299D01*
Y-56437D02*
Y-48563D01*
X240701Y-56437D02*
X253299D01*
X240701D02*
Y-48563D01*
X247000Y-53287D02*
Y-51713D01*
X246213Y-52500D02*
X247787D01*
X199701Y-168437D02*
X212299D01*
X199701D02*
Y-160563D01*
X212299D01*
Y-168437D02*
Y-160563D01*
X206000Y-165287D02*
Y-163713D01*
X205213Y-164500D02*
X206787D01*
X227201Y-168437D02*
X239799D01*
X227201D02*
Y-160563D01*
X239799D01*
Y-168437D02*
Y-160563D01*
X233500Y-165287D02*
Y-163713D01*
X232713Y-164500D02*
X234287D01*
X151532Y-164457D02*
X155468D01*
X151532Y-171543D02*
X155468D01*
Y-164457D01*
X151532Y-171543D02*
Y-164457D01*
X427850Y-100185D02*
X434150D01*
X427850Y-110815D02*
X434150D01*
Y-100185D01*
X427850Y-110815D02*
Y-100185D01*
X157021Y-106726D02*
X161352D01*
X157021Y-114994D02*
X161352D01*
Y-106726D01*
X157021Y-114994D02*
Y-106726D01*
X137445Y-127799D02*
Y-115201D01*
X155555Y-127799D02*
Y-115201D01*
X137445D02*
X155555D01*
X137445Y-127799D02*
X155555D01*
X137445Y-106799D02*
Y-94201D01*
X155555Y-106799D02*
Y-94201D01*
X137445D02*
X155555D01*
X137445Y-106799D02*
X155555D01*
X301547Y-84039D02*
X307453D01*
Y-94472D02*
Y-84039D01*
X304500Y-91126D02*
Y-87386D01*
X302630Y-89256D02*
X306370D01*
X301547Y-94472D02*
X307453D01*
X301547D02*
Y-84039D01*
X146134Y-274028D02*
X187866D01*
X146134Y-214972D02*
X187866D01*
X146134Y-274028D02*
Y-214972D01*
X187866Y-274028D02*
Y-214972D01*
X257594Y-55453D02*
X269406D01*
X257594Y-49547D02*
X269406D01*
Y-55453D02*
Y-49547D01*
X257594Y-55453D02*
Y-49547D01*
X202512Y-302331D02*
Y-277921D01*
X191488Y-302331D02*
Y-277921D01*
X202512D01*
X191488Y-302331D02*
X202512D01*
X173000Y-88287D02*
Y-86713D01*
X172213Y-87500D02*
X173787D01*
X169063Y-93799D02*
X176937D01*
Y-81201D01*
X169063D02*
X176937D01*
X169063Y-93799D02*
Y-81201D01*
X173000Y-105287D02*
Y-103713D01*
X172213Y-104500D02*
X173787D01*
X169063Y-110799D02*
X176937D01*
Y-98201D01*
X169063D02*
X176937D01*
X169063Y-110799D02*
Y-98201D01*
X199213Y-52000D02*
X200787D01*
X200000Y-52787D02*
Y-51213D01*
X193701Y-55937D02*
Y-48063D01*
Y-55937D02*
X206299D01*
Y-48063D01*
X193701D02*
X206299D01*
X172500Y-137287D02*
Y-135713D01*
X171713Y-136500D02*
X173287D01*
X168563Y-130201D02*
X176437D01*
X168563Y-142799D02*
Y-130201D01*
Y-142799D02*
X176437D01*
Y-130201D01*
X229713Y-52500D02*
X231287D01*
X230500Y-53287D02*
Y-51713D01*
X224201Y-56437D02*
Y-48563D01*
Y-56437D02*
X236799D01*
Y-48563D01*
X224201D02*
X236799D01*
X456709Y-246732D02*
Y-225079D01*
X445291Y-246732D02*
Y-225079D01*
X456709D01*
X445291Y-246732D02*
X456709D01*
X465291Y-235421D02*
Y-213768D01*
X476709Y-235421D02*
Y-213768D01*
X465291Y-235421D02*
X476709D01*
X465291Y-213768D02*
X476709D01*
X410382Y-113661D02*
Y-96339D01*
X420618Y-113661D02*
Y-96339D01*
X410382Y-113661D02*
X420618D01*
X410382Y-96339D02*
X420618D01*
X293850Y-47315D02*
X300150D01*
X293850Y-36685D02*
X300150D01*
X293850Y-47315D02*
Y-36685D01*
X300150Y-47315D02*
Y-36685D01*
X397209Y-245327D02*
Y-223673D01*
X385791Y-245327D02*
Y-223673D01*
X397209D01*
X385791Y-245327D02*
X397209D01*
X340209Y-244827D02*
Y-223173D01*
X328791Y-244827D02*
Y-223173D01*
X340209D01*
X328791Y-244827D02*
X340209D01*
X405291Y-233327D02*
Y-211673D01*
X416709Y-233327D02*
Y-211673D01*
X405291Y-233327D02*
X416709D01*
X405291Y-211673D02*
X416709D01*
X344291Y-232827D02*
Y-211173D01*
X355709Y-232827D02*
Y-211173D01*
X344291Y-232827D02*
X355709D01*
X344291Y-211173D02*
X355709D01*
X104760Y-133480D02*
X112240D01*
X104760Y-118520D02*
X112240D01*
X104760Y-133480D02*
Y-118520D01*
X112240Y-133480D02*
Y-118520D01*
X94760Y-133480D02*
X102240D01*
X94760Y-118520D02*
X102240D01*
X94760Y-133480D02*
Y-118520D01*
X102240Y-133480D02*
Y-118520D01*
X397850Y-100185D02*
X404150D01*
X397850Y-110815D02*
X404150D01*
Y-100185D01*
X397850Y-110815D02*
Y-100185D01*
D95*
X136531Y-308000D02*
X140469D01*
X138500Y-309968D02*
Y-306031D01*
X231000Y-111469D02*
Y-107531D01*
X229031Y-109500D02*
X232968D01*
X86532Y-126000D02*
X90469D01*
X88500Y-127969D02*
Y-124031D01*
X163500Y-168654D02*
Y-167354D01*
X162850Y-168004D02*
X164150D01*
X289000Y-83469D02*
Y-79532D01*
X287032Y-81500D02*
X290968D01*
X308425Y-121697D02*
Y-96205D01*
X286870Y-121697D02*
X308425D01*
X286870D02*
Y-96205D01*
X308425D01*
X153500Y-168650D02*
Y-167350D01*
X152850Y-168000D02*
X154150D01*
X158579Y-158000D02*
Y-154000D01*
X156579Y-156000D02*
X160579D01*
X150579Y-151500D02*
X166579D01*
Y-160500D02*
Y-151500D01*
X150579Y-160500D02*
X166579D01*
X150579D02*
Y-151500D01*
X18229Y-284500D02*
X21772D01*
X20000Y-286272D02*
Y-282729D01*
X431000Y-107468D02*
Y-103532D01*
X429032Y-105500D02*
X432969D01*
X159186Y-111943D02*
Y-109777D01*
X158104Y-110860D02*
X160269D01*
X144532Y-121500D02*
X148468D01*
X146500Y-123468D02*
Y-119532D01*
X144532Y-100500D02*
X148468D01*
X146500Y-102469D02*
Y-98532D01*
X167000Y-246468D02*
Y-242531D01*
X165032Y-244500D02*
X168968D01*
X263500Y-54390D02*
Y-50610D01*
X261610Y-52500D02*
X265390D01*
X195031Y-290126D02*
X198969D01*
X197000Y-292094D02*
Y-288158D01*
X449031Y-235906D02*
X452969D01*
X451000Y-237874D02*
Y-233937D01*
X469031Y-224594D02*
X472968D01*
X471000Y-226563D02*
Y-222626D01*
X413531Y-105000D02*
X417469D01*
X415500Y-106968D02*
Y-103032D01*
X297000Y-43968D02*
Y-40031D01*
X295031Y-42000D02*
X298969D01*
X389531Y-234500D02*
X393468D01*
X391500Y-236469D02*
Y-232531D01*
X332531Y-234000D02*
X336469D01*
X334500Y-235968D02*
Y-232031D01*
X409031Y-222500D02*
X412968D01*
X411000Y-224468D02*
Y-220532D01*
X348031Y-222000D02*
X351969D01*
X350000Y-223969D02*
Y-220031D01*
X108500Y-127969D02*
Y-124031D01*
X106532Y-126000D02*
X110468D01*
X98500Y-127969D02*
Y-124031D01*
X96531Y-126000D02*
X100469D01*
X401000Y-107468D02*
Y-103532D01*
X399031Y-105500D02*
X402969D01*
D96*
X488099Y-275501D02*
Y-271501D01*
Y-275501D02*
X489899D01*
X488350Y-273500D02*
X489650D01*
X489000Y-274150D02*
Y-272851D01*
X489900Y-275500D02*
Y-271500D01*
X488100D02*
X489900D01*
X435401Y-183999D02*
Y-179999D01*
X433601D02*
X435401D01*
X433850Y-182000D02*
X435150D01*
X434500Y-182650D02*
Y-181350D01*
X433600Y-184000D02*
Y-180000D01*
Y-184000D02*
X435400D01*
X427599Y-275500D02*
Y-271500D01*
Y-275500D02*
X429399D01*
X427850Y-273499D02*
X429150D01*
X428500Y-274149D02*
Y-272850D01*
X429400Y-275500D02*
Y-271499D01*
X427600D02*
X429400D01*
X367099Y-274501D02*
Y-270501D01*
Y-274501D02*
X368899D01*
X367350Y-272500D02*
X368650D01*
X368000Y-273150D02*
Y-271850D01*
X368900Y-274500D02*
Y-270500D01*
X367100D02*
X368900D01*
X373401Y-182000D02*
Y-178000D01*
X371601D02*
X373401D01*
X371850Y-180000D02*
X373150D01*
X372500Y-180650D02*
Y-179351D01*
X371600Y-182001D02*
Y-178000D01*
Y-182001D02*
X373400D01*
X313901Y-183500D02*
Y-179500D01*
X312101D02*
X313901D01*
X312350Y-181500D02*
X313650D01*
X313000Y-182150D02*
Y-180851D01*
X312100Y-183501D02*
Y-179500D01*
Y-183501D02*
X313900D01*
M02*
