G04*
G04 #@! TF.GenerationSoftware,Altium Limited,CircuitMaker,2.3.0 (2.3.0.3)*
G04*
G04 Layer_Physical_Order=1*
G04 Layer_Color=25308*
%FSLAX25Y25*%
%MOIN*%
G70*
G04*
G04 #@! TF.SameCoordinates,2CE33893-7A16-41D8-AC82-33CA6B9F0197*
G04*
G04*
G04 #@! TF.FilePolarity,Positive*
G04*
G01*
G75*
%ADD12C,0.01000*%
%ADD18R,0.05315X0.03937*%
%ADD19O,0.01181X0.08268*%
%ADD20O,0.08268X0.01181*%
%ADD21R,0.06102X0.03543*%
G04:AMPARAMS|DCode=22|XSize=39.37mil|YSize=28.35mil|CornerRadius=3.54mil|HoleSize=0mil|Usage=FLASHONLY|Rotation=270.000|XOffset=0mil|YOffset=0mil|HoleType=Round|Shape=RoundedRectangle|*
%AMROUNDEDRECTD22*
21,1,0.03937,0.02126,0,0,270.0*
21,1,0.03228,0.02835,0,0,270.0*
1,1,0.00709,-0.01063,-0.01614*
1,1,0.00709,-0.01063,0.01614*
1,1,0.00709,0.01063,0.01614*
1,1,0.00709,0.01063,-0.01614*
%
%ADD22ROUNDEDRECTD22*%
%ADD23R,0.03543X0.05118*%
%ADD24R,0.02047X0.02205*%
%ADD25R,0.05315X0.04134*%
%ADD26R,0.06299X0.09842*%
%ADD27R,0.05118X0.03543*%
%ADD28R,0.04331X0.07480*%
%ADD30R,0.05118X0.03543*%
%ADD31R,0.07480X0.17323*%
%ADD32R,0.02559X0.02559*%
%ADD33R,0.05118X0.10630*%
%ADD34R,0.03200X0.05000*%
%ADD35R,0.02800X0.05000*%
%ADD36R,0.03000X0.05000*%
G04:AMPARAMS|DCode=37|XSize=39.37mil|YSize=28.35mil|CornerRadius=3.54mil|HoleSize=0mil|Usage=FLASHONLY|Rotation=0.000|XOffset=0mil|YOffset=0mil|HoleType=Round|Shape=RoundedRectangle|*
%AMROUNDEDRECTD37*
21,1,0.03937,0.02126,0,0,0.0*
21,1,0.03228,0.02835,0,0,0.0*
1,1,0.00709,0.01614,-0.01063*
1,1,0.00709,-0.01614,-0.01063*
1,1,0.00709,-0.01614,0.01063*
1,1,0.00709,0.01614,0.01063*
%
%ADD37ROUNDEDRECTD37*%
%ADD38R,0.03937X0.11417*%
%ADD39R,0.40945X0.31496*%
%ADD40R,0.15157X0.21654*%
%ADD41R,0.00984X0.01378*%
%ADD42R,0.04134X0.03937*%
%ADD43R,0.07874X0.07874*%
%ADD44R,0.07480X0.05905*%
%ADD45R,0.06102X0.06102*%
%ADD46R,0.01200X0.01400*%
%ADD47R,0.16535X0.05905*%
%ADD86R,0.02362X0.01968*%
%ADD87C,0.06000*%
%ADD88R,0.06000X0.06000*%
%ADD89C,0.11811*%
%ADD90C,0.08661*%
G04:AMPARAMS|DCode=91|XSize=60mil|YSize=60mil|CornerRadius=7.5mil|HoleSize=0mil|Usage=FLASHONLY|Rotation=0.000|XOffset=0mil|YOffset=0mil|HoleType=Round|Shape=RoundedRectangle|*
%AMROUNDEDRECTD91*
21,1,0.06000,0.04500,0,0,0.0*
21,1,0.04500,0.06000,0,0,0.0*
1,1,0.01500,0.02250,-0.02250*
1,1,0.01500,-0.02250,-0.02250*
1,1,0.01500,-0.02250,0.02250*
1,1,0.01500,0.02250,0.02250*
%
%ADD91ROUNDEDRECTD91*%
%ADD92C,0.07874*%
%ADD93C,0.02362*%
%ADD94C,0.02800*%
G36*
X525000Y-1000D02*
Y-4118D01*
X524500Y-4217D01*
X524246Y-3603D01*
X523490Y-2472D01*
X522528Y-1510D01*
X521397Y-754D01*
X520140Y-234D01*
X518806Y32D01*
X517446D01*
X516112Y-234D01*
X514855Y-754D01*
X513724Y-1510D01*
X512762Y-2472D01*
X512006Y-3603D01*
X511486Y-4860D01*
X511221Y-6194D01*
Y-7554D01*
X511486Y-8888D01*
X512006Y-10145D01*
X512762Y-11276D01*
X513724Y-12238D01*
X514855Y-12994D01*
X516112Y-13514D01*
X517446Y-13780D01*
X518806D01*
X520140Y-13514D01*
X521397Y-12994D01*
X522528Y-12238D01*
X523490Y-11276D01*
X524246Y-10145D01*
X524500Y-9531D01*
X525000Y-9630D01*
Y-328000D01*
X1000D01*
X943Y-321744D01*
X1442Y-321643D01*
X1754Y-322397D01*
X2510Y-323528D01*
X3472Y-324490D01*
X4603Y-325246D01*
X5860Y-325766D01*
X7194Y-326031D01*
X8554D01*
X9888Y-325766D01*
X11145Y-325246D01*
X12276Y-324490D01*
X13238Y-323528D01*
X13994Y-322397D01*
X14514Y-321140D01*
X14780Y-319806D01*
Y-318446D01*
X14514Y-317112D01*
X13994Y-315855D01*
X13238Y-314724D01*
X12276Y-313762D01*
X11145Y-313006D01*
X9888Y-312486D01*
X8554Y-312221D01*
X7194D01*
X5860Y-312486D01*
X4603Y-313006D01*
X3472Y-313762D01*
X2510Y-314724D01*
X1754Y-315855D01*
X1397Y-316718D01*
X896Y-316620D01*
X-1997Y645D01*
X-1645Y1000D01*
X523000D01*
X525000Y-1000D01*
D02*
G37*
%LPC*%
G36*
X8554Y-969D02*
X7194D01*
X5860Y-1234D01*
X4603Y-1754D01*
X3472Y-2510D01*
X2510Y-3472D01*
X1754Y-4603D01*
X1234Y-5860D01*
X969Y-7194D01*
Y-8554D01*
X1234Y-9888D01*
X1754Y-11145D01*
X2510Y-12276D01*
X3472Y-13238D01*
X4603Y-13994D01*
X5860Y-14514D01*
X7194Y-14780D01*
X8554D01*
X9888Y-14514D01*
X11145Y-13994D01*
X12276Y-13238D01*
X13238Y-12276D01*
X13994Y-11145D01*
X14514Y-9888D01*
X14780Y-8554D01*
Y-7194D01*
X14514Y-5860D01*
X13994Y-4603D01*
X13238Y-3472D01*
X12276Y-2510D01*
X11145Y-1754D01*
X9888Y-1234D01*
X8554Y-969D01*
D02*
G37*
G36*
X233027Y-23000D02*
X231973D01*
X230956Y-23273D01*
X230044Y-23799D01*
X229299Y-24544D01*
X228773Y-25456D01*
X228500Y-26473D01*
Y-27527D01*
X228773Y-28544D01*
X229299Y-29456D01*
X229590Y-29747D01*
X217737Y-41600D01*
X217523D01*
X216640Y-41965D01*
X215965Y-42641D01*
X215600Y-43523D01*
Y-44477D01*
X215965Y-45360D01*
X216640Y-46035D01*
X216675Y-46049D01*
Y-49859D01*
X216213Y-50050D01*
X215824Y-49661D01*
X215900Y-49477D01*
Y-48523D01*
X215535Y-47640D01*
X214860Y-46965D01*
X213977Y-46600D01*
X213023D01*
X212140Y-46965D01*
X211465Y-47640D01*
X211100Y-48523D01*
Y-49477D01*
X211465Y-50359D01*
X212140Y-51035D01*
X213023Y-51400D01*
X213237D01*
X214707Y-52870D01*
Y-62296D01*
X214320Y-62613D01*
X214268Y-62603D01*
X213647Y-62726D01*
X213283Y-62969D01*
X212920Y-62726D01*
X212299Y-62603D01*
X211679Y-62726D01*
X211315Y-62969D01*
X210951Y-62726D01*
X210331Y-62603D01*
X209710Y-62726D01*
X209347Y-62969D01*
X208983Y-62726D01*
X208473Y-62625D01*
X208310Y-62308D01*
X208276Y-62115D01*
X209876Y-60514D01*
X210591D01*
X211473Y-60148D01*
X212148Y-59473D01*
X212514Y-58591D01*
Y-57636D01*
X212148Y-56754D01*
X211473Y-56079D01*
X210591Y-55714D01*
X209636D01*
X208754Y-56079D01*
X208079Y-56754D01*
X207714Y-57636D01*
Y-58351D01*
X204448Y-61616D01*
X203986Y-61425D01*
Y-57177D01*
X204822Y-56341D01*
X205153Y-55845D01*
X205210Y-55559D01*
X206512D01*
Y-48441D01*
X204769D01*
Y-45500D01*
Y-41893D01*
X210633Y-36029D01*
X215000D01*
X215585Y-35913D01*
X216081Y-35581D01*
X220943Y-30720D01*
X220956Y-30727D01*
X221973Y-31000D01*
X223027D01*
X224044Y-30727D01*
X224956Y-30201D01*
X225701Y-29456D01*
X226227Y-28544D01*
X226500Y-27527D01*
Y-26473D01*
X226227Y-25456D01*
X225701Y-24544D01*
X224956Y-23799D01*
X224044Y-23273D01*
X223027Y-23000D01*
X221973D01*
X220956Y-23273D01*
X220044Y-23799D01*
X219299Y-24544D01*
X218773Y-25456D01*
X218500Y-26473D01*
Y-27527D01*
X218773Y-28544D01*
X218780Y-28557D01*
X216962Y-30375D01*
X216500Y-30184D01*
Y-23000D01*
X208500D01*
Y-28837D01*
X194678Y-42659D01*
X194347Y-43155D01*
X194230Y-43740D01*
Y-48441D01*
X193488D01*
Y-55559D01*
X194482D01*
X194587Y-56085D01*
X194919Y-56581D01*
X195022Y-56685D01*
Y-59791D01*
Y-63760D01*
X194930Y-64224D01*
Y-71311D01*
X195053Y-71932D01*
X195405Y-72458D01*
X195931Y-72809D01*
X196551Y-72933D01*
X196604Y-72922D01*
X196990Y-73239D01*
Y-76520D01*
X197107Y-77105D01*
X197438Y-77601D01*
X200837Y-81000D01*
X194915Y-86922D01*
X194791Y-86906D01*
X194405Y-86725D01*
X194309Y-86242D01*
X194066Y-85878D01*
X194309Y-85514D01*
X194433Y-84894D01*
X194309Y-84273D01*
X194066Y-83909D01*
X194309Y-83546D01*
X194433Y-82925D01*
X194309Y-82305D01*
X194066Y-81941D01*
X194309Y-81577D01*
X194433Y-80957D01*
X194309Y-80336D01*
X194066Y-79972D01*
X194309Y-79609D01*
X194433Y-78988D01*
X194309Y-78368D01*
X194066Y-78004D01*
X194309Y-77640D01*
X194433Y-77020D01*
X194309Y-76399D01*
X194066Y-76035D01*
X194309Y-75672D01*
X194433Y-75051D01*
X194309Y-74431D01*
X193958Y-73904D01*
X193432Y-73553D01*
X192811Y-73430D01*
X185724D01*
X185104Y-73553D01*
X184578Y-73904D01*
X184226Y-74431D01*
X184103Y-75051D01*
X184109Y-75084D01*
X183792Y-75471D01*
X183133D01*
X181581Y-73919D01*
X181085Y-73587D01*
X180500Y-73471D01*
X93500D01*
X92915Y-73587D01*
X92419Y-73919D01*
X69419Y-96919D01*
X69087Y-97415D01*
X68971Y-98000D01*
Y-115635D01*
X68465Y-116140D01*
X68100Y-117023D01*
Y-117977D01*
X68465Y-118860D01*
X69140Y-119535D01*
X70023Y-119900D01*
X70977D01*
X71860Y-119535D01*
X72535Y-118860D01*
X72900Y-117977D01*
Y-117023D01*
X72535Y-116140D01*
X72029Y-115635D01*
Y-98633D01*
X94134Y-76529D01*
X162679D01*
X162886Y-77029D01*
X162651Y-77264D01*
X162319Y-78066D01*
Y-78934D01*
X162651Y-79735D01*
X163265Y-80349D01*
X164066Y-80681D01*
X164518D01*
X166837Y-83000D01*
X163919Y-85919D01*
X163587Y-86415D01*
X163471Y-87000D01*
Y-98500D01*
X163587Y-99085D01*
X163919Y-99581D01*
X164337Y-100000D01*
X163518Y-100819D01*
X163066D01*
X162265Y-101151D01*
X161651Y-101765D01*
X161319Y-102566D01*
Y-103434D01*
X161651Y-104235D01*
X162265Y-104849D01*
X163066Y-105181D01*
X163934D01*
X164735Y-104849D01*
X165349Y-104235D01*
X165681Y-103434D01*
Y-102982D01*
X166133Y-102529D01*
X169441D01*
Y-103532D01*
X173369D01*
X174844Y-105007D01*
X174652Y-105468D01*
X169441D01*
Y-107290D01*
X161466D01*
Y-106612D01*
X160716D01*
Y-104186D01*
X160599Y-103601D01*
X160268Y-103105D01*
X156581Y-99419D01*
X156085Y-99087D01*
X155571Y-98985D01*
Y-94185D01*
X153541D01*
Y-92012D01*
X153425Y-91426D01*
X153093Y-90930D01*
X149081Y-86919D01*
X148585Y-86587D01*
X148000Y-86471D01*
X123000D01*
X122415Y-86587D01*
X121919Y-86919D01*
X106419Y-102419D01*
X106087Y-102915D01*
X105971Y-103500D01*
Y-118012D01*
X104449D01*
Y-119254D01*
X102551D01*
Y-118012D01*
X94449D01*
Y-119254D01*
X92551D01*
Y-118012D01*
X84449D01*
Y-119254D01*
X78216D01*
X77631Y-119370D01*
X77135Y-119702D01*
X65919Y-130919D01*
X65587Y-131415D01*
X65471Y-132000D01*
Y-147135D01*
X64965Y-147641D01*
X64600Y-148523D01*
Y-149477D01*
X64965Y-150359D01*
X65640Y-151035D01*
X66523Y-151400D01*
X67477D01*
X68360Y-151035D01*
X69035Y-150359D01*
X69400Y-149477D01*
Y-148523D01*
X69035Y-147641D01*
X68529Y-147135D01*
Y-132633D01*
X78850Y-122313D01*
X84449D01*
Y-123555D01*
X92551D01*
Y-122313D01*
X94449D01*
Y-123555D01*
X102551D01*
Y-122313D01*
X104449D01*
Y-123555D01*
X112551D01*
Y-118012D01*
X109029D01*
Y-104133D01*
X123634Y-89529D01*
X147366D01*
X150482Y-92645D01*
Y-94185D01*
X148453D01*
Y-98661D01*
X147953Y-98868D01*
X147736Y-98651D01*
X146934Y-98319D01*
X146066D01*
X145264Y-98651D01*
X145047Y-98868D01*
X144547Y-98723D01*
Y-94185D01*
X137429D01*
Y-106815D01*
X139459D01*
Y-115185D01*
X137429D01*
Y-127815D01*
X139459D01*
Y-139866D01*
X124355Y-154971D01*
X122571D01*
Y-152547D01*
X104529D01*
X104035Y-152547D01*
X104029Y-152050D01*
Y-149134D01*
X109581Y-143581D01*
X109913Y-143085D01*
X110029Y-142500D01*
Y-141204D01*
X110491Y-141013D01*
X112060Y-142581D01*
X112557Y-142913D01*
X113142Y-143029D01*
X118635D01*
X119141Y-143535D01*
X120023Y-143900D01*
X120977D01*
X121860Y-143535D01*
X122535Y-142859D01*
X122900Y-141977D01*
Y-141023D01*
X122535Y-140140D01*
X121860Y-139465D01*
X120977Y-139100D01*
X120023D01*
X119141Y-139465D01*
X118635Y-139971D01*
X113775D01*
X110029Y-136225D01*
Y-133988D01*
X112551D01*
Y-128445D01*
X104449D01*
Y-133988D01*
X106971D01*
Y-136858D01*
Y-141867D01*
X101419Y-147419D01*
X101087Y-147915D01*
X100971Y-148500D01*
Y-164500D01*
X101087Y-165085D01*
X101419Y-165581D01*
X103919Y-168081D01*
X104035Y-168159D01*
Y-170453D01*
X122571D01*
Y-162547D01*
X104035D01*
X104029Y-162050D01*
Y-160950D01*
X104035Y-160453D01*
X104529Y-160453D01*
X122571D01*
Y-158029D01*
X124988D01*
X125574Y-157913D01*
X126070Y-157581D01*
X138997Y-144654D01*
X139459Y-144846D01*
Y-193378D01*
X84491Y-248346D01*
X84029Y-248154D01*
Y-209500D01*
X83913Y-208915D01*
X83581Y-208419D01*
X75029Y-199866D01*
Y-177634D01*
X78770Y-173892D01*
X79232Y-174084D01*
Y-175453D01*
X96971D01*
Y-177547D01*
X79232D01*
Y-185453D01*
X85971D01*
Y-194000D01*
X86087Y-194585D01*
X86419Y-195081D01*
X92419Y-201081D01*
X92915Y-201413D01*
X93500Y-201529D01*
X96635D01*
X97141Y-202035D01*
X98023Y-202400D01*
X98977D01*
X99859Y-202035D01*
X100535Y-201360D01*
X100900Y-200477D01*
Y-199523D01*
X100535Y-198641D01*
X99859Y-197965D01*
X98977Y-197600D01*
X98023D01*
X97141Y-197965D01*
X96635Y-198471D01*
X94134D01*
X89029Y-193367D01*
Y-185453D01*
X97768D01*
Y-183029D01*
X98000D01*
X98585Y-182913D01*
X99081Y-182581D01*
X99581Y-182081D01*
X99913Y-181585D01*
X100029Y-181000D01*
Y-133988D01*
X102551D01*
Y-128445D01*
X94449D01*
Y-133988D01*
X96971D01*
Y-157547D01*
X90029D01*
Y-133988D01*
X92551D01*
Y-128445D01*
X84449D01*
Y-129687D01*
X81054D01*
X81035Y-129640D01*
X80360Y-128965D01*
X79477Y-128600D01*
X78523D01*
X77640Y-128965D01*
X76965Y-129640D01*
X76600Y-130523D01*
Y-131477D01*
X76965Y-132360D01*
X77640Y-133035D01*
X78523Y-133400D01*
X79477D01*
X80360Y-133035D01*
X80648Y-132746D01*
X84449D01*
Y-133988D01*
X86971D01*
Y-157547D01*
X79232D01*
Y-165453D01*
X96971D01*
Y-167547D01*
X79232D01*
Y-169971D01*
X79000D01*
X78415Y-170087D01*
X77919Y-170419D01*
X72419Y-175919D01*
X72087Y-176415D01*
X71971Y-177000D01*
Y-200500D01*
X72087Y-201085D01*
X72419Y-201581D01*
X80971Y-210134D01*
Y-251867D01*
X73419Y-259419D01*
X73087Y-259915D01*
X72971Y-260500D01*
Y-292313D01*
X61452D01*
X61310Y-291785D01*
X60608Y-290569D01*
X59616Y-289577D01*
X58400Y-288875D01*
X57044Y-288512D01*
X55641D01*
X54285Y-288875D01*
X53069Y-289577D01*
X52077Y-290569D01*
X51375Y-291785D01*
X51234Y-292313D01*
X41766D01*
X41625Y-291785D01*
X40923Y-290569D01*
X39931Y-289577D01*
X38715Y-288875D01*
X37359Y-288512D01*
X35956D01*
X34600Y-288875D01*
X33384Y-289577D01*
X32392Y-290569D01*
X31690Y-291785D01*
X31372Y-292971D01*
X23633D01*
X21529Y-290866D01*
Y-288256D01*
X22181D01*
Y-284713D01*
Y-280744D01*
X21529D01*
Y-278633D01*
X24476Y-275687D01*
X31549D01*
X31690Y-276215D01*
X32392Y-277431D01*
X33384Y-278423D01*
X34600Y-279125D01*
X35956Y-279488D01*
X37359D01*
X38715Y-279125D01*
X39931Y-278423D01*
X40923Y-277431D01*
X41625Y-276215D01*
X41766Y-275687D01*
X51234D01*
X51375Y-276215D01*
X52077Y-277431D01*
X53069Y-278423D01*
X54285Y-279125D01*
X55641Y-279488D01*
X57044D01*
X58400Y-279125D01*
X59616Y-278423D01*
X60608Y-277431D01*
X61310Y-276215D01*
X61673Y-274859D01*
Y-273456D01*
X61310Y-272100D01*
X60608Y-270884D01*
X59616Y-269892D01*
X58400Y-269190D01*
X58029Y-269091D01*
Y-247564D01*
X58406Y-247463D01*
X59531Y-246813D01*
X60451Y-245894D01*
X61101Y-244768D01*
X61201Y-244392D01*
X72497D01*
X72641Y-244535D01*
X73523Y-244900D01*
X74477D01*
X75359Y-244535D01*
X76035Y-243860D01*
X76400Y-242977D01*
Y-242023D01*
X76035Y-241141D01*
X75359Y-240465D01*
X74477Y-240100D01*
X73523D01*
X72641Y-240465D01*
X71965Y-241141D01*
X71886Y-241333D01*
X61201D01*
X61101Y-240957D01*
X60451Y-239831D01*
X59531Y-238912D01*
X58406Y-238262D01*
X57150Y-237925D01*
X55850D01*
X54594Y-238262D01*
X53469Y-238912D01*
X52549Y-239831D01*
X51899Y-240957D01*
X51563Y-242212D01*
Y-243512D01*
X51899Y-244768D01*
X52549Y-245894D01*
X53469Y-246813D01*
X54594Y-247463D01*
X54971Y-247564D01*
Y-269006D01*
X54285Y-269190D01*
X53069Y-269892D01*
X52077Y-270884D01*
X51375Y-272100D01*
X51234Y-272628D01*
X41766D01*
X41625Y-272100D01*
X40923Y-270884D01*
X39931Y-269892D01*
X38715Y-269190D01*
X37359Y-268827D01*
X35956D01*
X34600Y-269190D01*
X33384Y-269892D01*
X32392Y-270884D01*
X31690Y-272100D01*
X31549Y-272628D01*
X23843D01*
X23257Y-272744D01*
X22761Y-273076D01*
X18919Y-276919D01*
X18587Y-277415D01*
X18471Y-278000D01*
Y-280744D01*
X17819D01*
Y-284713D01*
Y-288256D01*
X18471D01*
Y-291500D01*
X18587Y-292085D01*
X18919Y-292581D01*
X21919Y-295581D01*
X22415Y-295913D01*
X23000Y-296029D01*
X31765D01*
X32392Y-297116D01*
X33384Y-298108D01*
X34600Y-298810D01*
X35956Y-299173D01*
X37359D01*
X38715Y-298810D01*
X39931Y-298108D01*
X40923Y-297116D01*
X41625Y-295900D01*
X41766Y-295372D01*
X51234D01*
X51375Y-295900D01*
X52077Y-297116D01*
X53069Y-298108D01*
X54285Y-298810D01*
X55641Y-299173D01*
X57044D01*
X58400Y-298810D01*
X59616Y-298108D01*
X60608Y-297116D01*
X61310Y-295900D01*
X61452Y-295372D01*
X100299D01*
X100399Y-295748D01*
X101049Y-296874D01*
X101969Y-297793D01*
X103094Y-298443D01*
X104350Y-298780D01*
X105650D01*
X106906Y-298443D01*
X108031Y-297793D01*
X108951Y-296874D01*
X109601Y-295748D01*
X109932Y-294510D01*
X110422Y-294020D01*
X143578D01*
X153852Y-304294D01*
X153817Y-304526D01*
X153293Y-304643D01*
X153216Y-304528D01*
X152638Y-304141D01*
X151955Y-304005D01*
X147455D01*
X146772Y-304141D01*
X146193Y-304528D01*
X145806Y-305107D01*
X145670Y-305789D01*
Y-310289D01*
X145573Y-310408D01*
X142157D01*
Y-308968D01*
X134843D01*
Y-314906D01*
X142157D01*
Y-313466D01*
X146595D01*
X147180Y-313350D01*
X147676Y-313018D01*
X148471Y-312224D01*
X148971Y-312431D01*
Y-318466D01*
X147463D01*
X146780Y-318601D01*
X146201Y-318988D01*
X145814Y-319567D01*
X145678Y-320250D01*
Y-324750D01*
X145814Y-325433D01*
X146201Y-326012D01*
X146780Y-326398D01*
X147463Y-326534D01*
X151963D01*
X152645Y-326398D01*
X153224Y-326012D01*
X153611Y-325433D01*
X153747Y-324750D01*
Y-324029D01*
X181253D01*
Y-324750D01*
X181389Y-325433D01*
X181776Y-326012D01*
X182355Y-326398D01*
X183037Y-326534D01*
X187537D01*
X188220Y-326398D01*
X188799Y-326012D01*
X189186Y-325433D01*
X189322Y-324750D01*
Y-320250D01*
X189186Y-319567D01*
X188799Y-318988D01*
X188220Y-318601D01*
X187537Y-318466D01*
X186037D01*
Y-312074D01*
X187545D01*
X188228Y-311938D01*
X188807Y-311551D01*
X189194Y-310972D01*
X189330Y-310289D01*
Y-305789D01*
X189194Y-305107D01*
X188807Y-304528D01*
X188228Y-304141D01*
X187618Y-304020D01*
X187667Y-303520D01*
X216578D01*
X227260Y-314202D01*
Y-314287D01*
X227379D01*
X227610Y-314442D01*
X228000Y-314520D01*
X236000D01*
X236390Y-314442D01*
X236621Y-314287D01*
X236740D01*
Y-314192D01*
X236942Y-313890D01*
X237020Y-313500D01*
Y-308529D01*
X484500D01*
X485085Y-308413D01*
X485581Y-308081D01*
X513581Y-280081D01*
X513913Y-279585D01*
X514029Y-279000D01*
Y-201500D01*
Y-166000D01*
X513913Y-165415D01*
X513581Y-164919D01*
X479081Y-130419D01*
X478585Y-130087D01*
X478000Y-129971D01*
X390634D01*
X384029Y-123366D01*
Y-118500D01*
X386500D01*
Y-110500D01*
X378500D01*
Y-118500D01*
X380971D01*
Y-124000D01*
X381087Y-124585D01*
X381419Y-125081D01*
X385846Y-129509D01*
X385654Y-129971D01*
X370815D01*
X370230Y-130087D01*
X369734Y-130419D01*
X333189Y-166964D01*
X332715Y-166690D01*
X331359Y-166327D01*
X329956D01*
X328600Y-166690D01*
X327384Y-167392D01*
X326392Y-168384D01*
X325690Y-169600D01*
X325549Y-170128D01*
X317843D01*
X317257Y-170245D01*
X316761Y-170576D01*
X311919Y-175419D01*
X311587Y-175915D01*
X311471Y-176500D01*
Y-178800D01*
X311400D01*
Y-182200D01*
Y-184201D01*
X311471D01*
Y-186500D01*
X311587Y-187085D01*
X311919Y-187581D01*
X316919Y-192581D01*
X317415Y-192913D01*
X318000Y-193029D01*
X325591D01*
X325690Y-193400D01*
X326392Y-194616D01*
X327384Y-195608D01*
X328600Y-196310D01*
X329956Y-196673D01*
X331359D01*
X332715Y-196310D01*
X333931Y-195608D01*
X334923Y-194616D01*
X335625Y-193400D01*
X335766Y-192872D01*
X345234D01*
X345375Y-193400D01*
X346077Y-194616D01*
X347069Y-195608D01*
X348285Y-196310D01*
X348813Y-196451D01*
Y-212142D01*
X345260D01*
Y-214565D01*
X292228D01*
X289654Y-211991D01*
X289846Y-211529D01*
X324635D01*
X325141Y-212035D01*
X326023Y-212400D01*
X326977D01*
X327859Y-212035D01*
X328535Y-211360D01*
X328900Y-210477D01*
Y-209523D01*
X328535Y-208641D01*
X327859Y-207965D01*
X326977Y-207600D01*
X326023D01*
X325141Y-207965D01*
X324635Y-208471D01*
X289633D01*
X251230Y-170067D01*
Y-156704D01*
X251617Y-156387D01*
X251669Y-156397D01*
X251722Y-156387D01*
X252108Y-156704D01*
Y-168638D01*
X252225Y-169223D01*
X252556Y-169719D01*
X285919Y-203081D01*
X286415Y-203413D01*
X287000Y-203529D01*
X287635D01*
X287641Y-203535D01*
X288523Y-203900D01*
X289477D01*
X290359Y-203535D01*
X290455Y-203439D01*
X290585Y-203413D01*
X291081Y-203081D01*
X291413Y-202585D01*
X291529Y-202000D01*
X291413Y-201415D01*
X291400Y-201395D01*
Y-201023D01*
X291035Y-200141D01*
X290359Y-199465D01*
X289477Y-199100D01*
X288523D01*
X287641Y-199465D01*
X287134Y-199971D01*
X255167Y-168004D01*
Y-167483D01*
X255629Y-167292D01*
X271419Y-183081D01*
X271915Y-183413D01*
X272500Y-183529D01*
X294635D01*
X295141Y-184035D01*
X296023Y-184400D01*
X296977D01*
X297860Y-184035D01*
X298535Y-183360D01*
X298900Y-182477D01*
Y-181523D01*
X298535Y-180640D01*
X297860Y-179965D01*
X296977Y-179600D01*
X296023D01*
X295141Y-179965D01*
X294635Y-180471D01*
X273133D01*
X272158Y-179495D01*
X272365Y-178995D01*
X273807D01*
X274336Y-178890D01*
X274783Y-178591D01*
X275083Y-178143D01*
X275188Y-177614D01*
Y-174386D01*
X275083Y-173857D01*
X274864Y-173529D01*
X275013Y-173120D01*
X275085Y-173029D01*
X275867D01*
X276219Y-173382D01*
X276217Y-173409D01*
X275917Y-173857D01*
X275812Y-174386D01*
Y-177614D01*
X275917Y-178143D01*
X276217Y-178591D01*
X276664Y-178890D01*
X277193Y-178995D01*
X279319D01*
X279847Y-178890D01*
X280295Y-178591D01*
X280595Y-178143D01*
X280700Y-177614D01*
Y-174386D01*
X280595Y-173857D01*
X280295Y-173409D01*
X279847Y-173110D01*
X279752Y-173091D01*
X279669Y-172671D01*
X279337Y-172175D01*
X277581Y-170419D01*
X277085Y-170087D01*
X276945Y-170059D01*
X276994Y-169559D01*
X277012D01*
Y-167529D01*
X294367D01*
X305471Y-178633D01*
Y-199635D01*
X304965Y-200141D01*
X304600Y-201023D01*
Y-201977D01*
X304965Y-202859D01*
X305641Y-203535D01*
X306523Y-203900D01*
X307477D01*
X308360Y-203535D01*
X309035Y-202859D01*
X309400Y-201977D01*
Y-201023D01*
X309035Y-200141D01*
X308529Y-199635D01*
Y-178000D01*
X308413Y-177415D01*
X308081Y-176919D01*
X296081Y-164919D01*
X295585Y-164587D01*
X295000Y-164471D01*
X277012D01*
Y-162441D01*
X274604D01*
X267581Y-155419D01*
X267085Y-155087D01*
X267011Y-155072D01*
X267071Y-154776D01*
Y-147689D01*
X266947Y-147068D01*
X266596Y-146542D01*
X266069Y-146191D01*
X265449Y-146067D01*
X265416Y-146074D01*
X265029Y-145757D01*
Y-144500D01*
X264913Y-143915D01*
X264581Y-143419D01*
X262529Y-141367D01*
Y-139418D01*
X267070Y-134878D01*
X267612Y-134989D01*
X267768Y-135339D01*
X267691Y-135454D01*
X267567Y-136075D01*
X267691Y-136695D01*
X267934Y-137059D01*
X267691Y-137423D01*
X267567Y-138043D01*
X267691Y-138664D01*
X267934Y-139028D01*
X267691Y-139391D01*
X267567Y-140012D01*
X267691Y-140632D01*
X267934Y-140996D01*
X267691Y-141360D01*
X267567Y-141980D01*
X267691Y-142601D01*
X267934Y-142965D01*
X267691Y-143328D01*
X267567Y-143949D01*
X267691Y-144569D01*
X268042Y-145096D01*
X268568Y-145447D01*
X269189Y-145571D01*
X276276D01*
X276896Y-145447D01*
X277422Y-145096D01*
X277774Y-144569D01*
X277897Y-143949D01*
X277887Y-143896D01*
X278204Y-143510D01*
X351811D01*
X352396Y-143393D01*
X352892Y-143062D01*
X373581Y-122373D01*
X373913Y-121877D01*
X374029Y-121291D01*
Y-118231D01*
X374044Y-118227D01*
X374956Y-117701D01*
X375701Y-116956D01*
X376227Y-116044D01*
X376500Y-115027D01*
Y-113973D01*
X376227Y-112956D01*
X375701Y-112044D01*
X374956Y-111299D01*
X374044Y-110773D01*
X373027Y-110500D01*
X371973D01*
X370956Y-110773D01*
X370044Y-111299D01*
X369299Y-112044D01*
X368773Y-112956D01*
X368500Y-113973D01*
Y-115027D01*
X368773Y-116044D01*
X369299Y-116956D01*
X370044Y-117701D01*
X370956Y-118227D01*
X370971Y-118231D01*
Y-120658D01*
X351178Y-140451D01*
X339365D01*
X339174Y-139989D01*
X360943Y-118220D01*
X360956Y-118227D01*
X361973Y-118500D01*
X363027D01*
X364044Y-118227D01*
X364956Y-117701D01*
X365701Y-116956D01*
X366227Y-116044D01*
X366500Y-115027D01*
Y-113973D01*
X366227Y-112956D01*
X365701Y-112044D01*
X364956Y-111299D01*
X364044Y-110773D01*
X363027Y-110500D01*
X361973D01*
X360956Y-110773D01*
X360044Y-111299D01*
X359299Y-112044D01*
X358773Y-112956D01*
X358500Y-113973D01*
Y-115027D01*
X358773Y-116044D01*
X358780Y-116057D01*
X336355Y-138482D01*
X278204D01*
X277887Y-138096D01*
X277897Y-138043D01*
X277774Y-137423D01*
X277531Y-137059D01*
X277774Y-136695D01*
X277897Y-136075D01*
X277774Y-135454D01*
X277531Y-135090D01*
X277774Y-134727D01*
X277831Y-134441D01*
X278373Y-134276D01*
X279919Y-135822D01*
X280415Y-136153D01*
X281000Y-136270D01*
X285441D01*
Y-137512D01*
X292559D01*
Y-131968D01*
X285441D01*
Y-133211D01*
X281633D01*
X279776Y-131354D01*
X279753Y-130670D01*
X281633Y-128789D01*
X285441D01*
Y-130032D01*
X292559D01*
Y-124488D01*
X285441D01*
Y-125731D01*
X281000D01*
X280415Y-125847D01*
X279919Y-126178D01*
X278272Y-127825D01*
X277794Y-127680D01*
X277774Y-127580D01*
X277531Y-127216D01*
X277774Y-126853D01*
X277897Y-126232D01*
X277774Y-125612D01*
X277531Y-125248D01*
X277774Y-124884D01*
X277897Y-124264D01*
X277774Y-123643D01*
X277531Y-123280D01*
X277774Y-122916D01*
X277897Y-122295D01*
X277774Y-121675D01*
X277531Y-121311D01*
X277774Y-120947D01*
X277897Y-120327D01*
X277774Y-119706D01*
X277531Y-119343D01*
X277774Y-118979D01*
X277897Y-118358D01*
X277774Y-117738D01*
X277531Y-117374D01*
X277774Y-117010D01*
X277897Y-116390D01*
X277774Y-115769D01*
X277531Y-115405D01*
X277774Y-115042D01*
X277897Y-114421D01*
X277887Y-114369D01*
X278204Y-113982D01*
X282319D01*
X285304Y-116967D01*
X285801Y-117299D01*
X286386Y-117415D01*
X293350D01*
Y-121807D01*
X301650D01*
Y-109965D01*
X293350D01*
Y-114356D01*
X287019D01*
X284034Y-111371D01*
X283538Y-111040D01*
X282953Y-110923D01*
X282893D01*
X282701Y-110461D01*
X285633Y-107529D01*
X293000D01*
X293350Y-107817D01*
Y-108031D01*
X301650D01*
Y-96189D01*
X293350D01*
Y-100471D01*
X283000D01*
X282415Y-100587D01*
X281919Y-100919D01*
X278382Y-104455D01*
X277840Y-104290D01*
X277774Y-103958D01*
X277531Y-103595D01*
X277774Y-103231D01*
X277897Y-102610D01*
X277774Y-101990D01*
X277531Y-101626D01*
X277774Y-101262D01*
X277897Y-100642D01*
X277774Y-100021D01*
X277531Y-99657D01*
X277774Y-99294D01*
X277897Y-98673D01*
X277774Y-98053D01*
X277531Y-97689D01*
X277774Y-97325D01*
X277897Y-96705D01*
X277774Y-96084D01*
X277531Y-95720D01*
X277774Y-95357D01*
X277897Y-94736D01*
X277774Y-94116D01*
X277531Y-93752D01*
X277774Y-93388D01*
X277897Y-92768D01*
X277774Y-92147D01*
X277531Y-91783D01*
X277774Y-91420D01*
X277897Y-90799D01*
X277774Y-90179D01*
X277674Y-90030D01*
X277846Y-89643D01*
X278367Y-89530D01*
X278600Y-89763D01*
Y-90477D01*
X278965Y-91360D01*
X279641Y-92035D01*
X280523Y-92400D01*
X281477D01*
X282360Y-92035D01*
X283035Y-91360D01*
X283400Y-90477D01*
Y-89523D01*
X283221Y-89091D01*
X283645Y-88808D01*
X288419Y-93581D01*
X288915Y-93913D01*
X289500Y-94029D01*
X294635D01*
X295141Y-94535D01*
X296023Y-94900D01*
X296977D01*
X297860Y-94535D01*
X298365Y-94029D01*
X301895D01*
X301909Y-94051D01*
X302357Y-94351D01*
X302886Y-94456D01*
X306114D01*
X306643Y-94351D01*
X307091Y-94051D01*
X307390Y-93603D01*
X307495Y-93075D01*
Y-90949D01*
X307390Y-90420D01*
X307091Y-89972D01*
X306643Y-89673D01*
X306114Y-89568D01*
X302886D01*
X302357Y-89673D01*
X301909Y-89972D01*
X301610Y-90420D01*
X301505Y-90949D01*
Y-90971D01*
X298365D01*
X297860Y-90465D01*
X296977Y-90100D01*
X296023D01*
X295141Y-90465D01*
X294635Y-90971D01*
X290134D01*
X287144Y-87982D01*
X287336Y-87520D01*
X292657D01*
Y-85982D01*
X301505D01*
Y-87563D01*
X301610Y-88091D01*
X301909Y-88539D01*
X302357Y-88839D01*
X302886Y-88944D01*
X306114D01*
X306643Y-88839D01*
X307091Y-88539D01*
X307390Y-88091D01*
X307495Y-87563D01*
Y-85437D01*
X307390Y-84909D01*
X307091Y-84461D01*
X306643Y-84161D01*
X306114Y-84056D01*
X304219D01*
X303534Y-83371D01*
X303038Y-83040D01*
X302453Y-82923D01*
X292657D01*
Y-76910D01*
X304882D01*
X305468Y-76793D01*
X305964Y-76462D01*
X307396Y-75029D01*
X335866D01*
X337419Y-76581D01*
X337915Y-76913D01*
X338500Y-77029D01*
X340160D01*
X340352Y-77491D01*
X340299Y-77544D01*
X339773Y-78456D01*
X339500Y-79473D01*
Y-80527D01*
X339773Y-81544D01*
X340299Y-82456D01*
X341044Y-83201D01*
X341956Y-83727D01*
X341971Y-83731D01*
Y-86866D01*
X330237Y-98600D01*
X329523D01*
X328641Y-98965D01*
X327965Y-99641D01*
X327600Y-100523D01*
Y-101477D01*
X327965Y-102359D01*
X328641Y-103035D01*
X329523Y-103400D01*
X330477D01*
X331360Y-103035D01*
X332035Y-102359D01*
X332400Y-101477D01*
Y-100763D01*
X344581Y-88581D01*
X344913Y-88085D01*
X345029Y-87500D01*
Y-83731D01*
X345044Y-83727D01*
X345956Y-83201D01*
X346701Y-82456D01*
X347227Y-81544D01*
X347500Y-80527D01*
Y-79473D01*
X347227Y-78456D01*
X346701Y-77544D01*
X346648Y-77491D01*
X346839Y-77029D01*
X350161D01*
X350352Y-77491D01*
X350299Y-77544D01*
X349773Y-78456D01*
X349500Y-79473D01*
Y-80527D01*
X349773Y-81544D01*
X350299Y-82456D01*
X351044Y-83201D01*
X351956Y-83727D01*
X352973Y-84000D01*
X354027D01*
X355044Y-83727D01*
X355956Y-83201D01*
X356701Y-82456D01*
X357227Y-81544D01*
X357500Y-80527D01*
Y-79473D01*
X357227Y-78456D01*
X356701Y-77544D01*
X356648Y-77491D01*
X356839Y-77029D01*
X360160D01*
X360352Y-77491D01*
X360299Y-77544D01*
X359773Y-78456D01*
X359500Y-79473D01*
Y-80527D01*
X359773Y-81544D01*
X360299Y-82456D01*
X361044Y-83201D01*
X361956Y-83727D01*
X361971Y-83731D01*
Y-87135D01*
X361465Y-87641D01*
X361100Y-88523D01*
Y-89477D01*
X361465Y-90359D01*
X362140Y-91035D01*
X362535Y-91198D01*
X369419Y-98081D01*
X369915Y-98413D01*
X370500Y-98529D01*
X396367D01*
X397152Y-99315D01*
X397441Y-99677D01*
X397441D01*
X397441Y-99677D01*
Y-105220D01*
X404559D01*
Y-99677D01*
X401840D01*
X398081Y-95919D01*
X397585Y-95587D01*
X397000Y-95471D01*
X371133D01*
X365677Y-90015D01*
X365900Y-89477D01*
Y-88523D01*
X365535Y-87641D01*
X365029Y-87135D01*
Y-83731D01*
X365044Y-83727D01*
X365956Y-83201D01*
X366701Y-82456D01*
X367227Y-81544D01*
X367500Y-80527D01*
Y-79473D01*
X367227Y-78456D01*
X366701Y-77544D01*
X366648Y-77491D01*
X366840Y-77029D01*
X368367D01*
X369780Y-78443D01*
X369773Y-78456D01*
X369500Y-79473D01*
Y-80527D01*
X369773Y-81544D01*
X370299Y-82456D01*
X371044Y-83201D01*
X371956Y-83727D01*
X371971Y-83731D01*
Y-85500D01*
X372087Y-86085D01*
X372419Y-86581D01*
X377419Y-91581D01*
X377915Y-91913D01*
X378500Y-92029D01*
X408867D01*
X413644Y-96807D01*
X413437Y-97307D01*
X411449D01*
Y-105409D01*
Y-107022D01*
X404559D01*
Y-105780D01*
X397441D01*
Y-111323D01*
X404559D01*
Y-110081D01*
X411449D01*
Y-112693D01*
X419551D01*
Y-110081D01*
X427441D01*
Y-111323D01*
X429471D01*
Y-112000D01*
X429587Y-112585D01*
X429919Y-113081D01*
X432419Y-115581D01*
X432915Y-115913D01*
X433500Y-116029D01*
X443500D01*
X444085Y-115913D01*
X444581Y-115581D01*
X450763Y-109400D01*
X451477D01*
X452359Y-109035D01*
X453035Y-108360D01*
X453400Y-107477D01*
Y-106523D01*
X453035Y-105640D01*
X452529Y-105135D01*
Y-92000D01*
X452413Y-91415D01*
X452081Y-90919D01*
X430081Y-68919D01*
X429585Y-68587D01*
X429000Y-68471D01*
X387231D01*
X387227Y-68456D01*
X386701Y-67544D01*
X385956Y-66799D01*
X385044Y-66273D01*
X384027Y-66000D01*
X382973D01*
X381956Y-66273D01*
X381044Y-66799D01*
X380299Y-67544D01*
X379773Y-68456D01*
X379500Y-69473D01*
Y-70527D01*
X379773Y-71544D01*
X380299Y-72456D01*
X381044Y-73201D01*
X381956Y-73727D01*
X382973Y-74000D01*
X384027D01*
X385044Y-73727D01*
X385956Y-73201D01*
X386701Y-72456D01*
X387227Y-71544D01*
X387231Y-71529D01*
X428367D01*
X449471Y-92633D01*
Y-105135D01*
X448965Y-105640D01*
X448600Y-106523D01*
Y-107237D01*
X442867Y-112971D01*
X434133D01*
X432986Y-111823D01*
X433193Y-111323D01*
X434559D01*
Y-105780D01*
X427441D01*
Y-107022D01*
X419551D01*
Y-105409D01*
Y-97307D01*
X417029D01*
Y-96500D01*
X416913Y-95915D01*
X416581Y-95419D01*
X410581Y-89419D01*
X410085Y-89087D01*
X409500Y-88971D01*
X379134D01*
X375029Y-84866D01*
Y-83731D01*
X375044Y-83727D01*
X375956Y-83201D01*
X376701Y-82456D01*
X377227Y-81544D01*
X377500Y-80527D01*
Y-79473D01*
X377227Y-78456D01*
X376701Y-77544D01*
X375956Y-76799D01*
X375044Y-76273D01*
X374027Y-76000D01*
X372973D01*
X371956Y-76273D01*
X371943Y-76280D01*
X370081Y-74419D01*
X369585Y-74087D01*
X369000Y-73971D01*
X365623D01*
X365489Y-73471D01*
X365956Y-73201D01*
X366701Y-72456D01*
X367227Y-71544D01*
X367231Y-71529D01*
X369769D01*
X369773Y-71544D01*
X370299Y-72456D01*
X371044Y-73201D01*
X371956Y-73727D01*
X372973Y-74000D01*
X374027D01*
X375044Y-73727D01*
X375956Y-73201D01*
X376701Y-72456D01*
X377227Y-71544D01*
X377500Y-70527D01*
Y-69473D01*
X377227Y-68456D01*
X376701Y-67544D01*
X375956Y-66799D01*
X375044Y-66273D01*
X374027Y-66000D01*
X372973D01*
X371956Y-66273D01*
X371044Y-66799D01*
X370299Y-67544D01*
X369773Y-68456D01*
X369769Y-68471D01*
X367231D01*
X367227Y-68456D01*
X366701Y-67544D01*
X365956Y-66799D01*
X365044Y-66273D01*
X364027Y-66000D01*
X363163D01*
X360081Y-62919D01*
X359585Y-62587D01*
X359000Y-62471D01*
X349500D01*
X348915Y-62587D01*
X348419Y-62919D01*
X345057Y-66280D01*
X345044Y-66273D01*
X344027Y-66000D01*
X342973D01*
X342334Y-66171D01*
X339900Y-63737D01*
Y-63023D01*
X339535Y-62141D01*
X338860Y-61465D01*
X337977Y-61100D01*
X337023D01*
X336140Y-61465D01*
X335465Y-62141D01*
X335100Y-63023D01*
Y-63977D01*
X335465Y-64859D01*
X336140Y-65535D01*
X337023Y-65900D01*
X337737D01*
X339963Y-68126D01*
X339773Y-68456D01*
X339500Y-69473D01*
Y-70527D01*
X339773Y-71544D01*
X340299Y-72456D01*
X341044Y-73201D01*
X341511Y-73471D01*
X341377Y-73971D01*
X339134D01*
X337581Y-72419D01*
X337085Y-72087D01*
X336500Y-71971D01*
X308846D01*
X308654Y-71509D01*
X309263Y-70900D01*
X309977D01*
X310859Y-70535D01*
X311535Y-69859D01*
X311900Y-68977D01*
Y-68023D01*
X311535Y-67141D01*
X310859Y-66465D01*
X309977Y-66100D01*
X309263D01*
X298529Y-55366D01*
Y-47823D01*
X300559D01*
Y-42279D01*
X293441D01*
Y-47823D01*
X295471D01*
Y-56000D01*
X295587Y-56585D01*
X295919Y-57081D01*
X307100Y-68263D01*
Y-68737D01*
X303586Y-72251D01*
X285224D01*
X284639Y-72367D01*
X284143Y-72699D01*
X283320Y-73522D01*
X276740D01*
X276276Y-73430D01*
X269189D01*
X268568Y-73553D01*
X268042Y-73904D01*
X267691Y-74431D01*
X267567Y-75051D01*
X267691Y-75672D01*
X267934Y-76035D01*
X267691Y-76399D01*
X267567Y-77020D01*
X267691Y-77640D01*
X267934Y-78004D01*
X267691Y-78368D01*
X267567Y-78988D01*
X267578Y-79041D01*
X267261Y-79427D01*
X266043D01*
X265458Y-79544D01*
X264962Y-79875D01*
X260367Y-84471D01*
X254134D01*
X247293Y-77630D01*
Y-75609D01*
X247755Y-75418D01*
X249819Y-77482D01*
Y-77934D01*
X250151Y-78736D01*
X250764Y-79349D01*
X251566Y-79681D01*
X252434D01*
X253236Y-79349D01*
X253849Y-78736D01*
X254181Y-77934D01*
Y-77066D01*
X253849Y-76265D01*
X253236Y-75651D01*
X252434Y-75319D01*
X251982D01*
X250038Y-73375D01*
X250203Y-72833D01*
X250321Y-72809D01*
X250685Y-72566D01*
X251049Y-72809D01*
X251669Y-72933D01*
X252290Y-72809D01*
X252654Y-72566D01*
X253017Y-72809D01*
X253638Y-72933D01*
X254258Y-72809D01*
X254622Y-72566D01*
X254986Y-72809D01*
X255606Y-72933D01*
X256227Y-72809D01*
X256591Y-72566D01*
X256954Y-72809D01*
X257575Y-72933D01*
X258195Y-72809D01*
X258559Y-72566D01*
X258923Y-72809D01*
X259543Y-72933D01*
X260164Y-72809D01*
X260528Y-72566D01*
X260891Y-72809D01*
X261512Y-72933D01*
X262132Y-72809D01*
X262496Y-72566D01*
X262860Y-72809D01*
X263480Y-72933D01*
X264101Y-72809D01*
X264465Y-72566D01*
X264828Y-72809D01*
X265449Y-72933D01*
X266069Y-72809D01*
X266596Y-72458D01*
X266947Y-71932D01*
X267071Y-71311D01*
Y-64224D01*
X266947Y-63604D01*
X266596Y-63078D01*
X266069Y-62726D01*
X265449Y-62603D01*
X264828Y-62726D01*
X264465Y-62969D01*
X264101Y-62726D01*
X263480Y-62603D01*
X262860Y-62726D01*
X262496Y-62969D01*
X262132Y-62726D01*
X261512Y-62603D01*
X260891Y-62726D01*
X260528Y-62969D01*
X260164Y-62726D01*
X259543Y-62603D01*
X258923Y-62726D01*
X258559Y-62969D01*
X258195Y-62726D01*
X257575Y-62603D01*
X256954Y-62726D01*
X256591Y-62969D01*
X256227Y-62726D01*
X255606Y-62603D01*
X254986Y-62726D01*
X254622Y-62969D01*
X254258Y-62726D01*
X253638Y-62603D01*
X253017Y-62726D01*
X252654Y-62969D01*
X252290Y-62726D01*
X251669Y-62603D01*
X251049Y-62726D01*
X250685Y-62969D01*
X250321Y-62726D01*
X249701Y-62603D01*
X249648Y-62613D01*
X249262Y-62296D01*
Y-61641D01*
X251822Y-59081D01*
X252153Y-58585D01*
X252270Y-58000D01*
Y-56059D01*
X253512D01*
Y-54029D01*
X257480D01*
Y-55468D01*
X258471D01*
Y-56500D01*
X258587Y-57085D01*
X258919Y-57581D01*
X260919Y-59581D01*
X261415Y-59913D01*
X262000Y-60029D01*
X273500D01*
X274085Y-59913D01*
X274581Y-59581D01*
X277247Y-56916D01*
X277578Y-56420D01*
X277695Y-55835D01*
Y-54029D01*
X288635D01*
X289141Y-54535D01*
X290023Y-54900D01*
X290977D01*
X291860Y-54535D01*
X292535Y-53860D01*
X292900Y-52977D01*
Y-52023D01*
X292535Y-51140D01*
X291860Y-50465D01*
X290977Y-50100D01*
X290023D01*
X289141Y-50465D01*
X288635Y-50971D01*
X277658D01*
Y-50811D01*
X275529D01*
Y-48134D01*
X283185Y-40478D01*
X293441D01*
Y-41721D01*
X300559D01*
Y-36177D01*
X293441D01*
Y-37419D01*
X282551D01*
X281966Y-37536D01*
X281470Y-37867D01*
X272919Y-46419D01*
X272587Y-46915D01*
X272471Y-47500D01*
Y-50971D01*
X269520D01*
Y-49531D01*
X267982D01*
Y-47953D01*
X267866Y-47368D01*
X267534Y-46871D01*
X264581Y-43919D01*
X264085Y-43587D01*
X263500Y-43471D01*
X246500D01*
X245915Y-43587D01*
X245419Y-43919D01*
X242419Y-46919D01*
X242087Y-47415D01*
X241971Y-48000D01*
Y-48941D01*
X240488D01*
Y-56059D01*
X241730D01*
Y-58000D01*
X241847Y-58585D01*
X242178Y-59081D01*
X244234Y-61137D01*
Y-62296D01*
X243848Y-62613D01*
X243795Y-62603D01*
X243175Y-62726D01*
X242811Y-62969D01*
X242447Y-62726D01*
X241827Y-62603D01*
X241206Y-62726D01*
X240843Y-62969D01*
X240479Y-62726D01*
X239858Y-62603D01*
X239238Y-62726D01*
X238874Y-62969D01*
X238510Y-62726D01*
X237890Y-62603D01*
X237269Y-62726D01*
X236906Y-62969D01*
X236542Y-62726D01*
X235921Y-62603D01*
X235301Y-62726D01*
X234937Y-62969D01*
X234573Y-62726D01*
X234215Y-62655D01*
X234050Y-62112D01*
X234822Y-61341D01*
X235153Y-60845D01*
X235269Y-60260D01*
Y-56059D01*
X237012D01*
Y-48941D01*
X231469D01*
Y-56059D01*
X232211D01*
Y-59626D01*
X230833Y-61005D01*
X229315D01*
X228730Y-61121D01*
X228289Y-61415D01*
X227908Y-61317D01*
X227789Y-61268D01*
Y-56059D01*
X229532D01*
Y-48941D01*
X223988D01*
Y-56059D01*
X224730D01*
Y-62332D01*
X224344Y-62649D01*
X224110Y-62603D01*
X223490Y-62726D01*
X223126Y-62969D01*
X222762Y-62726D01*
X222142Y-62603D01*
X221521Y-62726D01*
X221158Y-62969D01*
X220794Y-62726D01*
X220173Y-62603D01*
X220121Y-62613D01*
X219734Y-62296D01*
Y-45660D01*
X220035Y-45360D01*
X220400Y-44477D01*
Y-43523D01*
X220324Y-43339D01*
X232663Y-31000D01*
X233027D01*
X234044Y-30727D01*
X234956Y-30201D01*
X235701Y-29456D01*
X236227Y-28544D01*
X236500Y-27527D01*
Y-26473D01*
X236227Y-25456D01*
X235701Y-24544D01*
X234956Y-23799D01*
X234044Y-23273D01*
X233027Y-23000D01*
D02*
G37*
G36*
X243027D02*
X241973D01*
X240956Y-23273D01*
X240044Y-23799D01*
X239299Y-24544D01*
X238773Y-25456D01*
X238500Y-26473D01*
Y-27527D01*
X238773Y-28544D01*
X239299Y-29456D01*
X240044Y-30201D01*
X240064Y-30212D01*
X240129Y-30708D01*
X239237Y-31600D01*
X238523D01*
X237641Y-31965D01*
X236965Y-32640D01*
X236600Y-33523D01*
Y-34477D01*
X236965Y-35359D01*
X237641Y-36035D01*
X238523Y-36400D01*
X239477D01*
X240359Y-36035D01*
X241035Y-35359D01*
X241400Y-34477D01*
Y-33763D01*
X243581Y-31581D01*
X243913Y-31085D01*
X243981Y-30744D01*
X244044Y-30727D01*
X244956Y-30201D01*
X245701Y-29456D01*
X246227Y-28544D01*
X246500Y-27527D01*
Y-26473D01*
X246227Y-25456D01*
X245701Y-24544D01*
X244956Y-23799D01*
X244044Y-23273D01*
X243027Y-23000D01*
D02*
G37*
G36*
X384027Y-76000D02*
X382973D01*
X381956Y-76273D01*
X381044Y-76799D01*
X380299Y-77544D01*
X379773Y-78456D01*
X379500Y-79473D01*
Y-80527D01*
X379773Y-81544D01*
X380299Y-82456D01*
X381044Y-83201D01*
X381956Y-83727D01*
X382973Y-84000D01*
X384027D01*
X385044Y-83727D01*
X385956Y-83201D01*
X386701Y-82456D01*
X387227Y-81544D01*
X387231Y-81529D01*
X390367D01*
X395919Y-87081D01*
X396415Y-87413D01*
X397000Y-87529D01*
X422367D01*
X429471Y-94634D01*
Y-99677D01*
X427441D01*
Y-105220D01*
X434559D01*
Y-99677D01*
X432529D01*
Y-94000D01*
X432413Y-93415D01*
X432081Y-92919D01*
X424081Y-84919D01*
X423585Y-84587D01*
X423000Y-84471D01*
X397634D01*
X392081Y-78919D01*
X391585Y-78587D01*
X391000Y-78471D01*
X387231D01*
X387227Y-78456D01*
X386701Y-77544D01*
X385956Y-76799D01*
X385044Y-76273D01*
X384027Y-76000D01*
D02*
G37*
G36*
X122571Y-172547D02*
X104035D01*
Y-180453D01*
X111774D01*
Y-184563D01*
X109737Y-186600D01*
X109023D01*
X108141Y-186965D01*
X107465Y-187641D01*
X107100Y-188523D01*
Y-189477D01*
X107465Y-190359D01*
X108141Y-191035D01*
X109023Y-191400D01*
X109977D01*
X110860Y-191035D01*
X111535Y-190359D01*
X111900Y-189477D01*
Y-188763D01*
X114385Y-186278D01*
X114716Y-185782D01*
X114832Y-185197D01*
Y-180453D01*
X122571D01*
Y-172547D01*
D02*
G37*
G36*
X57150Y-216272D02*
X55850D01*
X54594Y-216608D01*
X53469Y-217258D01*
X52549Y-218177D01*
X51899Y-219303D01*
X51563Y-220559D01*
Y-221859D01*
X51899Y-223114D01*
X52549Y-224240D01*
X53469Y-225159D01*
X54594Y-225809D01*
X55850Y-226146D01*
X57150D01*
X58406Y-225809D01*
X59531Y-225159D01*
X60451Y-224240D01*
X61101Y-223114D01*
X61201Y-222738D01*
X71738D01*
X72385Y-223385D01*
X73267Y-223750D01*
X74222D01*
X75104Y-223385D01*
X75779Y-222710D01*
X76144Y-221828D01*
Y-220873D01*
X75779Y-219991D01*
X75104Y-219316D01*
X74222Y-218951D01*
X73267D01*
X72385Y-219316D01*
X72022Y-219679D01*
X61201D01*
X61101Y-219303D01*
X60451Y-218177D01*
X59531Y-217258D01*
X58406Y-216608D01*
X57150Y-216272D01*
D02*
G37*
G36*
X146434Y-298819D02*
X145566D01*
X144764Y-299151D01*
X144445Y-299471D01*
X141465D01*
X140879Y-299587D01*
X140383Y-299919D01*
X139306Y-300996D01*
X134843D01*
Y-306933D01*
X142157D01*
Y-302529D01*
X144445D01*
X144764Y-302849D01*
X145566Y-303181D01*
X146434D01*
X147236Y-302849D01*
X147849Y-302236D01*
X148181Y-301434D01*
Y-300566D01*
X147849Y-299764D01*
X147236Y-299151D01*
X146434Y-298819D01*
D02*
G37*
G36*
X517806Y-313221D02*
X516446D01*
X515112Y-313486D01*
X513855Y-314006D01*
X512724Y-314762D01*
X511762Y-315724D01*
X511006Y-316855D01*
X510486Y-318112D01*
X510220Y-319446D01*
Y-320806D01*
X510486Y-322140D01*
X511006Y-323397D01*
X511762Y-324528D01*
X512724Y-325490D01*
X513855Y-326246D01*
X515112Y-326766D01*
X516446Y-327031D01*
X517806D01*
X519140Y-326766D01*
X520397Y-326246D01*
X521528Y-325490D01*
X522490Y-324528D01*
X523246Y-323397D01*
X523766Y-322140D01*
X524031Y-320806D01*
Y-319446D01*
X523766Y-318112D01*
X523246Y-316855D01*
X522490Y-315724D01*
X521528Y-314762D01*
X520397Y-314006D01*
X519140Y-313486D01*
X517806Y-313221D01*
D02*
G37*
%LPD*%
G36*
X264923Y-48586D02*
Y-49531D01*
X257480D01*
Y-50971D01*
X253512D01*
Y-48941D01*
X247969D01*
Y-56059D01*
X249211D01*
Y-57367D01*
X247289Y-59288D01*
X246699Y-59276D01*
X244789Y-57367D01*
Y-56059D01*
X246031D01*
Y-48941D01*
X245429D01*
X245222Y-48441D01*
X247133Y-46529D01*
X262866D01*
X264923Y-48586D01*
D02*
G37*
G36*
X198265Y-47349D02*
X199066Y-47681D01*
X199934D01*
X200735Y-47349D01*
X201055Y-47029D01*
X201711D01*
Y-48441D01*
X200969D01*
Y-55559D01*
X200969Y-55559D01*
X201024Y-56059D01*
X200927Y-56543D01*
Y-59150D01*
X199500Y-60577D01*
X198081Y-59158D01*
Y-56051D01*
X198060Y-55946D01*
X198377Y-55559D01*
X199031D01*
Y-48441D01*
X197289D01*
Y-47069D01*
X197789Y-46874D01*
X198265Y-47349D01*
D02*
G37*
G36*
X241206Y-72809D02*
X241827Y-72933D01*
X242447Y-72809D01*
X242811Y-72566D01*
X243175Y-72809D01*
X243795Y-72933D01*
X243848Y-72922D01*
X244234Y-73239D01*
Y-77630D01*
X242394Y-79471D01*
X236767D01*
X236459Y-78971D01*
X236681Y-78434D01*
Y-77566D01*
X236349Y-76765D01*
X235736Y-76151D01*
X234934Y-75819D01*
X234066D01*
X233264Y-76151D01*
X233039Y-76376D01*
X230079Y-73416D01*
X230255Y-72885D01*
X230636Y-72809D01*
X231000Y-72566D01*
X231364Y-72809D01*
X231984Y-72933D01*
X232605Y-72809D01*
X232968Y-72566D01*
X233332Y-72809D01*
X233953Y-72933D01*
X234573Y-72809D01*
X234937Y-72566D01*
X235301Y-72809D01*
X235921Y-72933D01*
X236542Y-72809D01*
X236906Y-72566D01*
X237269Y-72809D01*
X237890Y-72933D01*
X238510Y-72809D01*
X238874Y-72566D01*
X239238Y-72809D01*
X239858Y-72933D01*
X240479Y-72809D01*
X240843Y-72566D01*
X241206Y-72809D01*
D02*
G37*
G36*
X360340Y-67503D02*
X360299Y-67544D01*
X359773Y-68456D01*
X359500Y-69473D01*
Y-70527D01*
X359773Y-71544D01*
X360299Y-72456D01*
X361044Y-73201D01*
X361511Y-73471D01*
X361377Y-73971D01*
X355623D01*
X355489Y-73471D01*
X355956Y-73201D01*
X356701Y-72456D01*
X357227Y-71544D01*
X357500Y-70527D01*
Y-69473D01*
X357227Y-68456D01*
X356701Y-67544D01*
X355956Y-66799D01*
X355044Y-66273D01*
X354136Y-66029D01*
X354202Y-65529D01*
X358366D01*
X360340Y-67503D01*
D02*
G37*
G36*
X181419Y-78081D02*
X181915Y-78413D01*
X182500Y-78529D01*
X183800D01*
X184117Y-78916D01*
X184103Y-78988D01*
X184226Y-79609D01*
X184469Y-79972D01*
X184226Y-80336D01*
X184103Y-80957D01*
X184226Y-81577D01*
X184469Y-81941D01*
X184226Y-82305D01*
X184135Y-82765D01*
X183696Y-82956D01*
X183624Y-82962D01*
X183341Y-82678D01*
X182845Y-82347D01*
X182260Y-82231D01*
X176559D01*
Y-80988D01*
X169441D01*
X169441Y-80988D01*
Y-80988D01*
X168995Y-80832D01*
X166681Y-78518D01*
Y-78066D01*
X166349Y-77264D01*
X166114Y-77029D01*
X166321Y-76529D01*
X179867D01*
X181419Y-78081D01*
D02*
G37*
G36*
X182419Y-86081D02*
X182915Y-86413D01*
X183167Y-86463D01*
X183332Y-87006D01*
X180626Y-89711D01*
X176559D01*
Y-88468D01*
X169441D01*
Y-94012D01*
X176118D01*
X176325Y-94512D01*
X172919Y-97919D01*
X172872Y-97988D01*
X169441D01*
Y-99471D01*
X168133D01*
X166529Y-97866D01*
Y-87634D01*
X168874Y-85289D01*
X169441D01*
Y-86532D01*
X176559D01*
Y-85289D01*
X181626D01*
X182419Y-86081D01*
D02*
G37*
G36*
X267582Y-86788D02*
X267567Y-86862D01*
X267691Y-87483D01*
X267934Y-87846D01*
X267691Y-88210D01*
X267567Y-88831D01*
X267691Y-89451D01*
X267934Y-89815D01*
X267691Y-90179D01*
X267567Y-90799D01*
X267691Y-91420D01*
X267934Y-91783D01*
X267691Y-92147D01*
X267567Y-92768D01*
X267691Y-93388D01*
X267934Y-93752D01*
X267691Y-94116D01*
X267567Y-94736D01*
X267691Y-95357D01*
X267934Y-95720D01*
X267691Y-96084D01*
X267567Y-96705D01*
X267691Y-97325D01*
X267934Y-97689D01*
X267691Y-98053D01*
X267567Y-98673D01*
X267691Y-99294D01*
X267934Y-99657D01*
X267691Y-100021D01*
X267567Y-100642D01*
X267691Y-101262D01*
X267934Y-101626D01*
X267691Y-101990D01*
X267567Y-102610D01*
X267691Y-103231D01*
X267934Y-103595D01*
X267691Y-103958D01*
X267567Y-104579D01*
X267691Y-105199D01*
X267934Y-105563D01*
X267691Y-105927D01*
X267567Y-106547D01*
X267691Y-107168D01*
X267934Y-107531D01*
X267691Y-107895D01*
X267567Y-108516D01*
X267578Y-108568D01*
X267261Y-108955D01*
X266149D01*
X262029Y-104835D01*
Y-88042D01*
X262529Y-87942D01*
X262651Y-88235D01*
X263264Y-88849D01*
X264066Y-89181D01*
X264934D01*
X265736Y-88849D01*
X266349Y-88235D01*
X266681Y-87434D01*
Y-86982D01*
X267121Y-86542D01*
X267582Y-86788D01*
D02*
G37*
G36*
X202471Y-92633D02*
Y-97144D01*
X194739D01*
X194422Y-96757D01*
X194433Y-96705D01*
X194309Y-96084D01*
X194066Y-95720D01*
X194309Y-95357D01*
X194433Y-94736D01*
X194309Y-94116D01*
X194066Y-93752D01*
X194309Y-93388D01*
X194433Y-92768D01*
X194309Y-92147D01*
X194066Y-91783D01*
X194309Y-91420D01*
X194433Y-90799D01*
X194422Y-90747D01*
X194739Y-90360D01*
X200197D01*
X202471Y-92633D01*
D02*
G37*
G36*
X183943Y-97508D02*
X184390Y-97807D01*
X184226Y-98053D01*
X184103Y-98673D01*
X184226Y-99294D01*
X184390Y-99539D01*
X183943Y-99838D01*
X183310Y-100471D01*
X176559D01*
Y-98604D01*
X179133Y-96029D01*
X182464D01*
X183943Y-97508D01*
D02*
G37*
G36*
X204471Y-102134D02*
Y-106867D01*
X202382Y-108955D01*
X200580D01*
X200480Y-108455D01*
X200735Y-108349D01*
X201349Y-107736D01*
X201681Y-106934D01*
Y-106066D01*
X201349Y-105264D01*
X200735Y-104651D01*
X200877Y-104168D01*
X201181Y-103434D01*
Y-102566D01*
X200849Y-101765D01*
X200236Y-101151D01*
X199434Y-100819D01*
X199305D01*
X199226Y-100703D01*
X199490Y-100203D01*
X202540D01*
X204471Y-102134D01*
D02*
G37*
G36*
X180919Y-111581D02*
X181415Y-111913D01*
X182000Y-112029D01*
X183793D01*
X184110Y-112416D01*
X184103Y-112453D01*
X184226Y-113073D01*
X184469Y-113437D01*
X184226Y-113801D01*
X184103Y-114421D01*
X184226Y-115042D01*
X184469Y-115405D01*
X184226Y-115769D01*
X184103Y-116390D01*
X184226Y-117010D01*
X184469Y-117374D01*
X184226Y-117738D01*
X184103Y-118358D01*
X184226Y-118979D01*
X184469Y-119343D01*
X184226Y-119706D01*
X184103Y-120327D01*
X184226Y-120947D01*
X184469Y-121311D01*
X184226Y-121675D01*
X184103Y-122295D01*
X184226Y-122916D01*
X184469Y-123280D01*
X184226Y-123643D01*
X184103Y-124264D01*
X184144Y-124471D01*
X183733Y-124971D01*
X182133D01*
X180400Y-123237D01*
Y-123023D01*
X180035Y-122141D01*
X179359Y-121465D01*
X178477Y-121100D01*
X177523D01*
X176640Y-121465D01*
X175965Y-122141D01*
X175600Y-123023D01*
Y-123977D01*
X175965Y-124859D01*
X176640Y-125535D01*
X177523Y-125900D01*
X178477D01*
X178661Y-125824D01*
X180419Y-127581D01*
X180915Y-127913D01*
X181500Y-128029D01*
X183962D01*
X184103Y-128201D01*
X184226Y-128821D01*
X184469Y-129185D01*
X184226Y-129549D01*
X184103Y-130169D01*
X184226Y-130790D01*
X184469Y-131154D01*
X184226Y-131517D01*
X184103Y-132138D01*
X184226Y-132758D01*
X184469Y-133122D01*
X184226Y-133486D01*
X184103Y-134106D01*
X183737Y-134428D01*
X183345Y-134442D01*
X180581Y-131678D01*
X180085Y-131347D01*
X179500Y-131230D01*
X176059D01*
Y-129988D01*
X168941D01*
Y-135531D01*
X176059D01*
Y-134289D01*
X178867D01*
X181577Y-137000D01*
X179867Y-138711D01*
X176059D01*
Y-137469D01*
X168941D01*
X168941Y-137469D01*
Y-137469D01*
X168487Y-137325D01*
X165029Y-133867D01*
Y-113055D01*
X165349Y-112735D01*
X165681Y-111934D01*
Y-111066D01*
X165556Y-110764D01*
X165834Y-110348D01*
X169441D01*
Y-111012D01*
X176559D01*
Y-109770D01*
X179107D01*
X180919Y-111581D01*
D02*
G37*
G36*
X145264Y-102349D02*
X146066Y-102681D01*
X146934D01*
X147736Y-102349D01*
X147953Y-102132D01*
X148453Y-102339D01*
Y-106815D01*
X155571D01*
Y-103387D01*
X156033Y-103196D01*
X157657Y-104820D01*
Y-106612D01*
X156907D01*
Y-111171D01*
Y-115108D01*
X157657D01*
Y-116680D01*
X156033Y-118304D01*
X155571Y-118113D01*
Y-115185D01*
X148453D01*
Y-127815D01*
X150482D01*
Y-139512D01*
X150599Y-140097D01*
X150930Y-140593D01*
X156519Y-146181D01*
X157015Y-146513D01*
X157600Y-146629D01*
X157952D01*
X158023Y-147100D01*
X157141Y-147465D01*
X156465Y-148141D01*
X156100Y-149023D01*
Y-149737D01*
X154577Y-151260D01*
X150492D01*
Y-160740D01*
X151971D01*
Y-164402D01*
X151476D01*
Y-168606D01*
Y-171598D01*
X155524D01*
Y-171026D01*
X161105D01*
X161312Y-171526D01*
X142980Y-189858D01*
X142518Y-189666D01*
Y-140500D01*
Y-127815D01*
X144547D01*
Y-115185D01*
X142518D01*
Y-106815D01*
X144547D01*
Y-102277D01*
X145047Y-102132D01*
X145264Y-102349D01*
D02*
G37*
G36*
X229419Y-82081D02*
X229915Y-82413D01*
X230500Y-82529D01*
X243028D01*
X243613Y-82413D01*
X244109Y-82081D01*
X245764Y-80427D01*
X252419Y-87081D01*
X252915Y-87413D01*
X253500Y-87529D01*
X258971D01*
Y-105468D01*
X259087Y-106054D01*
X259419Y-106550D01*
X263353Y-110484D01*
X259737Y-114100D01*
X259406Y-114596D01*
X259290Y-115181D01*
Y-125866D01*
X259406Y-126451D01*
X259737Y-126947D01*
X265206Y-132416D01*
X259919Y-137703D01*
X259780Y-137910D01*
X259157Y-137994D01*
X258081Y-136919D01*
X257585Y-136587D01*
X257000Y-136471D01*
X240406D01*
X239820Y-136587D01*
X239324Y-136919D01*
X233953Y-142290D01*
X228581Y-136919D01*
X228085Y-136587D01*
X227500Y-136471D01*
X212287D01*
X211702Y-136587D01*
X211206Y-136919D01*
X206789Y-141335D01*
X205373Y-139919D01*
X204877Y-139587D01*
X204292Y-139471D01*
X204029D01*
Y-138000D01*
X203913Y-137415D01*
X203581Y-136919D01*
X201081Y-134419D01*
X200585Y-134087D01*
X200000Y-133971D01*
X196343D01*
X195758Y-134087D01*
X195262Y-134419D01*
X195202Y-134478D01*
X194774Y-134464D01*
X194433Y-134106D01*
X194309Y-133486D01*
X194066Y-133122D01*
X194309Y-132758D01*
X194433Y-132138D01*
X194309Y-131517D01*
X194066Y-131154D01*
X194309Y-130790D01*
X194433Y-130169D01*
X194309Y-129549D01*
X194066Y-129185D01*
X194309Y-128821D01*
X194433Y-128201D01*
X194309Y-127580D01*
X194066Y-127216D01*
X194309Y-126853D01*
X194433Y-126232D01*
X194599Y-126029D01*
X195867D01*
X197971Y-128133D01*
Y-129135D01*
X197465Y-129640D01*
X197100Y-130523D01*
Y-131477D01*
X197465Y-132360D01*
X198141Y-133035D01*
X199023Y-133400D01*
X199977D01*
X200859Y-133035D01*
X201535Y-132360D01*
X201900Y-131477D01*
Y-130523D01*
X201535Y-129640D01*
X201029Y-129135D01*
Y-127500D01*
X200913Y-126915D01*
X200581Y-126419D01*
X198925Y-124762D01*
X199101Y-124231D01*
X199308Y-124202D01*
X199641Y-124535D01*
X200523Y-124900D01*
X201477D01*
X202360Y-124535D01*
X203035Y-123860D01*
X203400Y-122977D01*
Y-122023D01*
X203035Y-121141D01*
X202360Y-120465D01*
X201477Y-120100D01*
X200523D01*
X199641Y-120465D01*
X199135Y-120971D01*
X194815D01*
X194404Y-120471D01*
X194433Y-120327D01*
X194309Y-119706D01*
X194066Y-119343D01*
X194309Y-118979D01*
X194433Y-118358D01*
X194309Y-117738D01*
X194066Y-117374D01*
X194309Y-117010D01*
X194433Y-116390D01*
X194309Y-115769D01*
X194066Y-115405D01*
X194309Y-115042D01*
X194433Y-114421D01*
X194309Y-113801D01*
X194066Y-113437D01*
X194309Y-113073D01*
X194433Y-112453D01*
X194422Y-112400D01*
X194739Y-112014D01*
X203016D01*
X203601Y-111897D01*
X204097Y-111566D01*
X207081Y-108581D01*
X207413Y-108085D01*
X207529Y-107500D01*
Y-101500D01*
X207413Y-100915D01*
X207081Y-100419D01*
X205285Y-98623D01*
X205413Y-98432D01*
X205529Y-97846D01*
Y-92000D01*
X205413Y-91415D01*
X205081Y-90919D01*
X201912Y-87749D01*
X201416Y-87418D01*
X200831Y-87301D01*
X199515D01*
X199323Y-86839D01*
X203633Y-82529D01*
X222657D01*
X223242Y-82413D01*
X223738Y-82081D01*
X226578Y-79241D01*
X229419Y-82081D01*
D02*
G37*
G36*
X161971Y-113590D02*
Y-134500D01*
X162087Y-135085D01*
X162419Y-135581D01*
X168159Y-141322D01*
X168655Y-141653D01*
X168941Y-141710D01*
Y-143012D01*
X176059D01*
Y-141770D01*
X180500D01*
X181085Y-141653D01*
X181253Y-141541D01*
X183796D01*
X184113Y-141928D01*
X184103Y-141980D01*
X184113Y-142033D01*
X183829Y-142379D01*
X183681Y-142423D01*
X183115Y-142536D01*
X182619Y-142867D01*
X181916Y-143571D01*
X158233D01*
X153541Y-138878D01*
Y-127815D01*
X155571D01*
Y-122916D01*
X155585Y-122913D01*
X156081Y-122581D01*
X160268Y-118395D01*
X160599Y-117899D01*
X160716Y-117314D01*
Y-115108D01*
X161466D01*
Y-113854D01*
X161966Y-113586D01*
X161971Y-113590D01*
D02*
G37*
G36*
X201405Y-144805D02*
X201500Y-144870D01*
X201651Y-145236D01*
X202053Y-145638D01*
X201889Y-146180D01*
X201836Y-146191D01*
X201472Y-146434D01*
X201109Y-146191D01*
X200488Y-146067D01*
X199868Y-146191D01*
X199504Y-146434D01*
X199140Y-146191D01*
X198520Y-146067D01*
X197899Y-146191D01*
X197535Y-146434D01*
X197172Y-146191D01*
X196551Y-146067D01*
X195931Y-146191D01*
X195405Y-146542D01*
X195053Y-147068D01*
X194930Y-147689D01*
Y-154776D01*
X195053Y-155396D01*
X195405Y-155922D01*
X195931Y-156274D01*
X196551Y-156397D01*
X197172Y-156274D01*
X197535Y-156031D01*
X197899Y-156274D01*
X198520Y-156397D01*
X199140Y-156274D01*
X199504Y-156031D01*
X199868Y-156274D01*
X200488Y-156397D01*
X201109Y-156274D01*
X201472Y-156031D01*
X201836Y-156274D01*
X202457Y-156397D01*
X202502Y-156388D01*
X202748Y-156849D01*
X200678Y-158919D01*
X200347Y-159415D01*
X200231Y-160000D01*
Y-160941D01*
X199488D01*
Y-168059D01*
X205031D01*
Y-160941D01*
X203689D01*
X203482Y-160441D01*
X205500Y-158423D01*
X207518Y-160441D01*
X207311Y-160941D01*
X206968D01*
Y-168059D01*
X212512D01*
Y-160941D01*
X210770D01*
Y-160000D01*
X210653Y-159415D01*
X210322Y-158919D01*
X208286Y-156883D01*
X208312Y-156718D01*
X208483Y-156373D01*
X208983Y-156274D01*
X209347Y-156031D01*
X209710Y-156274D01*
X210331Y-156397D01*
X210951Y-156274D01*
X211315Y-156031D01*
X211679Y-156274D01*
X212299Y-156397D01*
X212920Y-156274D01*
X213283Y-156031D01*
X213647Y-156274D01*
X214268Y-156397D01*
X214888Y-156274D01*
X215252Y-156031D01*
X215616Y-156274D01*
X216236Y-156397D01*
X216857Y-156274D01*
X217220Y-156031D01*
X217584Y-156274D01*
X218205Y-156397D01*
X218825Y-156274D01*
X219189Y-156031D01*
X219553Y-156274D01*
X220173Y-156397D01*
X220794Y-156274D01*
X221158Y-156031D01*
X221521Y-156274D01*
X222142Y-156397D01*
X222762Y-156274D01*
X223126Y-156031D01*
X223490Y-156274D01*
X224110Y-156397D01*
X224731Y-156274D01*
X225095Y-156031D01*
X225458Y-156274D01*
X226079Y-156397D01*
X226699Y-156274D01*
X227063Y-156031D01*
X227427Y-156274D01*
X228047Y-156397D01*
X228594Y-156288D01*
X228749Y-156325D01*
X228783Y-156347D01*
X228853Y-156984D01*
X228415Y-157422D01*
X228084Y-157918D01*
X227967Y-158503D01*
Y-160941D01*
X226988D01*
Y-168059D01*
X232531D01*
Y-160941D01*
X231026D01*
Y-159137D01*
X232650Y-157512D01*
X232871Y-157534D01*
X235448Y-160110D01*
Y-160235D01*
X235327Y-160415D01*
X235223Y-160941D01*
X234469D01*
Y-168059D01*
X235211D01*
Y-172126D01*
X221367Y-185971D01*
X165000D01*
X164415Y-186087D01*
X163919Y-186419D01*
X130919Y-219419D01*
X130587Y-219915D01*
X130471Y-220500D01*
Y-235269D01*
X130456Y-235273D01*
X129544Y-235799D01*
X128799Y-236544D01*
X128273Y-237456D01*
X128000Y-238473D01*
Y-239527D01*
X128273Y-240544D01*
X128799Y-241456D01*
X129544Y-242201D01*
X130456Y-242727D01*
X131473Y-243000D01*
X132527D01*
X133544Y-242727D01*
X134456Y-242201D01*
X135201Y-241456D01*
X135727Y-240544D01*
X136000Y-239527D01*
Y-238473D01*
X135727Y-237456D01*
X135201Y-236544D01*
X134456Y-235799D01*
X133544Y-235273D01*
X133529Y-235269D01*
Y-221133D01*
X165633Y-189029D01*
X222000D01*
X222585Y-188913D01*
X223081Y-188581D01*
X237822Y-173841D01*
X238153Y-173345D01*
X238269Y-172760D01*
Y-168059D01*
X240012D01*
Y-160941D01*
X238506D01*
Y-159477D01*
X238390Y-158892D01*
X238058Y-158396D01*
X236465Y-156802D01*
X236604Y-156322D01*
X237066Y-156138D01*
X237269Y-156274D01*
X237890Y-156397D01*
X238510Y-156274D01*
X238874Y-156031D01*
X239238Y-156274D01*
X239858Y-156397D01*
X240479Y-156274D01*
X240843Y-156031D01*
X241206Y-156274D01*
X241827Y-156397D01*
X241879Y-156387D01*
X242266Y-156704D01*
Y-181795D01*
X242382Y-182380D01*
X242714Y-182877D01*
X284100Y-224263D01*
Y-224977D01*
X284465Y-225859D01*
X285140Y-226535D01*
X286023Y-226900D01*
X286977D01*
X287860Y-226535D01*
X288535Y-225859D01*
X288900Y-224977D01*
Y-224023D01*
X288535Y-223141D01*
X287860Y-222465D01*
X286977Y-222100D01*
X286263D01*
X245325Y-181162D01*
Y-175641D01*
X245787Y-175450D01*
X329621Y-259284D01*
X329347Y-259757D01*
X328984Y-261113D01*
Y-262517D01*
X329347Y-263873D01*
X330049Y-265088D01*
X331042Y-266081D01*
X332257Y-266782D01*
X333613Y-267146D01*
X335017D01*
X336372Y-266782D01*
X337588Y-266081D01*
X338581Y-265088D01*
X339282Y-263873D01*
X339424Y-263344D01*
X348891D01*
X349033Y-263873D01*
X349734Y-265088D01*
X350727Y-266081D01*
X351942Y-266782D01*
X353298Y-267146D01*
X354702D01*
X356058Y-266782D01*
X357273Y-266081D01*
X358266Y-265088D01*
X358877Y-264029D01*
X362367D01*
X366471Y-268133D01*
Y-269799D01*
X366400D01*
Y-273200D01*
Y-275201D01*
X366471D01*
Y-276366D01*
X362866Y-279971D01*
X359109D01*
X358967Y-279442D01*
X358266Y-278227D01*
X357273Y-277234D01*
X356058Y-276533D01*
X354702Y-276169D01*
X353298D01*
X351942Y-276533D01*
X350727Y-277234D01*
X349734Y-278227D01*
X349033Y-279442D01*
X348891Y-279971D01*
X339424D01*
X339282Y-279442D01*
X338581Y-278227D01*
X337588Y-277234D01*
X336372Y-276533D01*
X335017Y-276169D01*
X333613D01*
X332257Y-276533D01*
X331042Y-277234D01*
X330049Y-278227D01*
X329347Y-279442D01*
X328984Y-280798D01*
Y-282202D01*
X329347Y-283558D01*
X330049Y-284773D01*
X331042Y-285766D01*
X332257Y-286467D01*
X332786Y-286609D01*
Y-287551D01*
X314866Y-305471D01*
X272846D01*
X272654Y-305009D01*
X277581Y-300081D01*
X277913Y-299585D01*
X278029Y-299000D01*
Y-297237D01*
X278514Y-297140D01*
X279771Y-296620D01*
X280902Y-295864D01*
X281864Y-294902D01*
X282620Y-293771D01*
X283140Y-292514D01*
X283405Y-291180D01*
Y-289820D01*
X283140Y-288486D01*
X282620Y-287229D01*
X281864Y-286098D01*
X280902Y-285136D01*
X279771Y-284380D01*
X278514Y-283860D01*
X277180Y-283594D01*
X275820D01*
X274486Y-283860D01*
X273229Y-284380D01*
X272098Y-285136D01*
X271136Y-286098D01*
X270380Y-287229D01*
X269860Y-288486D01*
X269595Y-289820D01*
Y-291180D01*
X269860Y-292514D01*
X270380Y-293771D01*
X271136Y-294902D01*
X272098Y-295864D01*
X273229Y-296620D01*
X274486Y-297140D01*
X274971Y-297237D01*
Y-298366D01*
X267866Y-305471D01*
X237020D01*
Y-295500D01*
X236942Y-295110D01*
X236721Y-294779D01*
X235221Y-293279D01*
X234890Y-293058D01*
X234500Y-292980D01*
X186000D01*
X185610Y-293058D01*
X185279Y-293279D01*
X184020Y-294538D01*
X183520Y-294331D01*
Y-273236D01*
X183490Y-273090D01*
X183485Y-273039D01*
X183490Y-272989D01*
X183520Y-272842D01*
Y-262000D01*
X183442Y-261610D01*
X183354Y-261479D01*
Y-261216D01*
X183127D01*
X182890Y-261058D01*
X182500Y-260980D01*
X178000D01*
X177610Y-261058D01*
X177279Y-261279D01*
X177161Y-261455D01*
X176661Y-261303D01*
Y-261216D01*
X170724D01*
Y-274634D01*
X172163D01*
Y-276456D01*
X172141Y-276465D01*
X171465Y-277140D01*
X171100Y-278023D01*
Y-278977D01*
X171465Y-279859D01*
X172141Y-280535D01*
X173023Y-280900D01*
X173977D01*
X174859Y-280535D01*
X175535Y-279859D01*
X175900Y-278977D01*
Y-278023D01*
X175535Y-277140D01*
X175222Y-276828D01*
Y-274987D01*
X175576Y-274634D01*
X176661Y-274634D01*
X176980Y-275002D01*
Y-282980D01*
X170922D01*
X170020Y-282078D01*
Y-262000D01*
X169968Y-261743D01*
Y-261216D01*
X169627D01*
X169390Y-261058D01*
X169000Y-260980D01*
X165669D01*
X165462Y-260480D01*
X167422Y-258520D01*
X190078D01*
X191480Y-259922D01*
Y-286000D01*
X191514Y-286166D01*
X191537Y-286334D01*
X191552Y-286360D01*
X191558Y-286390D01*
X191652Y-286531D01*
X191738Y-286677D01*
X191762Y-286696D01*
X191779Y-286721D01*
X191920Y-286815D01*
X192055Y-286917D01*
X192063Y-286919D01*
Y-287189D01*
X195350D01*
X200576Y-287496D01*
X200591Y-287494D01*
X200606Y-287498D01*
X200788Y-287467D01*
X200970Y-287442D01*
X200984Y-287434D01*
X200999Y-287432D01*
X201155Y-287334D01*
X201314Y-287241D01*
X201323Y-287228D01*
X201336Y-287220D01*
X201369Y-287189D01*
X201937D01*
Y-286533D01*
X201942Y-286526D01*
X201978Y-286345D01*
X202019Y-286165D01*
X202017Y-286151D01*
X202020Y-286136D01*
Y-256422D01*
X218615Y-239827D01*
X219394D01*
Y-239048D01*
X219721Y-238721D01*
X219942Y-238390D01*
X220020Y-238000D01*
Y-216500D01*
X219942Y-216110D01*
X219721Y-215779D01*
X219390Y-215558D01*
X219000Y-215480D01*
X203500D01*
X203110Y-215558D01*
X202779Y-215779D01*
X202385Y-216173D01*
X202236D01*
Y-216322D01*
X191779Y-226779D01*
X191558Y-227110D01*
X191480Y-227500D01*
Y-247078D01*
X189078Y-249480D01*
X169000D01*
X168610Y-249558D01*
X168279Y-249779D01*
X157279Y-260779D01*
X157132Y-260998D01*
X156955Y-261119D01*
X156539Y-261157D01*
X156390Y-261058D01*
X156000Y-260980D01*
X151653D01*
X151263Y-261058D01*
X151026Y-261216D01*
X150646D01*
Y-261768D01*
X150520Y-262072D01*
X150520Y-262072D01*
X150442Y-262462D01*
X150480Y-262653D01*
Y-275078D01*
X147078Y-278480D01*
X113922D01*
X109937Y-274495D01*
Y-273507D01*
X109601Y-272252D01*
X108951Y-271126D01*
X108031Y-270207D01*
X106906Y-269557D01*
X105650Y-269220D01*
X104350D01*
X103094Y-269557D01*
X101969Y-270207D01*
X101049Y-271126D01*
X100399Y-272252D01*
X100063Y-273507D01*
Y-274808D01*
X100399Y-276063D01*
X101049Y-277189D01*
X101969Y-278108D01*
X103094Y-278758D01*
X104159Y-279043D01*
X104238Y-279177D01*
X104262Y-279196D01*
X104279Y-279221D01*
X108279Y-283221D01*
X108610Y-283442D01*
X109000Y-283520D01*
X150000D01*
X150390Y-283442D01*
X150721Y-283221D01*
X156721Y-277221D01*
X156942Y-276890D01*
X157020Y-276500D01*
Y-275002D01*
X157339Y-274634D01*
X163276D01*
Y-274139D01*
X163442Y-273890D01*
X163480Y-273697D01*
X163980Y-273746D01*
Y-283078D01*
X160578Y-286480D01*
X148500D01*
X148110Y-286558D01*
X147779Y-286779D01*
X145078Y-289480D01*
X108197D01*
X108094Y-289501D01*
X107988Y-289502D01*
X107901Y-289539D01*
X107807Y-289558D01*
X107720Y-289617D01*
X107625Y-289657D01*
X106906Y-289242D01*
X105650Y-288906D01*
X104350D01*
X103094Y-289242D01*
X101969Y-289892D01*
X101049Y-290811D01*
X100399Y-291937D01*
X100299Y-292313D01*
X76029D01*
Y-261134D01*
X83581Y-253581D01*
X142081Y-195081D01*
X164581Y-172581D01*
X164913Y-172085D01*
X165009Y-171602D01*
X165524D01*
Y-168610D01*
Y-164406D01*
X164951D01*
Y-160740D01*
X166665D01*
Y-157529D01*
X174000D01*
X174585Y-157413D01*
X175081Y-157081D01*
X178763Y-153400D01*
X179477D01*
X180359Y-153035D01*
X181035Y-152359D01*
X181400Y-151477D01*
Y-150523D01*
X181035Y-149641D01*
X180359Y-148965D01*
X179477Y-148600D01*
X178523D01*
X177640Y-148965D01*
X176965Y-149641D01*
X176600Y-150523D01*
Y-151237D01*
X173366Y-154471D01*
X166665D01*
Y-151260D01*
X160841D01*
X160721Y-151103D01*
X160576Y-150760D01*
X160900Y-149977D01*
Y-149023D01*
X160535Y-148141D01*
X159860Y-147465D01*
X158977Y-147100D01*
X159048Y-146629D01*
X182549D01*
X183134Y-146513D01*
X183631Y-146181D01*
X184334Y-145478D01*
X185260D01*
X185724Y-145571D01*
X192811D01*
X193432Y-145447D01*
X193958Y-145096D01*
X194107Y-144872D01*
X194168Y-144913D01*
X194753Y-145029D01*
X200000D01*
X200585Y-144913D01*
X200891Y-144708D01*
X201405Y-144805D01*
D02*
G37*
G36*
X259919Y-143081D02*
X259919Y-143081D01*
X261971Y-145133D01*
Y-145764D01*
X261584Y-146082D01*
X261512Y-146067D01*
X260998Y-146169D01*
X260956Y-145958D01*
X260625Y-145462D01*
X257681Y-142518D01*
Y-142066D01*
X257349Y-141264D01*
X256735Y-140651D01*
X255934Y-140319D01*
X255066D01*
X254264Y-140651D01*
X253651Y-141264D01*
X253319Y-142066D01*
Y-142934D01*
X253651Y-143736D01*
X254264Y-144349D01*
X255066Y-144681D01*
X255518D01*
X256314Y-145476D01*
X256347Y-145565D01*
X256234Y-146104D01*
X256109Y-146167D01*
X255606Y-146067D01*
X254986Y-146191D01*
X254622Y-146434D01*
X254258Y-146191D01*
X253638Y-146067D01*
X253017Y-146191D01*
X252654Y-146434D01*
X252290Y-146191D01*
X251669Y-146067D01*
X251049Y-146191D01*
X250685Y-146434D01*
X250321Y-146191D01*
X249701Y-146067D01*
X249080Y-146191D01*
X248716Y-146434D01*
X248353Y-146191D01*
X247732Y-146067D01*
X247112Y-146191D01*
X246748Y-146434D01*
X246384Y-146191D01*
X245764Y-146067D01*
X245143Y-146191D01*
X244779Y-146434D01*
X244416Y-146191D01*
X243795Y-146067D01*
X243175Y-146191D01*
X242811Y-146434D01*
X242447Y-146191D01*
X241827Y-146067D01*
X241206Y-146191D01*
X240843Y-146434D01*
X240479Y-146191D01*
X239858Y-146067D01*
X239238Y-146191D01*
X238874Y-146434D01*
X238510Y-146191D01*
X237890Y-146067D01*
X237269Y-146191D01*
X236906Y-146434D01*
X236542Y-146191D01*
X235921Y-146067D01*
X235869Y-146078D01*
X235482Y-145761D01*
Y-145086D01*
X241039Y-139529D01*
X256366D01*
X259919Y-143081D01*
D02*
G37*
G36*
X222041Y-140029D02*
X221819Y-140566D01*
Y-141434D01*
X222151Y-142236D01*
X222764Y-142849D01*
X223566Y-143181D01*
X224434D01*
X225236Y-142849D01*
X225555Y-142529D01*
X226867D01*
X229915Y-145578D01*
X229750Y-146120D01*
X229395Y-146191D01*
X229031Y-146434D01*
X228668Y-146191D01*
X228047Y-146067D01*
X227427Y-146191D01*
X227063Y-146434D01*
X226699Y-146191D01*
X226079Y-146067D01*
X225458Y-146191D01*
X225095Y-146434D01*
X224731Y-146191D01*
X224110Y-146067D01*
X223490Y-146191D01*
X223126Y-146434D01*
X222762Y-146191D01*
X222142Y-146067D01*
X221521Y-146191D01*
X221158Y-146434D01*
X220794Y-146191D01*
X220173Y-146067D01*
X219553Y-146191D01*
X219189Y-146434D01*
X218825Y-146191D01*
X218205Y-146067D01*
X217584Y-146191D01*
X217220Y-146434D01*
X216857Y-146191D01*
X216236Y-146067D01*
X215616Y-146191D01*
X215252Y-146434D01*
X214888Y-146191D01*
X214268Y-146067D01*
X213647Y-146191D01*
X213283Y-146434D01*
X212920Y-146191D01*
X212299Y-146067D01*
X211679Y-146191D01*
X211315Y-146434D01*
X210951Y-146191D01*
X210331Y-146067D01*
X209710Y-146191D01*
X209347Y-146434D01*
X208983Y-146191D01*
X208362Y-146067D01*
X208310Y-146078D01*
X207923Y-145761D01*
Y-144527D01*
X212921Y-139529D01*
X221733D01*
X222041Y-140029D01*
D02*
G37*
G36*
X510971Y-166633D02*
Y-197154D01*
X510509Y-197346D01*
X484239Y-171076D01*
X483743Y-170745D01*
X483157Y-170628D01*
X475951D01*
X475810Y-170100D01*
X475108Y-168884D01*
X474116Y-167892D01*
X472900Y-167190D01*
X471544Y-166827D01*
X470141D01*
X468785Y-167190D01*
X467569Y-167892D01*
X466577Y-168884D01*
X465875Y-170100D01*
X465734Y-170628D01*
X456266D01*
X456125Y-170100D01*
X455423Y-168884D01*
X454431Y-167892D01*
X453215Y-167190D01*
X451859Y-166827D01*
X450456D01*
X449100Y-167190D01*
X447884Y-167892D01*
X446892Y-168884D01*
X446190Y-170100D01*
X446091Y-170471D01*
X439500D01*
X438915Y-170587D01*
X438419Y-170919D01*
X433419Y-175919D01*
X433087Y-176415D01*
X432971Y-177000D01*
Y-179299D01*
X432900D01*
Y-182700D01*
Y-184701D01*
X432971D01*
Y-187000D01*
X433087Y-187585D01*
X433419Y-188081D01*
X438261Y-192924D01*
X438757Y-193255D01*
X439342Y-193372D01*
X446048D01*
X446190Y-193900D01*
X446892Y-195116D01*
X447884Y-196108D01*
X449100Y-196810D01*
X449628Y-196951D01*
Y-203209D01*
X435237Y-217600D01*
X434523D01*
X433640Y-217965D01*
X432965Y-218640D01*
X432600Y-219523D01*
Y-220477D01*
X432965Y-221359D01*
X433640Y-222035D01*
X434523Y-222400D01*
X435477D01*
X436360Y-222035D01*
X437035Y-221359D01*
X437400Y-220477D01*
Y-219763D01*
X452239Y-204924D01*
X452570Y-204428D01*
X452687Y-203842D01*
Y-196951D01*
X453215Y-196810D01*
X454431Y-196108D01*
X455423Y-195116D01*
X456125Y-193900D01*
X456266Y-193372D01*
X465734D01*
X465875Y-193900D01*
X466577Y-195116D01*
X467569Y-196108D01*
X468785Y-196810D01*
X469471Y-196994D01*
Y-214736D01*
X466260D01*
Y-222642D01*
X475740D01*
Y-214736D01*
X472529D01*
Y-196909D01*
X472900Y-196810D01*
X474116Y-196108D01*
X475108Y-195116D01*
X475810Y-193900D01*
X476173Y-192544D01*
Y-191141D01*
X475810Y-189785D01*
X475108Y-188569D01*
X474116Y-187577D01*
X472900Y-186875D01*
X471544Y-186512D01*
X470141D01*
X468785Y-186875D01*
X467569Y-187577D01*
X466577Y-188569D01*
X465875Y-189785D01*
X465734Y-190313D01*
X456266D01*
X456125Y-189785D01*
X455423Y-188569D01*
X454431Y-187577D01*
X453215Y-186875D01*
X451859Y-186512D01*
X450456D01*
X449100Y-186875D01*
X447884Y-187577D01*
X446892Y-188569D01*
X446190Y-189785D01*
X446048Y-190313D01*
X439976D01*
X436029Y-186366D01*
Y-184701D01*
X436100D01*
Y-182700D01*
Y-179299D01*
X436029D01*
Y-177634D01*
X440133Y-173529D01*
X446006D01*
X446190Y-174215D01*
X446892Y-175431D01*
X447884Y-176423D01*
X449100Y-177125D01*
X450456Y-177488D01*
X451859D01*
X453215Y-177125D01*
X454431Y-176423D01*
X455423Y-175431D01*
X456125Y-174215D01*
X456266Y-173687D01*
X465734D01*
X465875Y-174215D01*
X466577Y-175431D01*
X467569Y-176423D01*
X468785Y-177125D01*
X470141Y-177488D01*
X471544D01*
X472900Y-177125D01*
X474116Y-176423D01*
X475108Y-175431D01*
X475810Y-174215D01*
X475951Y-173687D01*
X482524D01*
X510971Y-202133D01*
Y-278366D01*
X483867Y-305471D01*
X431846D01*
X431654Y-305009D01*
X448469Y-288194D01*
X448942Y-288467D01*
X450298Y-288831D01*
X451702D01*
X453058Y-288467D01*
X454273Y-287766D01*
X455266Y-286773D01*
X455967Y-285558D01*
X456109Y-285029D01*
X465576D01*
X465718Y-285558D01*
X466419Y-286773D01*
X467412Y-287766D01*
X468628Y-288467D01*
X469983Y-288831D01*
X471387D01*
X472743Y-288467D01*
X473958Y-287766D01*
X474951Y-286773D01*
X475653Y-285558D01*
X475794Y-285029D01*
X484000D01*
X484585Y-284913D01*
X485081Y-284581D01*
X490081Y-279581D01*
X490413Y-279085D01*
X490529Y-278500D01*
Y-276201D01*
X490600D01*
Y-274200D01*
Y-270800D01*
X490529D01*
Y-269500D01*
X490413Y-268915D01*
X490081Y-268419D01*
X484581Y-262919D01*
X484085Y-262587D01*
X483500Y-262471D01*
X475844D01*
X475653Y-261757D01*
X474951Y-260542D01*
X473958Y-259549D01*
X472743Y-258847D01*
X471387Y-258484D01*
X469983D01*
X468628Y-258847D01*
X467412Y-259549D01*
X466419Y-260542D01*
X465718Y-261757D01*
X465576Y-262286D01*
X456109D01*
X455967Y-261757D01*
X455266Y-260542D01*
X454273Y-259549D01*
X453058Y-258847D01*
X452529Y-258706D01*
Y-245764D01*
X455740D01*
Y-244029D01*
X477000D01*
X477585Y-243913D01*
X478081Y-243581D01*
X496081Y-225581D01*
X496413Y-225085D01*
X496529Y-224500D01*
Y-215865D01*
X497035Y-215359D01*
X497400Y-214477D01*
Y-213523D01*
X497035Y-212641D01*
X496359Y-211965D01*
X495477Y-211600D01*
X494523D01*
X493641Y-211965D01*
X492965Y-212641D01*
X492600Y-213523D01*
Y-214477D01*
X492965Y-215359D01*
X493471Y-215865D01*
Y-223867D01*
X476367Y-240971D01*
X455740D01*
Y-237858D01*
X446260D01*
Y-245764D01*
X449471D01*
Y-258706D01*
X448942Y-258847D01*
X447727Y-259549D01*
X446734Y-260542D01*
X446033Y-261757D01*
X445669Y-263113D01*
Y-264517D01*
X446033Y-265873D01*
X446734Y-267088D01*
X447727Y-268081D01*
X448942Y-268782D01*
X450298Y-269146D01*
X451702D01*
X453058Y-268782D01*
X454273Y-268081D01*
X455266Y-267088D01*
X455967Y-265873D01*
X456109Y-265344D01*
X465576D01*
X465718Y-265873D01*
X466419Y-267088D01*
X467412Y-268081D01*
X468628Y-268782D01*
X469983Y-269146D01*
X471387D01*
X472743Y-268782D01*
X473958Y-268081D01*
X474951Y-267088D01*
X475653Y-265873D01*
X475744Y-265529D01*
X482866D01*
X487471Y-270133D01*
Y-270800D01*
X487400D01*
Y-274200D01*
Y-276201D01*
X487471D01*
Y-277867D01*
X483366Y-281971D01*
X475794D01*
X475653Y-281442D01*
X474951Y-280227D01*
X473958Y-279234D01*
X472743Y-278533D01*
X471387Y-278169D01*
X469983D01*
X468628Y-278533D01*
X467412Y-279234D01*
X466419Y-280227D01*
X465718Y-281442D01*
X465576Y-281971D01*
X456109D01*
X455967Y-281442D01*
X455266Y-280227D01*
X454273Y-279234D01*
X453058Y-278533D01*
X451702Y-278169D01*
X450298D01*
X448942Y-278533D01*
X447727Y-279234D01*
X446734Y-280227D01*
X446033Y-281442D01*
X445669Y-282798D01*
Y-284202D01*
X446033Y-285558D01*
X446306Y-286031D01*
X426866Y-305471D01*
X371846D01*
X371654Y-305009D01*
X388626Y-288036D01*
X389100Y-288310D01*
X390456Y-288673D01*
X391859D01*
X393215Y-288310D01*
X394431Y-287608D01*
X395423Y-286616D01*
X396125Y-285400D01*
X396266Y-284872D01*
X405734D01*
X405875Y-285400D01*
X406577Y-286616D01*
X407569Y-287608D01*
X408785Y-288310D01*
X410141Y-288673D01*
X411544D01*
X412900Y-288310D01*
X414116Y-287608D01*
X415108Y-286616D01*
X415810Y-285400D01*
X415951Y-284872D01*
X424157D01*
X424743Y-284755D01*
X425239Y-284424D01*
X429581Y-280081D01*
X429913Y-279585D01*
X430029Y-279000D01*
Y-276200D01*
X430100D01*
Y-274199D01*
Y-270799D01*
X430029D01*
Y-267500D01*
X429913Y-266915D01*
X429581Y-266419D01*
X425581Y-262419D01*
X425085Y-262087D01*
X424500Y-261971D01*
X415909D01*
X415810Y-261600D01*
X415108Y-260384D01*
X414116Y-259392D01*
X412900Y-258690D01*
X411544Y-258327D01*
X410141D01*
X408785Y-258690D01*
X407569Y-259392D01*
X406577Y-260384D01*
X405875Y-261600D01*
X405734Y-262128D01*
X396266D01*
X396125Y-261600D01*
X395423Y-260384D01*
X394431Y-259392D01*
X393215Y-258690D01*
X393029Y-258640D01*
Y-244358D01*
X396240D01*
Y-236453D01*
X386760D01*
Y-238876D01*
X378770D01*
X378360Y-238465D01*
X377477Y-238100D01*
X376523D01*
X375641Y-238465D01*
X374965Y-239141D01*
X374600Y-240023D01*
Y-240977D01*
X374965Y-241860D01*
X375641Y-242535D01*
X376523Y-242900D01*
X377477D01*
X378360Y-242535D01*
X378959Y-241935D01*
X386760D01*
Y-244358D01*
X389971D01*
Y-258457D01*
X389100Y-258690D01*
X387884Y-259392D01*
X386892Y-260384D01*
X386190Y-261600D01*
X385827Y-262956D01*
Y-264359D01*
X386190Y-265715D01*
X386892Y-266931D01*
X387884Y-267923D01*
X389100Y-268625D01*
X390456Y-268988D01*
X391859D01*
X393215Y-268625D01*
X394431Y-267923D01*
X395423Y-266931D01*
X396125Y-265715D01*
X396266Y-265187D01*
X405734D01*
X405875Y-265715D01*
X406577Y-266931D01*
X407569Y-267923D01*
X408785Y-268625D01*
X410141Y-268988D01*
X411544D01*
X412900Y-268625D01*
X414116Y-267923D01*
X415108Y-266931D01*
X415810Y-265715D01*
X415994Y-265029D01*
X423867D01*
X426971Y-268133D01*
Y-270799D01*
X426900D01*
Y-274199D01*
Y-276200D01*
X426971D01*
Y-278366D01*
X423524Y-281813D01*
X415951D01*
X415810Y-281285D01*
X415108Y-280069D01*
X414116Y-279077D01*
X412900Y-278375D01*
X411544Y-278012D01*
X410141D01*
X408785Y-278375D01*
X407569Y-279077D01*
X406577Y-280069D01*
X405875Y-281285D01*
X405734Y-281813D01*
X396266D01*
X396125Y-281285D01*
X395423Y-280069D01*
X394431Y-279077D01*
X393215Y-278375D01*
X391859Y-278012D01*
X390456D01*
X389100Y-278375D01*
X387884Y-279077D01*
X386892Y-280069D01*
X386190Y-281285D01*
X385827Y-282641D01*
Y-284044D01*
X386190Y-285400D01*
X386463Y-285874D01*
X366866Y-305471D01*
X319846D01*
X319654Y-305009D01*
X335396Y-289266D01*
X335728Y-288770D01*
X335844Y-288185D01*
Y-286609D01*
X336372Y-286467D01*
X337588Y-285766D01*
X338581Y-284773D01*
X339282Y-283558D01*
X339424Y-283029D01*
X348891D01*
X349033Y-283558D01*
X349734Y-284773D01*
X350727Y-285766D01*
X351942Y-286467D01*
X353298Y-286831D01*
X354702D01*
X356058Y-286467D01*
X357273Y-285766D01*
X358266Y-284773D01*
X358967Y-283558D01*
X359109Y-283029D01*
X363500D01*
X364085Y-282913D01*
X364581Y-282581D01*
X369081Y-278081D01*
X369413Y-277585D01*
X369529Y-277000D01*
Y-275201D01*
X369600D01*
Y-273200D01*
Y-269799D01*
X369529D01*
Y-267500D01*
X369413Y-266915D01*
X369081Y-266419D01*
X364081Y-261419D01*
X363585Y-261087D01*
X363000Y-260971D01*
X359293D01*
X358967Y-259757D01*
X358266Y-258542D01*
X357273Y-257549D01*
X356058Y-256848D01*
X354702Y-256484D01*
X353298D01*
X351942Y-256848D01*
X350727Y-257549D01*
X349734Y-258542D01*
X349033Y-259757D01*
X348891Y-260286D01*
X339424D01*
X339282Y-259757D01*
X338581Y-258542D01*
X337588Y-257549D01*
X336372Y-256848D01*
X336029Y-256756D01*
Y-243858D01*
X339240D01*
Y-235953D01*
X329760D01*
Y-243858D01*
X332971D01*
Y-256656D01*
X332257Y-256848D01*
X331784Y-257121D01*
X292749Y-218086D01*
X292940Y-217624D01*
X333465D01*
X333523Y-218100D01*
X332641Y-218465D01*
X331965Y-219141D01*
X331600Y-220023D01*
Y-220977D01*
X331965Y-221860D01*
X332641Y-222535D01*
X332971Y-222671D01*
Y-224142D01*
X329760D01*
Y-232047D01*
X339240D01*
Y-229435D01*
X345260D01*
Y-231858D01*
X354740D01*
Y-229435D01*
X386760D01*
Y-232547D01*
X396240D01*
Y-230124D01*
X406260D01*
Y-232358D01*
X415740D01*
Y-229935D01*
X446260D01*
Y-233953D01*
X455740D01*
Y-231529D01*
X466260D01*
Y-234453D01*
X475740D01*
Y-232029D01*
X477500D01*
X478085Y-231913D01*
X478581Y-231581D01*
X486263Y-223900D01*
X486977D01*
X487859Y-223535D01*
X488535Y-222860D01*
X488900Y-221977D01*
Y-221023D01*
X488535Y-220141D01*
X487859Y-219465D01*
X486977Y-219100D01*
X486023D01*
X485141Y-219465D01*
X484465Y-220141D01*
X484100Y-221023D01*
Y-221737D01*
X476866Y-228971D01*
X475740D01*
Y-226547D01*
X466260D01*
Y-228471D01*
X455740D01*
Y-226047D01*
X446260D01*
Y-226876D01*
X415740D01*
Y-224453D01*
X406260D01*
Y-227065D01*
X396240D01*
Y-224642D01*
X386760D01*
Y-226376D01*
X354740D01*
Y-223953D01*
X345260D01*
Y-226376D01*
X339240D01*
Y-224142D01*
X336029D01*
Y-221865D01*
X336035Y-221860D01*
X336400Y-220977D01*
Y-220023D01*
X336035Y-219141D01*
X335360Y-218465D01*
X334477Y-218100D01*
X334535Y-217624D01*
X345260D01*
Y-220047D01*
X354740D01*
Y-212142D01*
X351872D01*
Y-196451D01*
X352400Y-196310D01*
X353616Y-195608D01*
X354608Y-194616D01*
X355310Y-193400D01*
X355673Y-192044D01*
Y-190641D01*
X355310Y-189285D01*
X354608Y-188069D01*
X353616Y-187077D01*
X352400Y-186375D01*
X351044Y-186012D01*
X349641D01*
X348285Y-186375D01*
X347069Y-187077D01*
X346077Y-188069D01*
X345375Y-189285D01*
X345234Y-189813D01*
X335766D01*
X335625Y-189285D01*
X334923Y-188069D01*
X333931Y-187077D01*
X332715Y-186375D01*
X331359Y-186012D01*
X329956D01*
X328600Y-186375D01*
X327384Y-187077D01*
X326392Y-188069D01*
X325690Y-189285D01*
X325506Y-189971D01*
X318634D01*
X314529Y-185866D01*
Y-184201D01*
X314600D01*
Y-182200D01*
Y-178800D01*
X314529D01*
Y-177134D01*
X318476Y-173187D01*
X325549D01*
X325690Y-173715D01*
X326392Y-174931D01*
X327384Y-175923D01*
X328600Y-176625D01*
X329956Y-176988D01*
X331359D01*
X332715Y-176625D01*
X333931Y-175923D01*
X334923Y-174931D01*
X335625Y-173715D01*
X335766Y-173187D01*
X345234D01*
X345375Y-173715D01*
X346077Y-174931D01*
X347069Y-175923D01*
X348285Y-176625D01*
X349641Y-176988D01*
X351044D01*
X352400Y-176625D01*
X353616Y-175923D01*
X354608Y-174931D01*
X355310Y-173715D01*
X355673Y-172359D01*
Y-170956D01*
X355310Y-169600D01*
X354608Y-168384D01*
X353616Y-167392D01*
X352400Y-166690D01*
X351044Y-166327D01*
X349641D01*
X348285Y-166690D01*
X347069Y-167392D01*
X346077Y-168384D01*
X345375Y-169600D01*
X345234Y-170128D01*
X335766D01*
X335625Y-169600D01*
X335351Y-169126D01*
X371448Y-133029D01*
X425969D01*
X426161Y-133491D01*
X394531Y-165121D01*
X394058Y-164848D01*
X392702Y-164484D01*
X391298D01*
X389942Y-164848D01*
X388727Y-165549D01*
X387734Y-166542D01*
X387033Y-167757D01*
X386891Y-168286D01*
X378685D01*
X378100Y-168402D01*
X377604Y-168734D01*
X371419Y-174919D01*
X371087Y-175415D01*
X370971Y-176000D01*
Y-177300D01*
X370900D01*
Y-180700D01*
Y-182701D01*
X370971D01*
Y-184500D01*
X371087Y-185085D01*
X371419Y-185581D01*
X376919Y-191081D01*
X377415Y-191413D01*
X378000Y-191529D01*
X387025D01*
X387033Y-191558D01*
X387734Y-192773D01*
X388727Y-193766D01*
X389942Y-194467D01*
X390471Y-194609D01*
Y-195867D01*
X379237Y-207100D01*
X378523D01*
X377641Y-207465D01*
X376965Y-208140D01*
X376600Y-209023D01*
Y-209977D01*
X376965Y-210859D01*
X377641Y-211535D01*
X378523Y-211900D01*
X379477D01*
X380360Y-211535D01*
X381035Y-210859D01*
X381400Y-209977D01*
Y-209263D01*
X393081Y-197581D01*
X393413Y-197085D01*
X393529Y-196500D01*
Y-194609D01*
X394058Y-194467D01*
X395273Y-193766D01*
X396266Y-192773D01*
X396967Y-191558D01*
X397109Y-191029D01*
X406576D01*
X406718Y-191558D01*
X407419Y-192773D01*
X408412Y-193766D01*
X409627Y-194467D01*
X410156Y-194609D01*
Y-212642D01*
X406260D01*
Y-220547D01*
X415740D01*
Y-212642D01*
X413214D01*
Y-194609D01*
X413743Y-194467D01*
X414958Y-193766D01*
X415951Y-192773D01*
X416652Y-191558D01*
X417016Y-190202D01*
Y-188798D01*
X416652Y-187442D01*
X415951Y-186227D01*
X414958Y-185234D01*
X413743Y-184533D01*
X412387Y-184169D01*
X410983D01*
X409627Y-184533D01*
X408412Y-185234D01*
X407419Y-186227D01*
X406718Y-187442D01*
X406576Y-187971D01*
X397109D01*
X396967Y-187442D01*
X396266Y-186227D01*
X395273Y-185234D01*
X394058Y-184533D01*
X392702Y-184169D01*
X391298D01*
X389942Y-184533D01*
X388727Y-185234D01*
X387734Y-186227D01*
X387033Y-187442D01*
X386757Y-188471D01*
X378633D01*
X374029Y-183867D01*
Y-182701D01*
X374100D01*
Y-180700D01*
Y-177300D01*
X374029D01*
Y-176634D01*
X379318Y-171344D01*
X386891D01*
X387033Y-171872D01*
X387734Y-173088D01*
X388727Y-174081D01*
X389942Y-174782D01*
X391298Y-175146D01*
X392702D01*
X394058Y-174782D01*
X395273Y-174081D01*
X396266Y-173088D01*
X396967Y-171872D01*
X397109Y-171344D01*
X406576D01*
X406718Y-171872D01*
X407419Y-173088D01*
X408412Y-174081D01*
X409627Y-174782D01*
X410983Y-175146D01*
X412387D01*
X413743Y-174782D01*
X414958Y-174081D01*
X415951Y-173088D01*
X416652Y-171872D01*
X417016Y-170517D01*
Y-169113D01*
X416652Y-167757D01*
X415951Y-166542D01*
X414958Y-165549D01*
X413743Y-164848D01*
X412387Y-164484D01*
X410983D01*
X409627Y-164848D01*
X408412Y-165549D01*
X407419Y-166542D01*
X406718Y-167757D01*
X406576Y-168286D01*
X397109D01*
X396967Y-167757D01*
X396694Y-167284D01*
X430948Y-133029D01*
X477366D01*
X510971Y-166633D01*
D02*
G37*
G36*
X160335Y-151767D02*
Y-160740D01*
X161892D01*
Y-164406D01*
X161476D01*
Y-167967D01*
X155524D01*
Y-164402D01*
X155029D01*
Y-160740D01*
X156823D01*
Y-153340D01*
X158263Y-151900D01*
X158977D01*
X159860Y-151535D01*
X160335Y-151767D01*
D02*
G37*
G36*
X156000Y-276500D02*
X150000Y-282500D01*
X109000D01*
X105000Y-278500D01*
X105381Y-272026D01*
X105848Y-271848D01*
X113500Y-279500D01*
X147500D01*
X151500Y-275500D01*
Y-262500D01*
X151462Y-262462D01*
X151653Y-262000D01*
X156000D01*
Y-276500D01*
D02*
G37*
G36*
X182500Y-272842D02*
X182000Y-272892D01*
X181965Y-272715D01*
X181913Y-272454D01*
X181581Y-271958D01*
X181467Y-271844D01*
X180971Y-271512D01*
X180386Y-271396D01*
X179800Y-271512D01*
X179304Y-271844D01*
X178973Y-272340D01*
X178856Y-272925D01*
X178973Y-273511D01*
X179304Y-274007D01*
X179419Y-274121D01*
X179915Y-274452D01*
X180500Y-274569D01*
X181085Y-274452D01*
X181581Y-274121D01*
X181913Y-273625D01*
X181965Y-273364D01*
X182000Y-273187D01*
X182500Y-273236D01*
Y-295000D01*
X183636Y-296364D01*
X186000Y-294000D01*
X234500D01*
X236000Y-295500D01*
Y-305471D01*
X235008D01*
X233081Y-303544D01*
X232585Y-303213D01*
X232000Y-303097D01*
X231512Y-303194D01*
X231415Y-303213D01*
X230919Y-303544D01*
X229045Y-305419D01*
X228713Y-305915D01*
X228597Y-306500D01*
X228713Y-307085D01*
X229045Y-307581D01*
X229541Y-307913D01*
X230126Y-308029D01*
X230711Y-307913D01*
X231207Y-307581D01*
X232000Y-306789D01*
X233293Y-308081D01*
X233789Y-308413D01*
X234374Y-308529D01*
X236000D01*
Y-313500D01*
X228000D01*
X217000Y-302500D01*
X181000D01*
X180500Y-303000D01*
X180000Y-303500D01*
Y-309118D01*
X179622Y-309446D01*
X176500Y-309000D01*
Y-303500D01*
X178000Y-302000D01*
Y-289500D01*
X176000Y-287500D01*
X167500D01*
X165000Y-290000D01*
X150000D01*
X147500Y-292500D01*
X158500Y-303500D01*
Y-305594D01*
X158000Y-305746D01*
X157781Y-305419D01*
X157285Y-305087D01*
X156700Y-304971D01*
X156115Y-305087D01*
X155619Y-305419D01*
X155462Y-305575D01*
X155000Y-305384D01*
Y-304000D01*
X144000Y-293000D01*
X110000D01*
X105462Y-297538D01*
X105000Y-297347D01*
Y-295372D01*
X105585Y-295255D01*
X106081Y-294924D01*
X107924Y-293081D01*
X108256Y-292585D01*
X108372Y-292000D01*
X108256Y-291415D01*
X107978Y-291000D01*
X108070Y-290694D01*
X108197Y-290500D01*
X145500D01*
X148500Y-287500D01*
X161000D01*
X165000Y-283500D01*
Y-262000D01*
X169000D01*
Y-282500D01*
X170500Y-284000D01*
X177500D01*
X178000Y-283500D01*
Y-262000D01*
X182500D01*
Y-272842D01*
D02*
G37*
G36*
X219000Y-238000D02*
X201000Y-256000D01*
Y-286136D01*
X200636Y-286479D01*
X192500Y-286000D01*
Y-259500D01*
X190500Y-257500D01*
X167000D01*
X162500Y-262000D01*
Y-273500D01*
X158000D01*
Y-261500D01*
X169000Y-250500D01*
X189500D01*
X192500Y-247500D01*
Y-227500D01*
X203500Y-216500D01*
X219000D01*
Y-238000D01*
D02*
G37*
G36*
X176980Y-289922D02*
Y-301578D01*
X175779Y-302779D01*
X175631Y-303000D01*
X174967D01*
Y-297427D01*
X175472Y-296922D01*
X175838Y-296040D01*
Y-295085D01*
X175472Y-294203D01*
X174797Y-293528D01*
X173915Y-293162D01*
X172960D01*
X172078Y-293528D01*
X171403Y-294203D01*
X171037Y-295085D01*
Y-296040D01*
X171403Y-296922D01*
X171908Y-297427D01*
Y-303000D01*
X171029D01*
Y-302500D01*
X170913Y-301915D01*
X170581Y-301419D01*
X169681Y-300518D01*
Y-300066D01*
X169349Y-299265D01*
X168736Y-298651D01*
X167934Y-298319D01*
X167066D01*
X166264Y-298651D01*
X165651Y-299265D01*
X165319Y-300066D01*
Y-300934D01*
X165651Y-301735D01*
X166264Y-302349D01*
X166629Y-302500D01*
X166530Y-303000D01*
X164020D01*
Y-295500D01*
X163942Y-295110D01*
X163900Y-295047D01*
Y-295023D01*
X163535Y-294141D01*
X162859Y-293465D01*
X161977Y-293100D01*
X161023D01*
X160141Y-293465D01*
X159465Y-294141D01*
X159100Y-295023D01*
Y-295047D01*
X159058Y-295110D01*
X158980Y-295500D01*
Y-301885D01*
X158519Y-302077D01*
X148942Y-292500D01*
X150422Y-291020D01*
X165000D01*
X165390Y-290942D01*
X165721Y-290721D01*
X167922Y-288520D01*
X175578D01*
X176980Y-289922D01*
D02*
G37*
G36*
X163000Y-309000D02*
X160000D01*
Y-295500D01*
X163000D01*
Y-309000D01*
D02*
G37*
G36*
X180900Y-310000D02*
X181267Y-310321D01*
X181397Y-310972D01*
X181784Y-311551D01*
X182362Y-311938D01*
X182978Y-312060D01*
Y-318477D01*
X182355Y-318601D01*
X181776Y-318988D01*
X181389Y-319567D01*
X181253Y-320250D01*
Y-320971D01*
X153747D01*
Y-320250D01*
X153611Y-319567D01*
X153224Y-318988D01*
X152645Y-318601D01*
X152029Y-318479D01*
Y-312059D01*
X152638Y-311938D01*
X153216Y-311551D01*
X153603Y-310972D01*
X153733Y-310321D01*
X154100Y-310000D01*
X159901D01*
X160000Y-310020D01*
X163000D01*
X163099Y-310000D01*
X176329D01*
X176356Y-310009D01*
X179478Y-310455D01*
X179515Y-310453D01*
X179550Y-310463D01*
X179712Y-310443D01*
X179875Y-310434D01*
X179908Y-310418D01*
X179945Y-310413D01*
X180087Y-310332D01*
X180234Y-310262D01*
X180259Y-310234D01*
X180290Y-310216D01*
X180540Y-310000D01*
X180900Y-310000D01*
D02*
G37*
%LPC*%
G36*
X243434Y-85319D02*
X242566D01*
X241764Y-85651D01*
X241151Y-86264D01*
X240819Y-87066D01*
Y-87518D01*
X232518Y-95819D01*
X232066D01*
X231264Y-96151D01*
X230651Y-96764D01*
X230319Y-97566D01*
Y-98434D01*
X230651Y-99235D01*
X231264Y-99849D01*
X232066Y-100181D01*
X232934D01*
X233735Y-99849D01*
X234349Y-99235D01*
X234681Y-98434D01*
Y-97982D01*
X242982Y-89681D01*
X243434D01*
X244235Y-89349D01*
X244849Y-88736D01*
X245181Y-87934D01*
Y-87066D01*
X244849Y-86264D01*
X244235Y-85651D01*
X243434Y-85319D01*
D02*
G37*
G36*
X232934Y-108819D02*
X232066D01*
X231264Y-109151D01*
X230651Y-109765D01*
X230319Y-110566D01*
Y-111434D01*
X230651Y-112235D01*
X230971Y-112555D01*
Y-120945D01*
X230651Y-121265D01*
X230319Y-122066D01*
Y-122934D01*
X230651Y-123735D01*
X231264Y-124349D01*
X232066Y-124681D01*
X232934D01*
X233735Y-124349D01*
X234349Y-123735D01*
X234681Y-122934D01*
Y-122066D01*
X234349Y-121265D01*
X234029Y-120945D01*
Y-112555D01*
X234349Y-112235D01*
X234681Y-111434D01*
Y-110566D01*
X234349Y-109765D01*
X233735Y-109151D01*
X232934Y-108819D01*
D02*
G37*
G36*
X188472Y-214366D02*
X145528D01*
Y-247862D01*
X188472D01*
Y-214366D01*
D02*
G37*
G36*
X132527Y-245000D02*
X131473D01*
X130456Y-245273D01*
X129544Y-245799D01*
X128799Y-246544D01*
X128273Y-247456D01*
X128000Y-248473D01*
Y-249527D01*
X128273Y-250544D01*
X128799Y-251456D01*
X129544Y-252201D01*
X130456Y-252727D01*
X131473Y-253000D01*
X132527D01*
X133544Y-252727D01*
X134456Y-252201D01*
X135201Y-251456D01*
X135727Y-250544D01*
X136000Y-249527D01*
Y-248473D01*
X135727Y-247456D01*
X135201Y-246544D01*
X134456Y-245799D01*
X133544Y-245273D01*
X132527Y-245000D01*
D02*
G37*
G36*
X258764Y-216173D02*
X241606D01*
Y-217038D01*
X241558Y-217110D01*
X241480Y-217500D01*
Y-245578D01*
X226779Y-260279D01*
X226558Y-260610D01*
X226480Y-261000D01*
X226558Y-261390D01*
X226779Y-261721D01*
X227260Y-262202D01*
Y-265298D01*
X220279Y-272279D01*
X220058Y-272610D01*
X220018Y-272809D01*
X219640Y-272965D01*
X218965Y-273640D01*
X218600Y-274523D01*
Y-275477D01*
X218965Y-276360D01*
X219640Y-277035D01*
X220018Y-277191D01*
X220058Y-277390D01*
X220279Y-277721D01*
X222279Y-279721D01*
X222610Y-279942D01*
X223000Y-280020D01*
X227260D01*
Y-280035D01*
X227655D01*
X227779Y-280221D01*
X228110Y-280442D01*
X228500Y-280520D01*
X236000D01*
X236390Y-280442D01*
X236721Y-280221D01*
X236922Y-280020D01*
X237000D01*
X237390Y-279942D01*
X237721Y-279721D01*
X237942Y-279390D01*
X238020Y-279000D01*
Y-278922D01*
X258721Y-258221D01*
X258942Y-257890D01*
X259020Y-257500D01*
Y-217653D01*
X258942Y-217263D01*
X258764Y-216996D01*
Y-216173D01*
D02*
G37*
%LPD*%
G36*
X258000Y-217653D02*
Y-257500D01*
X237000Y-278500D01*
Y-279000D01*
X236500D01*
X236000Y-279500D01*
X228500D01*
Y-279000D01*
X223000D01*
X221000Y-277000D01*
Y-273000D01*
X228500Y-265500D01*
Y-262000D01*
X227500Y-261000D01*
X242500Y-246000D01*
Y-217500D01*
X257500D01*
X257538Y-217462D01*
X258000Y-217653D01*
D02*
G37*
%LPC*%
G36*
X322477Y-222100D02*
X321523D01*
X320640Y-222465D01*
X320135Y-222971D01*
X305865D01*
X305360Y-222465D01*
X304477Y-222100D01*
X303523D01*
X302641Y-222465D01*
X301965Y-223141D01*
X301600Y-224023D01*
Y-224977D01*
X301965Y-225859D01*
X302641Y-226535D01*
X303523Y-226900D01*
X304477D01*
X305360Y-226535D01*
X305865Y-226029D01*
X320135D01*
X320640Y-226535D01*
X321523Y-226900D01*
X322477D01*
X323359Y-226535D01*
X324035Y-225859D01*
X324400Y-224977D01*
Y-224023D01*
X324035Y-223141D01*
X323359Y-222465D01*
X322477Y-222100D01*
D02*
G37*
G36*
X153614Y-266396D02*
X153029Y-266512D01*
X152533Y-266844D01*
X152201Y-267340D01*
X152085Y-267925D01*
Y-271886D01*
X152201Y-272471D01*
X152533Y-272967D01*
X153029Y-273299D01*
X153614Y-273415D01*
X154199Y-273299D01*
X154696Y-272967D01*
X155027Y-272471D01*
X155144Y-271886D01*
Y-267925D01*
X155027Y-267340D01*
X154696Y-266844D01*
X154199Y-266512D01*
X153614Y-266396D01*
D02*
G37*
%LPD*%
D12*
X173438Y-306437D02*
Y-295563D01*
X268500Y-307000D02*
X315500D01*
X234374D02*
X268500D01*
X276500Y-299000D01*
Y-290500D01*
X173438Y-306437D02*
X173500Y-306500D01*
X173438Y-295563D02*
X173500Y-295500D01*
X138500Y-303965D02*
X141465Y-301000D01*
X146000D01*
X167500Y-300500D02*
X169500Y-302500D01*
Y-306500D02*
Y-302500D01*
X165500Y-306500D02*
X169500D01*
X138500Y-311937D02*
X146595D01*
X150492Y-308039D01*
X155161D02*
X156700Y-306500D01*
X150492Y-308039D02*
X155161D01*
X390000Y-131500D02*
X430315D01*
X370815D02*
X390000D01*
X382500Y-124000D02*
X390000Y-131500D01*
X382500Y-124000D02*
Y-114500D01*
X351811Y-141980D02*
X372500Y-121291D01*
Y-114500D01*
X336988Y-140012D02*
X362500Y-114500D01*
X272732Y-140012D02*
X336988D01*
X150492Y-308039D02*
X150500Y-308047D01*
Y-322500D02*
Y-308047D01*
Y-322500D02*
X184500D01*
X184508Y-322492D01*
Y-308039D01*
X232500Y-122500D02*
Y-111000D01*
Y-98000D02*
X243000Y-87500D01*
X208500Y-76500D02*
X209000Y-77000D01*
X205000Y-76500D02*
X208500D01*
X202457Y-73957D02*
X205000Y-76500D01*
X202457Y-73957D02*
Y-67768D01*
X140988Y-100500D02*
X146500D01*
X174000Y-100760D02*
Y-99000D01*
X172620Y-101000D02*
X173000Y-101380D01*
X167500Y-101000D02*
X172620D01*
X165500D02*
X167500D01*
X163500Y-103000D02*
X165500Y-101000D01*
X163500Y-134500D02*
Y-111500D01*
X159259Y-108819D02*
X172927D01*
X173000Y-108892D01*
X159186D02*
X159259Y-108819D01*
X163500Y-134500D02*
X169240Y-140240D01*
X172500D01*
X203500Y-144000D02*
X204425Y-144925D01*
Y-151232D02*
Y-144925D01*
X202500Y-141000D02*
X204292D01*
X206181Y-142889D01*
Y-143681D02*
X206394Y-143894D01*
X206181Y-143681D02*
Y-142889D01*
X224000Y-141000D02*
X227500D01*
X231984Y-145484D01*
Y-151232D02*
Y-145484D01*
X255500Y-142500D02*
X259543Y-146543D01*
Y-151232D02*
Y-146543D01*
X264500Y-127000D02*
Y-123500D01*
Y-127000D02*
X267669Y-130169D01*
X272732D01*
X263500Y-120500D02*
Y-115500D01*
X260819Y-115181D02*
X265516Y-110484D01*
X260819Y-125866D02*
X267369Y-132416D01*
X260819Y-125866D02*
Y-115181D01*
X263500Y-115500D02*
X266547Y-112453D01*
X272732D01*
X264500Y-87000D02*
X268575Y-82925D01*
X272732D01*
X247732Y-73232D02*
X252000Y-77500D01*
X247732Y-73232D02*
Y-67768D01*
X228325D02*
Y-63524D01*
X232500Y-78000D02*
X234500D01*
X228047Y-73547D02*
X232500Y-78000D01*
X228047Y-73547D02*
Y-67768D01*
X203240Y-45500D02*
Y-41260D01*
Y-51500D02*
Y-45500D01*
X168240Y-83760D02*
X169760D01*
X173000D01*
X164500Y-78500D02*
X169760Y-83760D01*
X199500Y-45500D02*
X203240D01*
X196000Y-53051D02*
X196655Y-52396D01*
X195760Y-51500D02*
X196260Y-52000D01*
X195760Y-51500D02*
Y-43740D01*
X203240Y-51500D02*
X203740Y-52000D01*
X165000Y-98500D02*
X167500Y-101000D01*
X165000Y-98500D02*
Y-87000D01*
X168240Y-83760D01*
X196642Y-100642D02*
X199000Y-103000D01*
X189268Y-100642D02*
X196642D01*
X199453Y-106547D02*
X199500Y-106500D01*
X189268Y-106547D02*
X199453D01*
X197500Y-140000D02*
X198000Y-139500D01*
X200000Y-143500D02*
X202500Y-141000D01*
X193511Y-142258D02*
X194753Y-143500D01*
X200000Y-135500D02*
X202500Y-138000D01*
X196343Y-135500D02*
X200000D01*
X194753Y-143500D02*
X200000D01*
X195768Y-136075D02*
X196343Y-135500D01*
X189268Y-136075D02*
X195768D01*
X196500Y-140000D02*
X197500D01*
X196488Y-140012D02*
X196500Y-140000D01*
X189268Y-140012D02*
X196488D01*
X236740Y-172760D02*
Y-161000D01*
X189546Y-142258D02*
X193511D01*
X189268Y-141980D02*
X189546Y-142258D01*
X202500Y-141000D02*
Y-138000D01*
X212287D02*
X227500D01*
X206394Y-143894D02*
X212287Y-138000D01*
X206394Y-151232D02*
Y-144394D01*
X199500Y-131000D02*
Y-127500D01*
X343500Y-70000D02*
Y-69500D01*
X337500Y-63500D02*
X343500Y-69500D01*
X276165Y-52500D02*
X290500D01*
X451000Y-107000D02*
Y-92000D01*
X429000Y-70000D02*
X451000Y-92000D01*
X383500Y-70000D02*
X429000D01*
X431000Y-112000D02*
Y-108551D01*
Y-112000D02*
X433500Y-114500D01*
X443500D01*
X451000Y-107000D01*
X477500Y-230500D02*
X486500Y-221500D01*
X471000Y-230500D02*
X477500D01*
X274000Y-52500D02*
Y-47500D01*
X282551Y-38949D01*
X297000D01*
Y-56000D02*
X309500Y-68500D01*
X297000Y-56000D02*
Y-45051D01*
X415590Y-108551D02*
X431000D01*
X415500Y-108642D02*
X415590Y-108551D01*
X415410D02*
X415500Y-108642D01*
X401000Y-108551D02*
X415410D01*
X431000Y-102449D02*
Y-94000D01*
X423000Y-86000D02*
X431000Y-94000D01*
X397000Y-86000D02*
X423000D01*
X391000Y-80000D02*
X397000Y-86000D01*
X383500Y-80000D02*
X391000D01*
X415500Y-101358D02*
Y-96500D01*
X409500Y-90500D02*
X415500Y-96500D01*
X378500Y-90500D02*
X409500D01*
X373500Y-85500D02*
X378500Y-90500D01*
X373500Y-85500D02*
Y-80000D01*
X401000Y-102449D02*
Y-101000D01*
X397000Y-97000D02*
X401000Y-101000D01*
X370500Y-97000D02*
X397000D01*
X363500Y-90000D02*
X370500Y-97000D01*
X363500Y-90000D02*
Y-89000D01*
Y-70000D02*
Y-68500D01*
X359000Y-64000D02*
X363500Y-68500D01*
X349500Y-64000D02*
X359000D01*
X343500Y-70000D02*
X349500Y-64000D01*
X363500Y-70000D02*
X373500D01*
X334500Y-228095D02*
Y-221000D01*
X334000Y-220500D02*
X334500Y-221000D01*
X291595Y-216094D02*
X350000D01*
X307000Y-201500D02*
Y-178000D01*
X295000Y-166000D02*
X307000Y-178000D01*
X274240Y-166000D02*
X295000D01*
X277862Y-86862D02*
X281000Y-90000D01*
X272732Y-86862D02*
X277862D01*
X281894Y-84894D02*
X289500Y-92500D01*
X272732Y-84894D02*
X281894D01*
X304220Y-73780D02*
X309500Y-68500D01*
X285224Y-73780D02*
X304220D01*
X283953Y-75051D02*
X285224Y-73780D01*
X272732Y-75051D02*
X283953D01*
X272732Y-77020D02*
X284247D01*
X285887Y-75380D01*
X304882D01*
X306763Y-73500D01*
X336500D01*
X369000Y-75500D02*
X373500Y-80000D01*
X338500Y-75500D02*
X369000D01*
X336500Y-73500D02*
X338500Y-75500D01*
X363500Y-89000D02*
Y-80000D01*
X203000Y-81000D02*
X222657D01*
X226079Y-77578D01*
X221000Y-77000D02*
X224110Y-73890D01*
Y-67768D01*
X226079Y-77578D02*
Y-76579D01*
X343500Y-87500D02*
Y-80000D01*
X330000Y-101000D02*
X343500Y-87500D01*
X260000Y-53047D02*
X260547Y-52500D01*
X260000Y-56500D02*
Y-53047D01*
Y-56500D02*
X262000Y-58500D01*
X273500D01*
X276165Y-55835D01*
Y-52500D01*
X243260D02*
X243500Y-52260D01*
Y-48000D01*
X246500Y-45000D01*
X263500D01*
X266453Y-47953D01*
Y-52500D02*
Y-47953D01*
X250740Y-52500D02*
X260547D01*
X266453D02*
X274000D01*
X231466Y-62534D02*
X233740Y-60260D01*
X229315Y-62534D02*
X231466D01*
X228325Y-63524D02*
X229315Y-62534D01*
X203173Y-98673D02*
X204000Y-97846D01*
Y-92000D01*
X200831Y-88831D02*
X204000Y-92000D01*
X195169Y-88831D02*
X200831D01*
X189268D02*
X195169D01*
X203000Y-81000D01*
X198520Y-76520D02*
X203000Y-81000D01*
X214268Y-76768D02*
X214500Y-77000D01*
X214268Y-76768D02*
Y-67768D01*
X198520Y-76520D02*
Y-67768D01*
X243028Y-81000D02*
X245764Y-78264D01*
X230500Y-81000D02*
X243028D01*
X226079Y-76579D02*
X230500Y-81000D01*
X226079Y-76579D02*
Y-67768D01*
X261000Y-86000D02*
X266043Y-80957D01*
X260500Y-86500D02*
X261000Y-86000D01*
X253500D02*
X261000D01*
X245764Y-78264D02*
X253500Y-86000D01*
X245764Y-78264D02*
Y-67768D01*
X203173Y-98673D02*
X206000Y-101500D01*
Y-107500D02*
Y-101500D01*
X203016Y-110484D02*
X206000Y-107500D01*
X189268Y-98673D02*
X203173D01*
X189268Y-110484D02*
X203016D01*
X257000Y-138000D02*
X261000Y-142000D01*
Y-138785D02*
X267369Y-132416D01*
X261000Y-142000D02*
Y-138785D01*
Y-142000D02*
X263500Y-144500D01*
X266043Y-80957D02*
X272732D01*
X260500Y-105468D02*
Y-86500D01*
Y-105468D02*
X265516Y-110484D01*
X272732D01*
X272454Y-132416D02*
X272732Y-132138D01*
X267369Y-132416D02*
X272454D01*
X263480Y-151232D02*
X263500Y-151213D01*
Y-144500D01*
X240406Y-138000D02*
X257000D01*
X233953Y-144453D02*
X240406Y-138000D01*
X233953Y-151232D02*
Y-144453D01*
X227500Y-138000D02*
X233953Y-144453D01*
X188990Y-96427D02*
X189268Y-96705D01*
X185024Y-96427D02*
X188990D01*
X189161Y-85000D02*
X189268Y-84894D01*
X183500Y-85000D02*
X189161D01*
X182260Y-83760D02*
X183500Y-85000D01*
X173000Y-83760D02*
X182260D01*
X183669Y-88831D02*
X185638Y-86862D01*
X189268D01*
X183669Y-88831D02*
X189268D01*
X181260Y-91240D02*
X183669Y-88831D01*
X173000Y-91240D02*
X181260D01*
X209240Y-164000D02*
X209740Y-164500D01*
X209240Y-164000D02*
Y-160000D01*
X201760Y-164000D02*
X202260Y-164500D01*
X201760Y-164000D02*
Y-160000D01*
X153500Y-166504D02*
Y-154579D01*
X189268Y-122295D02*
X189472Y-122500D01*
X201000D01*
X153657Y-154342D02*
X158500Y-149500D01*
X153657Y-156000D02*
Y-154342D01*
X157600Y-145100D02*
X182549D01*
X152012Y-139512D02*
X157600Y-145100D01*
X163421Y-166429D02*
Y-154500D01*
X189268Y-124264D02*
X189504Y-124500D01*
X196500D01*
X199500Y-127500D01*
X174000Y-156000D02*
X179000Y-151000D01*
X163500Y-156000D02*
X174000D01*
X189248Y-77000D02*
X189268Y-77020D01*
X182500Y-77000D02*
X189248D01*
X180500Y-75000D02*
X182500Y-77000D01*
X93500Y-75000D02*
X180500D01*
X70500Y-98000D02*
X93500Y-75000D01*
X70500Y-117500D02*
Y-98000D01*
X79000Y-131000D02*
X79216Y-131217D01*
X88500D01*
X113303Y-185197D02*
Y-176500D01*
X109500Y-189000D02*
X113303Y-185197D01*
X67000Y-149000D02*
Y-132000D01*
X78216Y-120783D01*
X88500D01*
X113142Y-141500D02*
X120500D01*
X108500Y-136858D02*
X113142Y-141500D01*
X108500Y-142500D02*
Y-136858D01*
Y-131217D01*
X218205Y-67768D02*
Y-43295D01*
X107500Y-119783D02*
X108500Y-120783D01*
X107500Y-119783D02*
Y-103500D01*
X123000Y-88000D01*
X148000D01*
X152012Y-92012D01*
Y-100500D02*
Y-92012D01*
X213000Y-49000D02*
X216236Y-52236D01*
X87500Y-182500D02*
X88500Y-181500D01*
X87500Y-194000D02*
Y-182500D01*
Y-194000D02*
X93500Y-200000D01*
X98500D01*
X242500Y-30500D02*
Y-27000D01*
X239000Y-34000D02*
X242500Y-30500D01*
X232500Y-29000D02*
Y-27000D01*
X218205Y-43295D02*
X232500Y-29000D01*
X180500Y-140240D02*
X180728Y-140012D01*
X172500Y-140240D02*
X180500D01*
X266740Y-166020D02*
Y-164220D01*
X229497Y-164500D02*
Y-158503D01*
X180728Y-140012D02*
X182697Y-138043D01*
X180728Y-140012D02*
X189268D01*
X172500Y-132760D02*
X179500D01*
X189000Y-126500D02*
X189268Y-126232D01*
X181500Y-126500D02*
X189000D01*
X178500Y-123500D02*
X181500Y-126500D01*
X178000Y-123500D02*
X178500D01*
X152012Y-139512D02*
Y-121500D01*
X189252Y-110500D02*
X189268Y-110484D01*
X182000Y-110500D02*
X189252D01*
X179740Y-108240D02*
X182000Y-110500D01*
X173000Y-108240D02*
X179740D01*
X174000Y-102000D02*
X184034D01*
X185024Y-100920D02*
X188990D01*
X184034Y-101910D02*
X185024Y-100920D01*
X184034Y-102000D02*
Y-101910D01*
X181579Y-104579D02*
X189268D01*
X174000Y-99000D02*
X178500Y-94500D01*
X183097D01*
X185024Y-96427D01*
X174000Y-102000D02*
X176579Y-104579D01*
X181579D01*
X188990Y-100920D02*
X189268Y-100642D01*
X185516Y-108516D02*
X189268D01*
X183547Y-106547D02*
X185516Y-108516D01*
X183547Y-106547D02*
X189268D01*
X181579Y-104579D02*
X183547Y-106547D01*
X278256Y-176000D02*
Y-173256D01*
X276500Y-171500D02*
X278256Y-173256D01*
X272260Y-171500D02*
X276500D01*
X266760Y-166000D02*
X272260Y-171500D01*
X274240Y-166000D02*
Y-164240D01*
X270500Y-176000D02*
X272744D01*
X281000Y-134740D02*
X289000D01*
X281000Y-127260D02*
X289000D01*
X286386Y-115886D02*
X297500D01*
X284000Y-104000D02*
X295000D01*
X297000Y-102000D01*
X293000Y-106000D02*
X295000Y-104000D01*
X285000Y-106000D02*
X293000D01*
X283000Y-102000D02*
X297000D01*
X243260Y-58000D02*
Y-52500D01*
X250740Y-58000D02*
Y-52500D01*
X233740Y-53000D02*
X234240Y-52500D01*
X233740Y-60260D02*
Y-53000D01*
X226260D02*
X226760Y-52500D01*
X226260Y-67587D02*
Y-53000D01*
X196000Y-55500D02*
Y-53051D01*
Y-55500D02*
X196551Y-56051D01*
Y-59791D02*
Y-56051D01*
X203740Y-55260D02*
Y-52000D01*
X202457Y-56543D02*
X203740Y-55260D01*
X202457Y-59784D02*
Y-56543D01*
X213000Y-49000D02*
X213500D01*
X203240Y-41260D02*
X210000Y-34500D01*
X216236Y-67768D02*
Y-52236D01*
X236977Y-161000D02*
Y-159477D01*
X245764Y-67768D02*
Y-60504D01*
X98500Y-120783D02*
X108500D01*
X102500Y-148500D02*
X108500Y-142500D01*
X88500Y-120783D02*
X98500D01*
X105500Y-166500D02*
X113303D01*
X105000Y-167000D02*
X105500Y-166500D01*
X102500Y-164500D02*
X105000Y-167000D01*
X102500Y-164500D02*
Y-148500D01*
X88500Y-181500D02*
X98000D01*
X98500Y-181000D01*
Y-131217D01*
X88500Y-161500D02*
Y-131217D01*
X82500Y-252500D02*
X141000Y-194000D01*
X74500Y-260500D02*
X82500Y-252500D01*
Y-209500D01*
X73500Y-200500D02*
X82500Y-209500D01*
X73500Y-200500D02*
Y-177000D01*
X79000Y-171500D01*
X88500D01*
X140988Y-140500D02*
Y-121500D01*
Y-193988D02*
Y-140500D01*
X124988Y-156500D02*
X140988Y-140500D01*
X113303Y-156500D02*
X124988D01*
X272732Y-141980D02*
X351811D01*
X210000Y-34500D02*
X215000D01*
X222500Y-27000D01*
X195760Y-43740D02*
X212500Y-27000D01*
X73603Y-221209D02*
X73744Y-221351D01*
X56500Y-221209D02*
X73603D01*
X73638Y-242862D02*
X74000Y-242500D01*
X56500Y-242862D02*
X73638D01*
X56500Y-274000D02*
Y-242862D01*
X302453Y-84453D02*
X304500Y-86500D01*
X289000Y-84453D02*
X302453D01*
X289500Y-92500D02*
X296500D01*
X304012D02*
X304500Y-92012D01*
X296500Y-92500D02*
X304012D01*
X204425Y-63802D02*
X210114Y-58114D01*
X204425Y-67768D02*
Y-63802D01*
X272732Y-80957D02*
X284957D01*
X285000Y-81000D01*
X286547D01*
X288559Y-78988D01*
X272732D02*
X288559D01*
X266740Y-166020D02*
X266760Y-166000D01*
X257575Y-163075D02*
X270500Y-176000D01*
X257575Y-163075D02*
Y-151232D01*
X264000Y-156500D02*
X266500D01*
X263000D02*
X264000D01*
X263480Y-155980D02*
X264000Y-156500D01*
X263480Y-155980D02*
Y-151232D01*
X266500Y-156500D02*
X274240Y-164240D01*
X261512Y-155012D02*
X263000Y-156500D01*
X261512Y-155012D02*
Y-151232D01*
X259543Y-157024D02*
X266740Y-164220D01*
X259543Y-157024D02*
Y-151232D01*
X183700Y-143949D02*
X189268D01*
X182549Y-145100D02*
X183700Y-143949D01*
X159186Y-108892D02*
Y-104186D01*
X155500Y-100500D02*
X159186Y-104186D01*
X152012Y-100500D02*
X155500D01*
X152012Y-121500D02*
X155000D01*
X159186Y-117314D01*
Y-112829D01*
X140988Y-121500D02*
Y-100500D01*
X141000Y-194000D02*
X163500Y-171500D01*
X140988Y-193988D02*
X141000Y-194000D01*
X163500Y-169500D02*
Y-169496D01*
Y-171500D02*
Y-169500D01*
X287472Y-82925D02*
X289000Y-84453D01*
X187000Y-142000D02*
X187020Y-141980D01*
X189268D01*
X182697Y-138043D02*
X189268D01*
X182815Y-136075D02*
X189268D01*
X179500Y-132760D02*
X182815Y-136075D01*
X196551Y-59791D02*
X198520Y-61760D01*
X196551Y-67768D02*
Y-59791D01*
X198520Y-67768D02*
Y-61760D01*
X200488Y-61752D02*
X202457Y-59784D01*
Y-67768D02*
Y-59784D01*
X200488Y-67768D02*
Y-61752D01*
X226079Y-67768D02*
X226260Y-67587D01*
X228047Y-67768D02*
X228325D01*
X243260Y-58000D02*
X245764Y-60504D01*
X247732Y-61008D02*
X250740Y-58000D01*
X247732Y-67768D02*
Y-61008D01*
X272732Y-112453D02*
X282953D01*
X286386Y-115886D01*
X280516Y-110484D02*
X285000Y-106000D01*
X272732Y-110484D02*
X280516D01*
X279484Y-108516D02*
X284000Y-104000D01*
X272732Y-108516D02*
X279484D01*
X278453Y-106547D02*
X283000Y-102000D01*
X272732Y-106547D02*
X278453D01*
X272732Y-82925D02*
X287472D01*
X278091Y-130169D02*
X281000Y-127260D01*
X272732Y-130169D02*
X278091D01*
X278398Y-132138D02*
X281000Y-134740D01*
X272732Y-132138D02*
X278398D01*
X206394Y-157153D02*
X209240Y-160000D01*
X206394Y-157153D02*
Y-151232D01*
X201760Y-160000D02*
X204425Y-157335D01*
Y-151232D01*
X272500Y-182000D02*
X296500D01*
X255606Y-165106D02*
X272500Y-182000D01*
X255606Y-165106D02*
Y-151232D01*
X287000Y-202000D02*
X290000D01*
X253638Y-168638D02*
X287000Y-202000D01*
X253638Y-168638D02*
Y-151232D01*
X237240Y-164500D02*
Y-162527D01*
X233953Y-156453D02*
X236977Y-159477D01*
X233953Y-156453D02*
Y-151232D01*
X229497Y-158503D02*
X231984Y-156016D01*
Y-151232D01*
X451000Y-241811D02*
X451689Y-242500D01*
X477000D01*
X495000Y-224500D01*
Y-214000D01*
X247732Y-172232D02*
Y-151232D01*
Y-172232D02*
X291595Y-216094D01*
X245764Y-173264D02*
X334315Y-261815D01*
X245764Y-173264D02*
Y-151232D01*
X243795Y-181795D02*
Y-151232D01*
X411000Y-228405D02*
X449405D01*
X391500Y-228594D02*
X410811D01*
X304000Y-224500D02*
X322000D01*
X243795Y-181795D02*
X286500Y-224500D01*
X377000Y-240500D02*
X377095Y-240406D01*
X391500D01*
X435000Y-220000D02*
X451158Y-203842D01*
Y-191842D01*
X379000Y-209500D02*
X392000Y-196500D01*
Y-189500D01*
X289000Y-210000D02*
X326500D01*
X249701Y-170701D02*
X289000Y-210000D01*
X249701Y-170701D02*
Y-151232D01*
X222000Y-187500D02*
X236740Y-172760D01*
X165000Y-187500D02*
X222000D01*
X132000Y-220500D02*
X165000Y-187500D01*
X132000Y-239000D02*
Y-220500D01*
X512500Y-201500D02*
Y-166000D01*
Y-279000D02*
Y-201500D01*
X483157Y-172158D02*
X512500Y-201500D01*
X470843Y-172158D02*
X483157D01*
X430315Y-131500D02*
X478000D01*
X392000Y-169815D02*
X430315Y-131500D01*
X330658Y-171658D02*
X370815Y-131500D01*
X478000D02*
X512500Y-166000D01*
X484500Y-307000D02*
X512500Y-279000D01*
X427500Y-307000D02*
X484500D01*
X330500Y-191500D02*
X330658Y-191342D01*
X318000Y-191500D02*
X330500D01*
X313000Y-186500D02*
X318000Y-191500D01*
X313000Y-186500D02*
Y-182501D01*
X350000Y-216094D02*
X350342Y-215752D01*
Y-191342D01*
X330658D02*
X350342D01*
X391500Y-190000D02*
X392000Y-189500D01*
X378000Y-190000D02*
X391500D01*
X372500Y-184500D02*
X378000Y-190000D01*
X372500Y-184500D02*
Y-181001D01*
X439342Y-191842D02*
X451158D01*
X434500Y-187000D02*
X439342Y-191842D01*
X434500Y-187000D02*
Y-183001D01*
X451000Y-172000D02*
X451158Y-172158D01*
X439500Y-172000D02*
X451000D01*
X434500Y-177000D02*
X439500Y-172000D01*
X434500Y-181000D02*
Y-177000D01*
X378685Y-169815D02*
X392000D01*
X372500Y-176000D02*
X378685Y-169815D01*
X372500Y-179000D02*
Y-176000D01*
X330658Y-171658D02*
X350342D01*
X317843D02*
X330658D01*
X313000Y-176500D02*
X317843Y-171658D01*
X313000Y-180500D02*
Y-176500D01*
X392000Y-169815D02*
X411685D01*
X451158Y-172158D02*
X470843D01*
X451158Y-191842D02*
X470843D01*
X392000Y-189500D02*
X411685D01*
X411000Y-216595D02*
X411685Y-215910D01*
Y-189500D01*
X470843Y-191842D02*
X471000Y-192000D01*
Y-218689D02*
Y-192000D01*
X470500Y-230000D02*
X471000Y-230500D01*
X451000Y-230000D02*
X470500D01*
X449405Y-228405D02*
X451000Y-230000D01*
X390811Y-227906D02*
X391500Y-228594D01*
X350000Y-227906D02*
X390811D01*
X410811Y-228594D02*
X411000Y-228405D01*
X334689Y-227906D02*
X350000D01*
X334500Y-228095D02*
X334689Y-227906D01*
X470685Y-263815D02*
X470870Y-264000D01*
X483500D01*
X489000Y-269500D01*
Y-272500D02*
Y-269500D01*
Y-278500D02*
Y-274700D01*
X484000Y-283500D02*
X489000Y-278500D01*
X470685Y-283500D02*
X484000D01*
X451000Y-263815D02*
Y-242406D01*
X410843Y-263657D02*
X411000Y-263500D01*
X424500D01*
X428500Y-267500D01*
Y-272499D02*
Y-267500D01*
Y-279000D02*
Y-274699D01*
X424157Y-283343D02*
X428500Y-279000D01*
X410843Y-283343D02*
X424157D01*
X334315Y-261815D02*
X334500Y-261630D01*
Y-239906D01*
X391158Y-263657D02*
X391500Y-263315D01*
Y-240406D01*
X391158Y-263657D02*
X410843D01*
X451000Y-263815D02*
X470685D01*
X451000Y-283500D02*
X470685D01*
X391158Y-283343D02*
X410843D01*
X427500Y-307000D02*
X451000Y-283500D01*
X367500Y-307000D02*
X427500D01*
X367500D02*
X391158Y-283343D01*
X315500Y-307000D02*
X367500D01*
X334315Y-288185D02*
Y-281500D01*
X315500Y-307000D02*
X334315Y-288185D01*
X232000Y-304626D02*
X234374Y-307000D01*
X354000Y-261815D02*
X354685Y-262500D01*
X363000D01*
X368000Y-267500D01*
Y-271499D02*
Y-267500D01*
Y-277000D02*
Y-273699D01*
X363500Y-281500D02*
X368000Y-277000D01*
X354000Y-281500D02*
X363500D01*
X334315D02*
X354000D01*
X334315Y-261815D02*
X354000D01*
X163421Y-166429D02*
X163500Y-166508D01*
X153500Y-154579D02*
X153579Y-154500D01*
X74500Y-293843D02*
X105000D01*
X56343D02*
X74500D01*
Y-260500D01*
X163496Y-169496D02*
X163500Y-169500D01*
X153500Y-169496D02*
X163496D01*
X36658Y-274158D02*
X56343D01*
X36658Y-293843D02*
X56343D01*
Y-274158D02*
X56500Y-274000D01*
X36000Y-294500D02*
X36658Y-293843D01*
X23000Y-294500D02*
X36000D01*
X20000Y-291500D02*
X23000Y-294500D01*
X20000Y-291500D02*
Y-286272D01*
X23843Y-274158D02*
X36658D01*
X20000Y-278000D02*
X23843Y-274158D01*
X20000Y-282728D02*
Y-278000D01*
X105000Y-293843D02*
X106843Y-292000D01*
X173500Y-278500D02*
X173693Y-278307D01*
Y-267925D01*
X230126Y-306500D02*
X232000Y-304626D01*
X153614Y-271886D02*
Y-267925D01*
X180386Y-272925D02*
X180500Y-273039D01*
X150492Y-322492D02*
X150500Y-322500D01*
X184500D02*
X184508Y-322492D01*
D18*
X138500Y-303965D02*
D03*
Y-311937D02*
D03*
D19*
X196551Y-67768D02*
D03*
X198520D02*
D03*
X200488D02*
D03*
X202457D02*
D03*
X204425D02*
D03*
X206394D02*
D03*
X208362D02*
D03*
X210331D02*
D03*
X212299D02*
D03*
X214268D02*
D03*
X216236D02*
D03*
X218205D02*
D03*
X220173D02*
D03*
X222142D02*
D03*
X224110D02*
D03*
X226079D02*
D03*
X228047D02*
D03*
X230016D02*
D03*
X231984D02*
D03*
X233953D02*
D03*
X235921D02*
D03*
X237890D02*
D03*
X239858D02*
D03*
X241827D02*
D03*
X243795D02*
D03*
X245764D02*
D03*
X247732D02*
D03*
X249701D02*
D03*
X251669D02*
D03*
X253638D02*
D03*
X255606D02*
D03*
X257575D02*
D03*
X259543D02*
D03*
X261512D02*
D03*
X263480D02*
D03*
X265449D02*
D03*
Y-151232D02*
D03*
X263480D02*
D03*
X261512D02*
D03*
X259543D02*
D03*
X257575D02*
D03*
X255606D02*
D03*
X253638D02*
D03*
X251669D02*
D03*
X249701D02*
D03*
X247732D02*
D03*
X245764D02*
D03*
X243795D02*
D03*
X241827D02*
D03*
X239858D02*
D03*
X237890D02*
D03*
X235921D02*
D03*
X233953D02*
D03*
X231984D02*
D03*
X230016D02*
D03*
X228047D02*
D03*
X226079D02*
D03*
X224110D02*
D03*
X222142D02*
D03*
X220173D02*
D03*
X218205D02*
D03*
X216236D02*
D03*
X214268D02*
D03*
X212299D02*
D03*
X210331D02*
D03*
X208362D02*
D03*
X206394D02*
D03*
X204425D02*
D03*
X202457D02*
D03*
X200488D02*
D03*
X198520D02*
D03*
X196551D02*
D03*
D20*
X272732Y-75051D02*
D03*
Y-77020D02*
D03*
Y-78988D02*
D03*
Y-80957D02*
D03*
Y-82925D02*
D03*
Y-84894D02*
D03*
Y-86862D02*
D03*
Y-88831D02*
D03*
Y-90799D02*
D03*
Y-92768D02*
D03*
Y-94736D02*
D03*
Y-96705D02*
D03*
Y-98673D02*
D03*
Y-100642D02*
D03*
Y-102610D02*
D03*
Y-104579D02*
D03*
Y-106547D02*
D03*
Y-108516D02*
D03*
Y-110484D02*
D03*
Y-112453D02*
D03*
Y-114421D02*
D03*
Y-116390D02*
D03*
Y-118358D02*
D03*
Y-120327D02*
D03*
Y-122295D02*
D03*
Y-124264D02*
D03*
Y-126232D02*
D03*
Y-128201D02*
D03*
Y-130169D02*
D03*
Y-132138D02*
D03*
Y-134106D02*
D03*
Y-136075D02*
D03*
Y-138043D02*
D03*
Y-140012D02*
D03*
Y-141980D02*
D03*
Y-143949D02*
D03*
X189268D02*
D03*
Y-141980D02*
D03*
Y-140012D02*
D03*
Y-138043D02*
D03*
Y-136075D02*
D03*
Y-134106D02*
D03*
Y-132138D02*
D03*
Y-130169D02*
D03*
Y-128201D02*
D03*
Y-126232D02*
D03*
Y-124264D02*
D03*
Y-122295D02*
D03*
Y-120327D02*
D03*
Y-118358D02*
D03*
Y-116390D02*
D03*
Y-114421D02*
D03*
Y-112453D02*
D03*
Y-110484D02*
D03*
Y-108516D02*
D03*
Y-106547D02*
D03*
Y-104579D02*
D03*
Y-102610D02*
D03*
Y-100642D02*
D03*
Y-98673D02*
D03*
Y-96705D02*
D03*
Y-94736D02*
D03*
Y-92768D02*
D03*
Y-90799D02*
D03*
Y-88831D02*
D03*
Y-86862D02*
D03*
Y-84894D02*
D03*
Y-82925D02*
D03*
Y-80957D02*
D03*
Y-78988D02*
D03*
Y-77020D02*
D03*
Y-75051D02*
D03*
D21*
X88500Y-120783D02*
D03*
Y-131217D02*
D03*
X108500D02*
D03*
Y-120783D02*
D03*
X98500Y-131217D02*
D03*
Y-120783D02*
D03*
D22*
X272744Y-176000D02*
D03*
X278256D02*
D03*
D23*
X274240Y-166000D02*
D03*
X266760D02*
D03*
X243260Y-52500D02*
D03*
X250740D02*
D03*
X209740Y-164500D02*
D03*
X202260D02*
D03*
X237240D02*
D03*
X229760D02*
D03*
X203740Y-52000D02*
D03*
X196260D02*
D03*
X234240Y-52500D02*
D03*
X226760D02*
D03*
D24*
X163500Y-166508D02*
D03*
Y-169500D02*
D03*
X153500Y-166504D02*
D03*
Y-169496D02*
D03*
D25*
X289000Y-84453D02*
D03*
Y-78547D02*
D03*
D26*
X297500Y-115886D02*
D03*
Y-102110D02*
D03*
D27*
X289000Y-134740D02*
D03*
Y-127260D02*
D03*
X173000Y-83760D02*
D03*
Y-91240D02*
D03*
Y-100760D02*
D03*
Y-108240D02*
D03*
X172500Y-140240D02*
D03*
Y-132760D02*
D03*
D28*
X153657Y-156000D02*
D03*
X163500D02*
D03*
D30*
X431000Y-102449D02*
D03*
Y-108551D02*
D03*
X297000Y-45051D02*
D03*
Y-38949D02*
D03*
X401000Y-102449D02*
D03*
Y-108551D02*
D03*
D31*
X232000Y-304626D02*
D03*
Y-270374D02*
D03*
D32*
X159186Y-108892D02*
D03*
Y-112829D02*
D03*
D33*
X140988Y-121500D02*
D03*
X152012D02*
D03*
X140988Y-100500D02*
D03*
X152012D02*
D03*
D34*
X178300Y-306500D02*
D03*
X156700D02*
D03*
D35*
X173500D02*
D03*
X169500D02*
D03*
D36*
X165500D02*
D03*
X161500D02*
D03*
D37*
X304500Y-86500D02*
D03*
Y-92012D02*
D03*
D38*
X153614Y-267925D02*
D03*
X160307D02*
D03*
X167000D02*
D03*
X173693D02*
D03*
X180386D02*
D03*
D39*
X167000Y-231114D02*
D03*
D40*
X250185Y-228000D02*
D03*
X210815D02*
D03*
D41*
X276165Y-52500D02*
D03*
X274000D02*
D03*
D42*
X266453D02*
D03*
X260547D02*
D03*
D43*
X197000Y-282252D02*
D03*
Y-298000D02*
D03*
D44*
X451000Y-230000D02*
D03*
Y-241811D02*
D03*
X471000Y-230500D02*
D03*
Y-218689D02*
D03*
X391500Y-228594D02*
D03*
Y-240406D02*
D03*
X334500Y-228095D02*
D03*
Y-239906D02*
D03*
X411000Y-228405D02*
D03*
Y-216595D02*
D03*
X350000Y-227906D02*
D03*
Y-216094D02*
D03*
D45*
X415500Y-108642D02*
D03*
Y-101358D02*
D03*
D46*
X489000Y-274501D02*
D03*
Y-272500D02*
D03*
X434500Y-181000D02*
D03*
Y-183001D02*
D03*
X428500Y-274500D02*
D03*
Y-272499D02*
D03*
X368000Y-273500D02*
D03*
Y-271499D02*
D03*
X372500Y-179000D02*
D03*
Y-181001D02*
D03*
X313000Y-180500D02*
D03*
Y-182501D02*
D03*
D47*
X88500Y-161500D02*
D03*
Y-181500D02*
D03*
Y-171500D02*
D03*
X113303Y-166500D02*
D03*
Y-176500D02*
D03*
Y-156500D02*
D03*
D86*
X20000Y-286272D02*
D03*
Y-282728D02*
D03*
D87*
X372500Y-114500D02*
D03*
X362500D02*
D03*
X242500Y-27000D02*
D03*
X232500D02*
D03*
X222500D02*
D03*
X343500Y-80000D02*
D03*
Y-70000D02*
D03*
X353500Y-80000D02*
D03*
Y-70000D02*
D03*
X363500Y-80000D02*
D03*
Y-70000D02*
D03*
X373500Y-80000D02*
D03*
Y-70000D02*
D03*
X383500Y-80000D02*
D03*
Y-70000D02*
D03*
X132000Y-249000D02*
D03*
Y-239000D02*
D03*
D88*
X382500Y-114500D02*
D03*
X212500Y-27000D02*
D03*
D89*
X7874Y-7874D02*
D03*
X518126Y-6874D02*
D03*
X517126Y-320126D02*
D03*
X7874Y-319126D02*
D03*
X276500Y-290500D02*
D03*
D90*
X56343Y-274158D02*
D03*
X36658D02*
D03*
Y-293843D02*
D03*
X56343D02*
D03*
X470685Y-283500D02*
D03*
X451000D02*
D03*
Y-263815D02*
D03*
X470685D02*
D03*
X470843Y-191842D02*
D03*
X451158D02*
D03*
Y-172158D02*
D03*
X470843D02*
D03*
X410843Y-283343D02*
D03*
X391158D02*
D03*
Y-263657D02*
D03*
X410843D02*
D03*
X334315Y-261815D02*
D03*
X354000D02*
D03*
Y-281500D02*
D03*
X334315D02*
D03*
X392000Y-169815D02*
D03*
X411685D02*
D03*
Y-189500D02*
D03*
X392000D02*
D03*
X350342Y-191342D02*
D03*
X330658D02*
D03*
Y-171658D02*
D03*
X350342D02*
D03*
D91*
X185287Y-322500D02*
D03*
X149713D02*
D03*
X185295Y-308039D02*
D03*
X149705D02*
D03*
D92*
X105000Y-274158D02*
D03*
Y-293843D02*
D03*
X56500Y-221209D02*
D03*
Y-242862D02*
D03*
D93*
X146000Y-301000D02*
D03*
X167500Y-300500D02*
D03*
X232500Y-122500D02*
D03*
Y-111000D02*
D03*
Y-98000D02*
D03*
X243000Y-87500D02*
D03*
X209000Y-77000D02*
D03*
X146500Y-100500D02*
D03*
X163500Y-103000D02*
D03*
Y-111500D02*
D03*
X203500Y-144000D02*
D03*
X224000Y-141000D02*
D03*
X255500Y-142500D02*
D03*
X264500Y-123500D02*
D03*
X263500Y-120500D02*
D03*
X264500Y-87000D02*
D03*
X252000Y-77500D02*
D03*
X234500Y-78000D02*
D03*
X164500Y-78500D02*
D03*
X199500Y-45500D02*
D03*
X199000Y-103000D02*
D03*
X199500Y-106500D02*
D03*
D94*
X161500Y-295500D02*
D03*
X173438Y-295563D02*
D03*
X198000Y-139500D02*
D03*
X199500Y-131000D02*
D03*
X337500Y-63500D02*
D03*
X290500Y-52500D02*
D03*
X451000Y-107000D02*
D03*
X486500Y-221500D02*
D03*
X334000Y-220500D02*
D03*
X307000Y-201500D02*
D03*
X281000Y-90000D02*
D03*
X309500Y-68500D02*
D03*
X363500Y-89000D02*
D03*
X221000Y-77000D02*
D03*
X330000Y-101000D02*
D03*
X214500Y-77000D02*
D03*
X201000Y-122500D02*
D03*
X158500Y-149500D02*
D03*
X179000Y-151000D02*
D03*
X70500Y-117500D02*
D03*
X79000Y-131000D02*
D03*
X109500Y-189000D02*
D03*
X67000Y-149000D02*
D03*
X120500Y-141500D02*
D03*
X218000Y-44000D02*
D03*
X98500Y-200000D02*
D03*
X239000Y-34000D02*
D03*
X178000Y-123500D02*
D03*
X213500Y-49000D02*
D03*
X73744Y-221351D02*
D03*
X74000Y-242500D02*
D03*
X296500Y-92500D02*
D03*
X210114Y-58114D02*
D03*
X495000Y-214000D02*
D03*
X296500Y-182000D02*
D03*
X322000Y-224500D02*
D03*
X304000D02*
D03*
X286500D02*
D03*
X377000Y-240500D02*
D03*
X289000Y-201500D02*
D03*
X435000Y-220000D02*
D03*
X379000Y-209500D02*
D03*
X326500Y-210000D02*
D03*
X221000Y-275000D02*
D03*
X173500Y-278500D02*
D03*
X140000Y-281000D02*
D03*
M02*
