G04*
G04 #@! TF.GenerationSoftware,Altium Limited,CircuitMaker,2.3.0 (2.3.0.3)*
G04*
G04 Layer_Color=12697792*
%FSLAX25Y25*%
%MOIN*%
G70*
G04*
G04 #@! TF.SameCoordinates,2CE33893-7A16-41D8-AC82-33CA6B9F0197*
G04*
G04*
G04 #@! TF.FilePolarity,Positive*
G04*
G01*
G75*
%ADD87C,0.06000*%
%ADD88R,0.06000X0.06000*%
%ADD89C,0.11811*%
%ADD90C,0.08661*%
G04:AMPARAMS|DCode=91|XSize=60mil|YSize=60mil|CornerRadius=7.5mil|HoleSize=0mil|Usage=FLASHONLY|Rotation=0.000|XOffset=0mil|YOffset=0mil|HoleType=Round|Shape=RoundedRectangle|*
%AMROUNDEDRECTD91*
21,1,0.06000,0.04500,0,0,0.0*
21,1,0.04500,0.06000,0,0,0.0*
1,1,0.01500,0.02250,-0.02250*
1,1,0.01500,-0.02250,-0.02250*
1,1,0.01500,-0.02250,0.02250*
1,1,0.01500,0.02250,0.02250*
%
%ADD91ROUNDEDRECTD91*%
%ADD92C,0.07874*%
D87*
X372500Y-114500D02*
D03*
X362500D02*
D03*
X242500Y-27000D02*
D03*
X232500D02*
D03*
X222500D02*
D03*
X343500Y-80000D02*
D03*
Y-70000D02*
D03*
X353500Y-80000D02*
D03*
Y-70000D02*
D03*
X363500Y-80000D02*
D03*
Y-70000D02*
D03*
X373500Y-80000D02*
D03*
Y-70000D02*
D03*
X383500Y-80000D02*
D03*
Y-70000D02*
D03*
X132000Y-249000D02*
D03*
Y-239000D02*
D03*
D88*
X382500Y-114500D02*
D03*
X212500Y-27000D02*
D03*
D89*
X7874Y-7874D02*
D03*
X518126Y-6874D02*
D03*
X517126Y-320126D02*
D03*
X7874Y-319126D02*
D03*
D90*
X56343Y-274158D02*
D03*
X36658D02*
D03*
Y-293843D02*
D03*
X56343D02*
D03*
X470685Y-283500D02*
D03*
X451000D02*
D03*
Y-263815D02*
D03*
X470685D02*
D03*
X470843Y-191842D02*
D03*
X451158D02*
D03*
Y-172158D02*
D03*
X470843D02*
D03*
X410843Y-283343D02*
D03*
X391158D02*
D03*
Y-263657D02*
D03*
X410843D02*
D03*
X334315Y-261815D02*
D03*
X354000D02*
D03*
Y-281500D02*
D03*
X334315D02*
D03*
X392000Y-169815D02*
D03*
X411685D02*
D03*
Y-189500D02*
D03*
X392000D02*
D03*
X350342Y-191342D02*
D03*
X330658D02*
D03*
Y-171658D02*
D03*
X350342D02*
D03*
D91*
X185287Y-322500D02*
D03*
X149713D02*
D03*
X185295Y-308039D02*
D03*
X149705D02*
D03*
D92*
X105000Y-274158D02*
D03*
Y-293843D02*
D03*
X56500Y-221209D02*
D03*
Y-242862D02*
D03*
M02*
