G04*
G04 #@! TF.GenerationSoftware,Altium Limited,CircuitMaker,2.3.0 (2.3.0.3)*
G04*
G04 Layer_Color=11661055*
%FSLAX25Y25*%
%MOIN*%
G70*
G04*
G04 #@! TF.SameCoordinates,2CE33893-7A16-41D8-AC82-33CA6B9F0197*
G04*
G04*
G04 #@! TF.FilePolarity,Positive*
G04*
G01*
G75*
%ADD12C,0.01000*%
D12*
X30306Y-251806D02*
X29556Y-251057D01*
X28057D01*
X27307Y-251806D01*
Y-252556D01*
X28057Y-253306D01*
X29556D01*
X30306Y-254056D01*
Y-254805D01*
X29556Y-255555D01*
X28057D01*
X27307Y-254805D01*
X31806Y-251057D02*
Y-255555D01*
X33305Y-254056D01*
X34805Y-255555D01*
Y-251057D01*
X36304Y-255555D02*
X37804D01*
X37054D01*
Y-251057D01*
X36304Y-251806D01*
X444649Y-241464D02*
X443899Y-240714D01*
X442399D01*
X441650Y-241464D01*
Y-242214D01*
X442399Y-242963D01*
X443899D01*
X444649Y-243713D01*
Y-244463D01*
X443899Y-245213D01*
X442399D01*
X441650Y-244463D01*
X446148Y-240714D02*
Y-245213D01*
X447648Y-243713D01*
X449147Y-245213D01*
Y-240714D01*
X450647D02*
X453646D01*
Y-241464D01*
X450647Y-244463D01*
Y-245213D01*
X444806Y-149806D02*
X444056Y-149057D01*
X442557D01*
X441807Y-149806D01*
Y-150556D01*
X442557Y-151306D01*
X444056D01*
X444806Y-152056D01*
Y-152805D01*
X444056Y-153555D01*
X442557D01*
X441807Y-152805D01*
X446306Y-149057D02*
Y-153555D01*
X447805Y-152056D01*
X449305Y-153555D01*
Y-149057D01*
X453054Y-153555D02*
Y-149057D01*
X450804Y-151306D01*
X453803D01*
X384806Y-241306D02*
X384056Y-240557D01*
X382557D01*
X381807Y-241306D01*
Y-242056D01*
X382557Y-242806D01*
X384056D01*
X384806Y-243556D01*
Y-244305D01*
X384056Y-245055D01*
X382557D01*
X381807Y-244305D01*
X386306Y-240557D02*
Y-245055D01*
X387805Y-243556D01*
X389305Y-245055D01*
Y-240557D01*
X393803Y-245055D02*
X390804D01*
X393803Y-242056D01*
Y-241306D01*
X393054Y-240557D01*
X391554D01*
X390804Y-241306D01*
X360351Y-303851D02*
X361101Y-304601D01*
X362601D01*
X363350Y-303851D01*
Y-303101D01*
X362601Y-302352D01*
X361101D01*
X360351Y-301602D01*
Y-300852D01*
X361101Y-300102D01*
X362601D01*
X363350Y-300852D01*
X358852Y-304601D02*
Y-300102D01*
X357352Y-301602D01*
X355853Y-300102D01*
Y-304601D01*
X351354D02*
X354353D01*
Y-302352D01*
X352854Y-303101D01*
X352104D01*
X351354Y-302352D01*
Y-300852D01*
X352104Y-300102D01*
X353604D01*
X354353Y-300852D01*
X418036Y-211851D02*
X418786Y-212601D01*
X420286D01*
X421035Y-211851D01*
Y-211101D01*
X420286Y-210352D01*
X418786D01*
X418036Y-209602D01*
Y-208852D01*
X418786Y-208102D01*
X420286D01*
X421035Y-208852D01*
X416537Y-212601D02*
Y-208102D01*
X415037Y-209602D01*
X413538Y-208102D01*
Y-212601D01*
X412038Y-211851D02*
X411289Y-212601D01*
X409789D01*
X409039Y-211851D01*
Y-211101D01*
X409789Y-210352D01*
X410539D01*
X409789D01*
X409039Y-209602D01*
Y-208852D01*
X409789Y-208102D01*
X411289D01*
X412038Y-208852D01*
X324306Y-149306D02*
X323556Y-148557D01*
X322057D01*
X321307Y-149306D01*
Y-150056D01*
X322057Y-150806D01*
X323556D01*
X324306Y-151556D01*
Y-152305D01*
X323556Y-153055D01*
X322057D01*
X321307Y-152305D01*
X325806Y-148557D02*
Y-153055D01*
X327305Y-151556D01*
X328805Y-153055D01*
Y-148557D01*
X333303D02*
X331804Y-149306D01*
X330304Y-150806D01*
Y-152305D01*
X331054Y-153055D01*
X332554D01*
X333303Y-152305D01*
Y-151556D01*
X332554Y-150806D01*
X330304D01*
M02*
