G04*
G04 #@! TF.GenerationSoftware,Altium Limited,CircuitMaker,2.3.0 (2.3.0.3)*
G04*
G04 Layer_Color=20142*
%FSLAX25Y25*%
%MOIN*%
G70*
G04*
G04 #@! TF.SameCoordinates,2CE33893-7A16-41D8-AC82-33CA6B9F0197*
G04*
G04*
G04 #@! TF.FilePolarity,Negative*
G04*
G01*
G75*
%ADD48R,0.06115X0.04737*%
%ADD49O,0.01981X0.09068*%
%ADD50O,0.09068X0.01981*%
%ADD51R,0.06902X0.04343*%
G04:AMPARAMS|DCode=52|XSize=47.37mil|YSize=36.35mil|CornerRadius=7.54mil|HoleSize=0mil|Usage=FLASHONLY|Rotation=270.000|XOffset=0mil|YOffset=0mil|HoleType=Round|Shape=RoundedRectangle|*
%AMROUNDEDRECTD52*
21,1,0.04737,0.02126,0,0,270.0*
21,1,0.03228,0.03635,0,0,270.0*
1,1,0.01509,-0.01063,-0.01614*
1,1,0.01509,-0.01063,0.01614*
1,1,0.01509,0.01063,0.01614*
1,1,0.01509,0.01063,-0.01614*
%
%ADD52ROUNDEDRECTD52*%
%ADD53R,0.04343X0.05918*%
%ADD54R,0.02847X0.03005*%
%ADD55R,0.06115X0.04934*%
%ADD56R,0.07099X0.10642*%
%ADD57R,0.05918X0.04343*%
%ADD58R,0.05131X0.08280*%
%ADD59R,0.03162X0.02768*%
%ADD60R,0.05918X0.04343*%
%ADD61R,0.08280X0.18123*%
%ADD62R,0.03359X0.03359*%
%ADD63R,0.05918X0.11430*%
%ADD64R,0.04000X0.05800*%
%ADD65R,0.03600X0.05800*%
%ADD66R,0.03800X0.05800*%
G04:AMPARAMS|DCode=67|XSize=47.37mil|YSize=36.35mil|CornerRadius=7.54mil|HoleSize=0mil|Usage=FLASHONLY|Rotation=0.000|XOffset=0mil|YOffset=0mil|HoleType=Round|Shape=RoundedRectangle|*
%AMROUNDEDRECTD67*
21,1,0.04737,0.02126,0,0,0.0*
21,1,0.03228,0.03635,0,0,0.0*
1,1,0.01509,0.01614,-0.01063*
1,1,0.01509,-0.01614,-0.01063*
1,1,0.01509,-0.01614,0.01063*
1,1,0.01509,0.01614,0.01063*
%
%ADD67ROUNDEDRECTD67*%
%ADD68R,0.04737X0.12217*%
%ADD69R,0.41745X0.32296*%
%ADD70R,0.15957X0.22453*%
%ADD71R,0.01784X0.02178*%
%ADD72R,0.04934X0.04737*%
%ADD73R,0.08674X0.08674*%
%ADD74R,0.08280X0.06706*%
%ADD75R,0.06902X0.06902*%
%ADD76R,0.01500X0.01700*%
%ADD77R,0.17335X0.06706*%
%ADD78C,0.06800*%
%ADD79R,0.06800X0.06800*%
%ADD80C,0.12611*%
%ADD81C,0.09461*%
G04:AMPARAMS|DCode=82|XSize=68mil|YSize=68mil|CornerRadius=11.5mil|HoleSize=0mil|Usage=FLASHONLY|Rotation=0.000|XOffset=0mil|YOffset=0mil|HoleType=Round|Shape=RoundedRectangle|*
%AMROUNDEDRECTD82*
21,1,0.06800,0.04500,0,0,0.0*
21,1,0.04500,0.06800,0,0,0.0*
1,1,0.02300,0.02250,-0.02250*
1,1,0.02300,-0.02250,-0.02250*
1,1,0.02300,-0.02250,0.02250*
1,1,0.02300,0.02250,0.02250*
%
%ADD82ROUNDEDRECTD82*%
%ADD83C,0.08674*%
%ADD84C,0.03162*%
%ADD85C,0.03600*%
D48*
X138500Y-303965D02*
D03*
Y-311937D02*
D03*
D49*
X196551Y-67768D02*
D03*
X198520D02*
D03*
X200488D02*
D03*
X202457D02*
D03*
X204425D02*
D03*
X206394D02*
D03*
X208362D02*
D03*
X210331D02*
D03*
X212299D02*
D03*
X214268D02*
D03*
X216236D02*
D03*
X218205D02*
D03*
X220173D02*
D03*
X222142D02*
D03*
X224110D02*
D03*
X226079D02*
D03*
X228047D02*
D03*
X230016D02*
D03*
X231984D02*
D03*
X233953D02*
D03*
X235921D02*
D03*
X237890D02*
D03*
X239858D02*
D03*
X241827D02*
D03*
X243795D02*
D03*
X245764D02*
D03*
X247732D02*
D03*
X249701D02*
D03*
X251669D02*
D03*
X253638D02*
D03*
X255606D02*
D03*
X257575D02*
D03*
X259543D02*
D03*
X261512D02*
D03*
X263480D02*
D03*
X265449D02*
D03*
Y-151232D02*
D03*
X263480D02*
D03*
X261512D02*
D03*
X259543D02*
D03*
X257575D02*
D03*
X255606D02*
D03*
X253638D02*
D03*
X251669D02*
D03*
X249701D02*
D03*
X247732D02*
D03*
X245764D02*
D03*
X243795D02*
D03*
X241827D02*
D03*
X239858D02*
D03*
X237890D02*
D03*
X235921D02*
D03*
X233953D02*
D03*
X231984D02*
D03*
X230016D02*
D03*
X228047D02*
D03*
X226079D02*
D03*
X224110D02*
D03*
X222142D02*
D03*
X220173D02*
D03*
X218205D02*
D03*
X216236D02*
D03*
X214268D02*
D03*
X212299D02*
D03*
X210331D02*
D03*
X208362D02*
D03*
X206394D02*
D03*
X204425D02*
D03*
X202457D02*
D03*
X200488D02*
D03*
X198520D02*
D03*
X196551D02*
D03*
D50*
X272732Y-75051D02*
D03*
Y-77020D02*
D03*
Y-78988D02*
D03*
Y-80957D02*
D03*
Y-82925D02*
D03*
Y-84894D02*
D03*
Y-86862D02*
D03*
Y-88831D02*
D03*
Y-90799D02*
D03*
Y-92768D02*
D03*
Y-94736D02*
D03*
Y-96705D02*
D03*
Y-98673D02*
D03*
Y-100642D02*
D03*
Y-102610D02*
D03*
Y-104579D02*
D03*
Y-106547D02*
D03*
Y-108516D02*
D03*
Y-110484D02*
D03*
Y-112453D02*
D03*
Y-114421D02*
D03*
Y-116390D02*
D03*
Y-118358D02*
D03*
Y-120327D02*
D03*
Y-122295D02*
D03*
Y-124264D02*
D03*
Y-126232D02*
D03*
Y-128201D02*
D03*
Y-130169D02*
D03*
Y-132138D02*
D03*
Y-134106D02*
D03*
Y-136075D02*
D03*
Y-138043D02*
D03*
Y-140012D02*
D03*
Y-141980D02*
D03*
Y-143949D02*
D03*
X189268D02*
D03*
Y-141980D02*
D03*
Y-140012D02*
D03*
Y-138043D02*
D03*
Y-136075D02*
D03*
Y-134106D02*
D03*
Y-132138D02*
D03*
Y-130169D02*
D03*
Y-128201D02*
D03*
Y-126232D02*
D03*
Y-124264D02*
D03*
Y-122295D02*
D03*
Y-120327D02*
D03*
Y-118358D02*
D03*
Y-116390D02*
D03*
Y-114421D02*
D03*
Y-112453D02*
D03*
Y-110484D02*
D03*
Y-108516D02*
D03*
Y-106547D02*
D03*
Y-104579D02*
D03*
Y-102610D02*
D03*
Y-100642D02*
D03*
Y-98673D02*
D03*
Y-96705D02*
D03*
Y-94736D02*
D03*
Y-92768D02*
D03*
Y-90799D02*
D03*
Y-88831D02*
D03*
Y-86862D02*
D03*
Y-84894D02*
D03*
Y-82925D02*
D03*
Y-80957D02*
D03*
Y-78988D02*
D03*
Y-77020D02*
D03*
Y-75051D02*
D03*
D51*
X88500Y-120783D02*
D03*
Y-131217D02*
D03*
X108500D02*
D03*
Y-120783D02*
D03*
X98500Y-131217D02*
D03*
Y-120783D02*
D03*
D52*
X272744Y-176000D02*
D03*
X278256D02*
D03*
D53*
X274240Y-166000D02*
D03*
X266760D02*
D03*
X243260Y-52500D02*
D03*
X250740D02*
D03*
X209740Y-164500D02*
D03*
X202260D02*
D03*
X237240D02*
D03*
X229760D02*
D03*
X203740Y-52000D02*
D03*
X196260D02*
D03*
X234240Y-52500D02*
D03*
X226760D02*
D03*
D54*
X163500Y-166508D02*
D03*
Y-169500D02*
D03*
X153500Y-166504D02*
D03*
Y-169496D02*
D03*
D55*
X289000Y-84453D02*
D03*
Y-78547D02*
D03*
D56*
X297500Y-115886D02*
D03*
Y-102110D02*
D03*
D57*
X289000Y-134740D02*
D03*
Y-127260D02*
D03*
X173000Y-83760D02*
D03*
Y-91240D02*
D03*
Y-100760D02*
D03*
Y-108240D02*
D03*
X172500Y-140240D02*
D03*
Y-132760D02*
D03*
D58*
X153657Y-156000D02*
D03*
X163500D02*
D03*
D59*
X20000Y-286272D02*
D03*
Y-282728D02*
D03*
D60*
X431000Y-102449D02*
D03*
Y-108551D02*
D03*
X297000Y-45051D02*
D03*
Y-38949D02*
D03*
X401000Y-102449D02*
D03*
Y-108551D02*
D03*
D61*
X232000Y-304626D02*
D03*
Y-270374D02*
D03*
D62*
X159186Y-108892D02*
D03*
Y-112829D02*
D03*
D63*
X140988Y-121500D02*
D03*
X152012D02*
D03*
X140988Y-100500D02*
D03*
X152012D02*
D03*
D64*
X178300Y-306500D02*
D03*
X156700D02*
D03*
D65*
X173500D02*
D03*
X169500D02*
D03*
D66*
X165500D02*
D03*
X161500D02*
D03*
D67*
X304500Y-86500D02*
D03*
Y-92012D02*
D03*
D68*
X153614Y-267925D02*
D03*
X160307D02*
D03*
X167000D02*
D03*
X173693D02*
D03*
X180386D02*
D03*
D69*
X167000Y-231114D02*
D03*
D70*
X250185Y-228000D02*
D03*
X210815D02*
D03*
D71*
X276165Y-52500D02*
D03*
X274000D02*
D03*
D72*
X266453D02*
D03*
X260547D02*
D03*
D73*
X197000Y-282252D02*
D03*
Y-298000D02*
D03*
D74*
X451000Y-230000D02*
D03*
Y-241811D02*
D03*
X471000Y-230500D02*
D03*
Y-218689D02*
D03*
X391500Y-228594D02*
D03*
Y-240406D02*
D03*
X334500Y-228095D02*
D03*
Y-239906D02*
D03*
X411000Y-228405D02*
D03*
Y-216595D02*
D03*
X350000Y-227906D02*
D03*
Y-216094D02*
D03*
D75*
X415500Y-108642D02*
D03*
Y-101358D02*
D03*
D76*
X489000Y-274501D02*
D03*
Y-272500D02*
D03*
X434500Y-181000D02*
D03*
Y-183001D02*
D03*
X428500Y-274500D02*
D03*
Y-272499D02*
D03*
X368000Y-273500D02*
D03*
Y-271499D02*
D03*
X372500Y-179000D02*
D03*
Y-181001D02*
D03*
X313000Y-180500D02*
D03*
Y-182501D02*
D03*
D77*
X88500Y-161500D02*
D03*
Y-181500D02*
D03*
Y-171500D02*
D03*
X113303Y-166500D02*
D03*
Y-176500D02*
D03*
Y-156500D02*
D03*
D78*
X372500Y-114500D02*
D03*
X362500D02*
D03*
X242500Y-27000D02*
D03*
X232500D02*
D03*
X222500D02*
D03*
X343500Y-80000D02*
D03*
Y-70000D02*
D03*
X353500Y-80000D02*
D03*
Y-70000D02*
D03*
X363500Y-80000D02*
D03*
Y-70000D02*
D03*
X373500Y-80000D02*
D03*
Y-70000D02*
D03*
X383500Y-80000D02*
D03*
Y-70000D02*
D03*
X132000Y-249000D02*
D03*
Y-239000D02*
D03*
D79*
X382500Y-114500D02*
D03*
X212500Y-27000D02*
D03*
D80*
X7874Y-7874D02*
D03*
X518126Y-6874D02*
D03*
X517126Y-320126D02*
D03*
X7874Y-319126D02*
D03*
X276500Y-290500D02*
D03*
D81*
X56343Y-274158D02*
D03*
X36658D02*
D03*
Y-293843D02*
D03*
X56343D02*
D03*
X470685Y-283500D02*
D03*
X451000D02*
D03*
Y-263815D02*
D03*
X470685D02*
D03*
X470843Y-191842D02*
D03*
X451158D02*
D03*
Y-172158D02*
D03*
X470843D02*
D03*
X410843Y-283343D02*
D03*
X391158D02*
D03*
Y-263657D02*
D03*
X410843D02*
D03*
X334315Y-261815D02*
D03*
X354000D02*
D03*
Y-281500D02*
D03*
X334315D02*
D03*
X392000Y-169815D02*
D03*
X411685D02*
D03*
Y-189500D02*
D03*
X392000D02*
D03*
X350342Y-191342D02*
D03*
X330658D02*
D03*
Y-171658D02*
D03*
X350342D02*
D03*
D82*
X185287Y-322500D02*
D03*
X149713D02*
D03*
X185295Y-308039D02*
D03*
X149705D02*
D03*
D83*
X105000Y-274158D02*
D03*
Y-293843D02*
D03*
X56500Y-221209D02*
D03*
Y-242862D02*
D03*
D84*
X146000Y-301000D02*
D03*
X167500Y-300500D02*
D03*
X232500Y-122500D02*
D03*
Y-111000D02*
D03*
Y-98000D02*
D03*
X243000Y-87500D02*
D03*
X209000Y-77000D02*
D03*
X146500Y-100500D02*
D03*
X163500Y-103000D02*
D03*
Y-111500D02*
D03*
X203500Y-144000D02*
D03*
X224000Y-141000D02*
D03*
X255500Y-142500D02*
D03*
X264500Y-123500D02*
D03*
X263500Y-120500D02*
D03*
X264500Y-87000D02*
D03*
X252000Y-77500D02*
D03*
X234500Y-78000D02*
D03*
X164500Y-78500D02*
D03*
X199500Y-45500D02*
D03*
X199000Y-103000D02*
D03*
X199500Y-106500D02*
D03*
D85*
X161500Y-295500D02*
D03*
X173438Y-295563D02*
D03*
X198000Y-139500D02*
D03*
X199500Y-131000D02*
D03*
X337500Y-63500D02*
D03*
X290500Y-52500D02*
D03*
X451000Y-107000D02*
D03*
X486500Y-221500D02*
D03*
X334000Y-220500D02*
D03*
X307000Y-201500D02*
D03*
X281000Y-90000D02*
D03*
X309500Y-68500D02*
D03*
X363500Y-89000D02*
D03*
X221000Y-77000D02*
D03*
X330000Y-101000D02*
D03*
X214500Y-77000D02*
D03*
X201000Y-122500D02*
D03*
X158500Y-149500D02*
D03*
X179000Y-151000D02*
D03*
X70500Y-117500D02*
D03*
X79000Y-131000D02*
D03*
X109500Y-189000D02*
D03*
X67000Y-149000D02*
D03*
X120500Y-141500D02*
D03*
X218000Y-44000D02*
D03*
X98500Y-200000D02*
D03*
X239000Y-34000D02*
D03*
X178000Y-123500D02*
D03*
X213500Y-49000D02*
D03*
X73744Y-221351D02*
D03*
X74000Y-242500D02*
D03*
X296500Y-92500D02*
D03*
X210114Y-58114D02*
D03*
X495000Y-214000D02*
D03*
X296500Y-182000D02*
D03*
X322000Y-224500D02*
D03*
X304000D02*
D03*
X286500D02*
D03*
X377000Y-240500D02*
D03*
X289000Y-201500D02*
D03*
X435000Y-220000D02*
D03*
X379000Y-209500D02*
D03*
X326500Y-210000D02*
D03*
X221000Y-275000D02*
D03*
X173500Y-278500D02*
D03*
X140000Y-281000D02*
D03*
M02*
